<svg width="15" height="31" viewBox="0 0 15 31" fill="none" xmlns="http://www.w3.org/2000/svg">
<path d="M0.00544507 15.634C0.0328643 15.9521 0.159891 16.2533 0.368192 16.4939L12.3432 30.4459C12.5669 30.7217 12.8801 30.9089 13.2275 30.9743C13.5748 31.0397 13.934 30.9793 14.2413 30.8035C14.5487 30.6278 14.7845 30.3482 14.9071 30.0141C15.0296 29.68 15.031 29.313 14.911 28.978C14.8401 28.7878 14.7326 28.6137 14.5946 28.4657L3.4769 15.5043L14.5946 2.53653C14.7662 2.351 14.8885 2.12489 14.9503 1.87908C15.0122 1.63326 15.0115 1.3757 14.9484 1.13021C14.8854 0.884717 14.7619 0.659232 14.5895 0.474572C14.4171 0.289912 14.2012 0.152041 13.9619 0.0737348C13.6743 -0.020348 13.3651 -0.0244887 13.0751 0.06183C12.7851 0.148149 12.5278 0.320873 12.3369 0.557354L0.368192 14.5147C0.236325 14.6674 0.136276 14.8453 0.0739589 15.0377C0.0116422 15.2302 -0.0116633 15.4323 0.00544507 15.634Z" fill="white"/>
</svg>
