<svg width="15" height="30" viewBox="0 0 15 30" fill="none" xmlns="http://www.w3.org/2000/svg">
<path d="M14.7821 14.9895C14.7561 14.6902 14.6357 14.4069 14.4381 14.1805L3.08215 1.05448C2.87006 0.795038 2.57305 0.618955 2.24365 0.557383C1.91425 0.49581 1.57368 0.552712 1.28219 0.718027C0.990709 0.883342 0.767098 1.14643 0.650878 1.46073C0.534657 1.77504 0.533344 2.12031 0.647155 2.4355C0.714345 2.6144 0.816295 2.77821 0.947142 2.91749L11.4901 15.1115L0.947142 27.3115C0.784502 27.4861 0.668506 27.6988 0.609862 27.93C0.551218 28.1613 0.551824 28.4036 0.611632 28.6346C0.67144 28.8655 0.788508 29.0777 0.952025 29.2514C1.11554 29.4251 1.32023 29.5548 1.54715 29.6285C1.81992 29.717 2.11308 29.7209 2.38812 29.6397C2.66316 29.5585 2.90718 29.396 3.08813 29.1735L14.4381 16.0425C14.5632 15.8988 14.6581 15.7315 14.7172 15.5504C14.7763 15.3694 14.7984 15.1783 14.7821 14.9885V14.9895Z" fill="white"/>
</svg>
