<svg width="61" height="46" viewBox="0 0 61 46" fill="none" xmlns="http://www.w3.org/2000/svg">
<path d="M8.80734 22.5781C8.42561 22.5781 8.11328 22.2673 8.11328 21.8874V9.44848C8.11328 9.06861 8.42561 8.75781 8.80734 8.75781C9.18907 8.75781 9.50139 9.06861 9.50139 9.44848V21.8874C9.50139 22.2673 9.18907 22.5781 8.80734 22.5781Z" fill="white"/>
<path d="M14.1862 22.5781C13.8045 22.5781 13.4922 22.2673 13.4922 21.8874V9.44848C13.4922 9.06861 13.8045 8.75781 14.1862 8.75781C14.568 8.75781 14.8803 9.06861 14.8803 9.44848V21.8874C14.8803 22.2673 14.568 22.5781 14.1862 22.5781Z" fill="white"/>
<path d="M19.5583 22.5781C19.1766 22.5781 18.8643 22.2673 18.8643 21.8874V9.44848C18.8643 9.06861 19.1766 8.75781 19.5583 8.75781C19.94 8.75781 20.2524 9.06861 20.2524 9.44848V21.8874C20.2524 22.2673 19.94 22.5781 19.5583 22.5781Z" fill="white"/>
<path d="M24.9301 22.5781C24.5484 22.5781 24.2361 22.2673 24.2361 21.8874V9.44848C24.2361 9.06861 24.5484 8.75781 24.9301 8.75781C25.3119 8.75781 25.6242 9.06861 25.6242 9.44848V21.8874C25.6242 22.2673 25.3188 22.5781 24.9301 22.5781Z" fill="white"/>
<path d="M30.3093 22.5781C29.9276 22.5781 29.6152 22.2673 29.6152 21.8874V9.44848C29.6152 9.06861 29.9276 8.75781 30.3093 8.75781C30.691 8.75781 31.0033 9.06861 31.0033 9.44848V21.8874C31.0033 22.2673 30.691 22.5781 30.3093 22.5781Z" fill="white"/>
<path d="M35.6811 22.5781C35.2994 22.5781 34.9871 22.2673 34.9871 21.8874V9.44848C34.9871 9.06861 35.2994 8.75781 35.6811 8.75781C36.0628 8.75781 36.3752 9.06861 36.3752 9.44848V21.8874C36.3752 22.2673 36.0698 22.5781 35.6811 22.5781Z" fill="white"/>
<path d="M41.06 22.5781C40.6783 22.5781 40.366 22.2673 40.366 21.8874V9.44848C40.366 9.06861 40.6783 8.75781 41.06 8.75781C41.4418 8.75781 41.7541 9.06861 41.7541 9.44848V21.8874C41.7541 22.2673 41.4418 22.5781 41.06 22.5781Z" fill="white"/>
<path d="M46.4321 22.5781C46.0504 22.5781 45.738 22.2673 45.738 21.8874V9.44848C45.738 9.06861 46.0504 8.75781 46.4321 8.75781C46.8138 8.75781 47.1262 9.06861 47.1262 9.44848V21.8874C47.1262 22.2673 46.8208 22.5781 46.4321 22.5781Z" fill="white"/>
<path d="M51.811 22.5781C51.4293 22.5781 51.1169 22.2673 51.1169 21.8874V9.44848C51.1169 9.06861 51.4293 8.75781 51.811 8.75781C52.1927 8.75781 52.5051 9.06861 52.5051 9.44848V21.8874C52.5051 22.2673 52.1927 22.5781 51.811 22.5781Z" fill="white"/>
<path d="M8.80734 36.9371C8.42561 36.9371 8.11328 36.6263 8.11328 36.2464V23.3723C8.11328 22.9924 8.42561 22.6816 8.80734 22.6816C9.18907 22.6816 9.50139 22.9924 9.50139 23.3723V36.2464C9.50139 36.6332 9.18907 36.9371 8.80734 36.9371Z" fill="white"/>
<path d="M14.1862 36.9371C13.8045 36.9371 13.4922 36.6263 13.4922 36.2464V23.3723C13.4922 22.9924 13.8045 22.6816 14.1862 22.6816C14.568 22.6816 14.8803 22.9924 14.8803 23.3723V36.2464C14.8803 36.6332 14.568 36.9371 14.1862 36.9371Z" fill="white"/>
<path d="M19.5583 36.9371C19.1766 36.9371 18.8643 36.6263 18.8643 36.2464V23.3723C18.8643 22.9924 19.1766 22.6816 19.5583 22.6816C19.94 22.6816 20.2524 22.9924 20.2524 23.3723V36.2464C20.2524 36.6332 19.94 36.9371 19.5583 36.9371Z" fill="white"/>
<path d="M24.9301 36.9371C24.5484 36.9371 24.2361 36.6263 24.2361 36.2464V23.3723C24.2361 22.9924 24.5484 22.6816 24.9301 22.6816C25.3119 22.6816 25.6242 22.9924 25.6242 23.3723V36.2464C25.6242 36.6332 25.3188 36.9371 24.9301 36.9371Z" fill="white"/>
<path d="M30.3093 36.9371C29.9276 36.9371 29.6152 36.6263 29.6152 36.2464V23.3723C29.6152 22.9924 29.9276 22.6816 30.3093 22.6816C30.691 22.6816 31.0033 22.9924 31.0033 23.3723V36.2464C31.0033 36.6332 30.691 36.9371 30.3093 36.9371Z" fill="white"/>
<path d="M35.6811 36.9371C35.2994 36.9371 34.9871 36.6263 34.9871 36.2464V23.3723C34.9871 22.9924 35.2994 22.6816 35.6811 22.6816C36.0628 22.6816 36.3752 22.9924 36.3752 23.3723V36.2464C36.3752 36.6332 36.0698 36.9371 35.6811 36.9371Z" fill="white"/>
<path d="M41.06 36.9371C40.6783 36.9371 40.366 36.6263 40.366 36.2464V23.3723C40.366 22.9924 40.6783 22.6816 41.06 22.6816C41.4418 22.6816 41.7541 22.9924 41.7541 23.3723V36.2464C41.7541 36.6332 41.4418 36.9371 41.06 36.9371Z" fill="white"/>
<path d="M46.4321 36.9371C46.0504 36.9371 45.738 36.6263 45.738 36.2464V23.3723C45.738 22.9924 46.0504 22.6816 46.4321 22.6816C46.8138 22.6816 47.1262 22.9924 47.1262 23.3723V36.2464C47.1262 36.6332 46.8208 36.9371 46.4321 36.9371Z" fill="white"/>
<path d="M51.811 36.9371C51.4293 36.9371 51.1169 36.6263 51.1169 36.2464V23.3723C51.1169 22.9924 51.4293 22.6816 51.811 22.6816C52.1927 22.6816 52.5051 22.9924 52.5051 23.3723V36.2464C52.5051 36.6332 52.1927 36.9371 51.811 36.9371Z" fill="white"/>
<path d="M56.6764 23.2427H3.9421C3.56037 23.2427 3.24805 22.9319 3.24805 22.552C3.24805 22.1721 3.56037 21.8613 3.9421 21.8613H56.6764C57.0581 21.8613 57.3705 22.1721 57.3705 22.552C57.3705 22.9319 57.0581 23.2427 56.6764 23.2427Z" fill="white"/>
<path d="M1.38811 10.209C0.62465 10.209 0 9.5874 0 8.82766V1.38915C0 0.629415 0.62465 0.0078125 1.38811 0.0078125H8.86309C9.62655 0.0078125 10.2512 0.629415 10.2512 1.38915C10.2512 2.14889 9.62655 2.77049 8.86309 2.77049H2.77622V8.83457C2.77622 9.5943 2.15851 10.209 1.38811 10.209Z" fill="white"/>
<path d="M59.2306 10.2081C58.4672 10.2081 57.8425 9.58649 57.8425 8.82676V2.76268H51.7487C50.9852 2.76268 50.3606 2.14108 50.3606 1.38134C50.3606 0.621602 50.9852 0 51.7487 0H59.2306C59.9941 0 60.6187 0.621602 60.6187 1.38134V8.82676C60.6187 9.5934 59.9941 10.2081 59.2306 10.2081Z" fill="white"/>
<path d="M59.2306 45.6875H51.7487C50.9852 45.6875 50.3606 45.0659 50.3606 44.3062C50.3606 43.5464 50.9852 42.9248 51.7487 42.9248H57.8425V36.8677C57.8425 36.1079 58.4672 35.4863 59.2306 35.4863C59.9941 35.4863 60.6187 36.1079 60.6187 36.8677V44.3131C60.6187 45.0728 59.9941 45.6875 59.2306 45.6875Z" fill="white"/>
<path d="M8.87003 45.6875H1.38811C0.62465 45.6875 0 45.0659 0 44.3062V36.8677C0 36.1079 0.62465 35.4863 1.38811 35.4863C2.15157 35.4863 2.77622 36.1079 2.77622 36.8677V42.9317H8.87003C9.63349 42.9317 10.2581 43.5533 10.2581 44.3131C10.2581 45.0728 9.63349 45.6875 8.87003 45.6875Z" fill="white"/>
</svg>
