<svg width="35" height="42" viewBox="0 0 35 42" fill="none" xmlns="http://www.w3.org/2000/svg">
<path d="M6.45023 0.847819C6.00702 0.844614 5.56754 0.888693 5.14571 0.978273C3.57027 1.29285 2.06114 2.19305 1.0049 3.63051C0.958378 3.69397 0.929115 3.77163 0.920717 3.85394C0.91232 3.93624 0.925144 4.01956 0.957633 4.0936C0.990121 4.16763 1.04085 4.22915 1.10352 4.27053C1.1662 4.31192 1.23807 4.33136 1.31029 4.32646C3.04169 4.20691 3.95007 4.89376 4.79376 5.72878C5.63745 6.56384 6.39195 7.61398 7.67108 7.90339C8.2475 8.03384 8.88133 8.08366 9.49802 7.884C10.0694 7.69984 10.6162 7.28514 11.0296 6.58205C13.3716 8.32398 15.2846 10.6654 16.649 13.3719C16.8333 13.7374 17.0066 14.1103 17.1706 14.4885C16.6148 13.9897 15.992 13.5898 15.3306 13.3021C15.3278 13.0222 15.2955 12.7288 15.2286 12.4237C15.0827 11.7567 14.6834 11.2019 14.1952 10.7973C13.707 10.3926 13.1221 10.1307 12.5399 10.0919C10.4472 9.95247 8.35728 11.5304 7.17536 13.5047C7.17536 13.505 7.17536 13.5057 7.17536 13.506C6.19609 15.1053 5.65234 17.0894 5.80199 19.0859C5.80828 19.1685 5.83559 19.2472 5.88052 19.3122C5.92546 19.3772 5.98605 19.4257 6.0548 19.4517C6.12355 19.4777 6.19745 19.48 6.26734 19.4584C6.33723 19.4368 6.40005 19.3921 6.44802 19.33C7.68125 17.7319 8.83024 17.461 10.0205 17.3615C11.2109 17.2618 12.4667 17.4015 13.6153 16.5176C14.1348 16.1179 14.6429 15.6084 14.9746 14.9288C15.0873 14.6979 15.1765 14.4466 15.238 14.1777C16.3308 14.696 17.296 15.5566 17.9531 16.671C17.9674 16.6952 17.9838 16.7176 18.0022 16.738C19.0044 19.9879 19.2857 23.5619 18.6856 27.1473C17.7118 25.7787 16.4152 24.741 14.9784 24.1247C14.9811 23.749 14.9406 23.3533 14.85 22.9382C14.6707 22.1171 14.1769 21.4224 13.5679 20.9133C12.9588 20.4042 12.2274 20.0733 11.5065 20.0237C8.88201 19.8435 6.23557 21.8481 4.74682 24.3561C4.74682 24.3563 4.74682 24.3569 4.74682 24.3574C3.51058 26.393 2.82653 28.9188 3.01831 31.4564C3.02449 31.5393 3.05184 31.6183 3.09694 31.6836C3.14205 31.7488 3.20292 31.7974 3.27197 31.8233C3.34102 31.8492 3.41519 31.8513 3.48525 31.8292C3.55531 31.8072 3.61816 31.762 3.66596 31.6994C5.25733 29.621 6.76387 29.2595 8.29476 29.1328C9.82561 29.0062 11.4053 29.1835 12.8384 28.0737C13.4935 27.5664 14.1292 26.9219 14.5403 26.0718C14.698 25.7456 14.8194 25.388 14.8945 25.0026C16.3292 25.6625 17.6019 26.7801 18.4766 28.2378C18.4514 28.3531 18.4267 28.4687 18.3997 28.5839C18.0178 30.2161 17.4702 31.7459 16.7844 33.1578C16.7756 33.1735 16.7678 33.1899 16.7609 33.2068C15.1996 36.3999 12.9267 38.9827 10.2441 40.7565C10.201 40.7837 10.1631 40.8205 10.1326 40.8648C10.1021 40.909 10.0796 40.9597 10.0665 41.014C10.0533 41.0683 10.0497 41.125 10.0559 41.1809C10.0621 41.2368 10.0779 41.2908 10.1025 41.3396C10.1271 41.3884 10.1599 41.4311 10.1991 41.4652C10.2383 41.4993 10.283 41.5241 10.3306 41.5382C10.3782 41.5523 10.4278 41.5553 10.4765 41.5472C10.5252 41.5391 10.572 41.5199 10.6141 41.4909C13.4133 39.64 15.7856 36.9403 17.4133 33.6059C18.2887 32.1195 19.5768 30.9811 21.0306 30.3122C21.1057 30.698 21.2272 31.0556 21.385 31.382C21.7961 32.2321 22.4318 32.8759 23.0869 33.3832C24.5199 34.4928 26.0997 34.3157 27.6305 34.4423C29.1614 34.5689 30.668 34.9311 32.2593 37.0095C32.3072 37.0719 32.37 37.1169 32.44 37.1388C32.51 37.1607 32.5841 37.1585 32.653 37.1326C32.722 37.1067 32.7827 37.0581 32.8278 36.993C32.8728 36.9278 32.9002 36.8489 32.9064 36.7661C33.0981 34.2287 32.4146 31.7031 31.1785 29.6675C29.6899 27.1589 27.0426 25.1536 24.4176 25.3339C23.6968 25.3834 22.9648 25.7143 22.3557 26.2235C21.7466 26.7325 21.2534 27.4267 21.0741 28.2479C20.9835 28.6629 20.944 29.0586 20.9458 29.4342C20.0499 29.8185 19.2086 30.3668 18.4658 31.0565C18.7155 30.3282 18.9333 29.5772 19.1143 28.8037C19.6246 26.6228 19.8124 24.4294 19.7137 22.2895C19.7318 22.2573 19.7461 22.2225 19.756 22.1859C20.2144 20.656 21.1031 19.3158 22.2328 18.3369C22.3768 18.6433 22.5531 18.9152 22.7531 19.1519C23.2958 19.7944 23.994 20.191 24.6789 20.4608C26.1831 21.0535 27.5468 20.464 28.9198 20.1642C30.2927 19.8621 31.6824 19.7715 33.5061 21.1627C33.5664 21.2089 33.6373 21.2337 33.7098 21.2341C33.7824 21.2345 33.8535 21.2104 33.9142 21.1649C33.9749 21.1194 34.0227 21.0545 34.0514 20.9782C34.0802 20.9019 34.0888 20.8176 34.0761 20.7358C33.7216 18.4427 32.5943 16.3993 31.08 14.9387L31.0772 14.9374C29.6999 13.58 27.8064 12.6492 25.9789 12.6374H25.9788C25.3695 12.6342 24.7676 12.7316 24.1945 12.9504C23.5621 13.1918 22.9807 13.6849 22.5447 14.3026C22.1086 14.9202 21.8123 15.6714 21.8233 16.454C21.8289 16.8367 21.8735 17.19 21.9496 17.516C20.9724 18.3183 20.1495 19.364 19.5716 20.5734C19.2484 17.8667 18.465 15.2781 17.2907 12.9486C17.121 12.6122 16.9422 12.2816 16.7564 11.9562C16.7564 11.9552 16.7564 11.9541 16.7564 11.953C16.5428 10.7033 16.6813 9.3884 17.1033 8.20352C17.2993 8.33317 17.5034 8.43129 17.7107 8.49903C18.3386 8.70422 18.9837 8.65672 19.571 8.52627C20.8731 8.23662 21.6395 7.16768 22.498 6.31785C23.3565 5.46808 24.2829 4.76912 26.052 4.89879C26.1243 4.90399 26.1964 4.88476 26.2593 4.84348C26.3222 4.8022 26.3731 4.7407 26.4057 4.66659C26.4384 4.59248 26.4513 4.50902 26.4429 4.42657C26.4345 4.34411 26.4052 4.26629 26.3586 4.20275C25.2776 2.73169 23.7359 1.80688 22.1282 1.47977C22.1282 1.47969 22.1282 1.47923 22.1282 1.47923C21.6379 1.37331 21.124 1.32777 20.6083 1.34604C19.0567 1.4002 17.4878 2.02816 16.4882 3.31662C16.1163 3.79608 15.8766 4.42831 15.7865 5.08246C15.6963 5.73664 15.7549 6.4239 16.0527 6.99239C16.1864 7.24779 16.3363 7.46944 16.4979 7.66036C16.1374 8.58703 15.9356 9.59282 15.9182 10.6076C14.6587 8.74186 13.1192 7.11114 11.3467 5.80921C11.4401 5.39944 11.4442 4.96125 11.3845 4.53724C11.2938 3.89512 11.057 3.27426 10.6904 2.80267C9.70587 1.53616 8.16527 0.914371 6.64302 0.855302C6.57954 0.852097 6.51619 0.852098 6.45288 0.852098L6.45023 0.847819ZM6.26875 1.70261C6.3809 1.70108 6.49373 1.70283 6.60656 1.70581C7.96026 1.76895 9.332 2.32892 10.1347 3.36149C10.3878 3.68696 10.5819 4.17611 10.6512 4.66725C10.6835 4.89539 10.6874 5.12038 10.6664 5.33026C9.30089 4.42139 7.81011 3.70097 6.21214 3.21062C6.17641 3.19899 6.13936 3.1936 6.10223 3.1946C6.01278 3.19716 5.92717 3.23675 5.86123 3.30603C5.7953 3.37531 5.7535 3.46958 5.74357 3.57144C5.73365 3.67329 5.75626 3.77582 5.80724 3.86005C5.85821 3.94428 5.93409 4.00451 6.02084 4.0296C7.59608 4.51304 9.0623 5.22803 10.4005 6.13286C10.0835 6.66628 9.71231 6.93165 9.2971 7.06565C8.84191 7.21244 8.32237 7.1836 7.81442 7.06886C6.82234 6.8442 6.17916 5.97629 5.27818 5.08453C4.52912 4.3431 3.55689 3.66668 2.15164 3.52454C3.02659 2.63602 4.12376 2.03951 5.27647 1.81003C5.27787 1.80961 5.27926 1.80919 5.28066 1.80875C5.59971 1.74097 5.93204 1.70473 6.26866 1.70009L6.26875 1.70261ZM20.8101 2.19415C21.2127 2.19094 21.6116 2.22925 21.9922 2.31018C21.9936 2.31061 21.995 2.31103 21.9964 2.31145C23.1807 2.55205 24.3087 3.17229 25.2082 4.09303C23.769 4.22893 22.7764 4.91725 22.0123 5.6736C21.0961 6.58049 20.4422 7.46554 19.4284 7.6912C18.9099 7.80642 18.3789 7.83365 17.9119 7.67997C17.7411 7.62436 17.5774 7.54649 17.4214 7.43821C17.7431 6.77714 18.1583 6.17633 18.6545 5.67697L18.6573 5.6757L18.6601 5.67411C19.7637 4.53616 21.2548 3.89734 22.7403 3.91319C22.7894 3.91452 22.8382 3.90469 22.8839 3.88423C22.9296 3.86378 22.9713 3.83311 23.0065 3.79403C23.0418 3.75495 23.0699 3.70822 23.0893 3.65658C23.1087 3.60494 23.1189 3.54942 23.1194 3.49321C23.1198 3.43701 23.1105 3.38124 23.092 3.32919C23.0735 3.27713 23.0461 3.22981 23.0115 3.18998C22.9769 3.15014 22.9357 3.1186 22.8904 3.09716C22.845 3.07571 22.7964 3.06482 22.7473 3.0651H22.7471C21.0745 3.04571 19.4149 3.75743 18.1686 5.04076C18.1686 5.04104 18.1686 5.04181 18.1686 5.04204C17.6511 5.56295 17.2128 6.17666 16.8634 6.84949C16.8032 6.75879 16.7443 6.66065 16.6876 6.55242C16.5074 6.20865 16.4488 5.71396 16.5182 5.21108C16.5875 4.70814 16.7839 4.20876 17.0417 3.87648C17.8584 2.82382 19.2578 2.25689 20.6404 2.19826C20.698 2.19505 20.7556 2.19505 20.8132 2.19505L20.8101 2.19415ZM12.3341 10.9322C12.3884 10.9329 12.4426 10.9354 12.4966 10.9402H12.4968C12.9082 10.9675 13.3809 11.1719 13.7608 11.4866C14.1408 11.8016 14.4204 12.2197 14.5106 12.6315C14.5408 12.7705 14.5623 12.9029 14.576 13.03C13.8748 12.8237 13.1449 12.7392 12.4165 12.7929H12.4163C10.6631 12.8992 8.97378 13.7785 7.74531 15.2054C7.70972 15.2447 7.68136 15.2917 7.66189 15.3437C7.64243 15.3957 7.63225 15.4517 7.63196 15.5082C7.63166 15.5648 7.64126 15.6209 7.66019 15.6732C7.67911 15.7255 7.70699 15.7729 7.74216 15.8126C7.77733 15.8524 7.8191 15.8837 7.86499 15.9046C7.91088 15.9256 7.95997 15.9358 8.00937 15.9347C8.05877 15.9336 8.10747 15.9212 8.15261 15.8982C8.19775 15.8752 8.23843 15.8421 8.27222 15.8008C9.36864 14.5273 10.8945 13.7337 12.4568 13.6392H12.4596H12.4624C13.1625 13.587 13.868 13.6817 14.5421 13.9017C14.4963 14.1216 14.4228 14.3247 14.3291 14.5168C14.0793 15.0288 13.6647 15.4606 13.2033 15.8156C12.2978 16.5124 11.2329 16.4115 9.96684 16.5174C8.90154 16.6065 7.71297 16.9435 6.54964 18.0841C6.61368 16.6225 7.05085 15.1873 7.78418 13.9909C7.78512 13.9899 7.78605 13.9888 7.78698 13.9877C8.80556 12.2856 10.6502 10.9135 12.3356 10.9342L12.3341 10.9322ZM25.9778 13.497C27.5964 13.5242 29.3488 14.3525 30.5952 15.5813C30.5961 15.5824 30.5971 15.5835 30.598 15.5845C31.7848 16.7283 32.6797 18.2734 33.1261 19.9851C31.4779 19.0305 30.0269 19.0559 28.7775 19.3309C27.3297 19.6498 26.143 20.1421 24.917 19.6591C24.2984 19.4154 23.7092 19.0669 23.2831 18.5623C23.1091 18.3564 22.9599 18.1255 22.8426 17.8593C23.5632 17.3537 24.3575 16.9867 25.1859 16.7963L25.1887 16.7955L25.1915 16.795C26.9912 16.3554 28.9328 16.7256 30.5167 17.7959C30.5586 17.8267 30.6055 17.8475 30.6546 17.8571C30.7037 17.8667 30.7539 17.8648 30.8024 17.8516C30.8508 17.8384 30.8964 17.8142 30.9365 17.7803C30.9766 17.7464 31.0103 17.7037 31.0356 17.6545C31.0609 17.6054 31.0773 17.551 31.0838 17.4944C31.0903 17.4379 31.0867 17.3804 31.0734 17.3255C31.06 17.2705 31.0372 17.2192 31.0061 17.1746C30.975 17.13 30.9365 17.0931 30.8926 17.066C29.5827 16.1811 28.0623 15.7317 26.5452 15.7672H26.5451C26.0408 15.7784 25.5367 15.8443 25.0411 15.965C24.1829 16.1624 23.3612 16.5265 22.6096 17.0266C22.5825 16.8448 22.5661 16.6501 22.5632 16.4402C22.5562 15.9193 22.768 15.334 23.1201 14.8353C23.4723 14.3365 23.9591 13.9338 24.4284 13.7548C24.9145 13.5695 25.4388 13.4885 25.9784 13.4971L25.9778 13.497ZM11.2494 20.862C11.3203 20.8631 11.3911 20.8652 11.4616 20.87C12.0104 20.909 12.63 21.1792 13.1311 21.5981C13.6323 22.017 14.0073 22.5758 14.1313 23.1437C14.1854 23.3917 14.2183 23.6253 14.2332 23.8474C13.3031 23.5515 12.3305 23.4269 11.3607 23.4978C9.14781 23.6305 7.01393 24.7468 5.46554 26.5588C5.43123 26.5985 5.40412 26.6456 5.38575 26.6974C5.36739 26.7492 5.35814 26.8046 5.35852 26.8604C5.35891 26.9163 5.36893 26.9716 5.38801 27.023C5.4071 27.0744 5.43485 27.121 5.46971 27.1601C5.50456 27.1992 5.54582 27.23 5.5911 27.2508C5.63638 27.2715 5.6848 27.2819 5.73358 27.2811C5.78235 27.2804 5.83052 27.2686 5.87532 27.2465C5.92011 27.2244 5.96066 27.1924 5.99461 27.1522C7.41188 25.4937 9.38166 24.4642 11.4033 24.3441H11.4061H11.4089C12.3476 24.2752 13.2938 24.41 14.1944 24.7206C14.137 25.0609 14.0321 25.371 13.8921 25.6605C13.5621 26.343 13.02 26.9079 12.4231 27.3701C11.234 28.2909 9.84785 28.1535 8.24073 28.2865C6.83574 28.4028 5.28293 28.8527 3.76373 30.4473C3.79534 28.4441 4.36442 26.4694 5.35634 24.8374C5.35727 24.8363 5.3582 24.8353 5.35913 24.8342C6.67575 22.6154 9.05163 20.8301 11.2513 20.8617L11.2494 20.862ZM24.6724 26.1715C26.872 26.1404 29.2479 27.9251 30.5646 30.144C30.5655 30.145 30.5664 30.1461 30.5673 30.1472C31.5592 31.779 32.1282 33.754 32.1598 35.7571C30.6406 34.1625 29.0873 33.7125 27.6824 33.5963C26.0753 33.4631 24.6897 33.5995 23.5006 32.6805C22.9037 32.2183 22.3615 31.6528 22.0315 30.9703C21.8915 30.6807 21.7868 30.3706 21.7293 30.0304C22.6299 29.7197 23.5761 29.5851 24.5148 29.6539H24.5176H24.5204C26.5421 29.7738 28.5124 30.8035 29.9297 32.462C29.9634 32.5034 30.0039 32.5366 30.0489 32.5597C30.094 32.5828 30.1426 32.5953 30.1919 32.5966C30.2413 32.5979 30.2903 32.5878 30.3362 32.5671C30.3821 32.5463 30.4239 32.5153 30.4592 32.4758C30.4945 32.4362 30.5225 32.389 30.5416 32.3369C30.5607 32.2848 30.5705 32.2289 30.5705 32.1723C30.5704 32.1158 30.5605 32.0599 30.5413 32.0078C30.5222 31.9557 30.4941 31.9086 30.4587 31.8691C28.9105 30.0573 26.7763 28.9405 24.5636 28.8076C23.594 28.7368 22.6215 28.8613 21.6915 29.1572C21.706 28.9353 21.7392 28.7015 21.7933 28.4535C21.9172 27.8856 22.2923 27.3268 22.7935 26.9079C23.2946 26.4891 23.9141 26.2176 24.4629 26.1799C24.5334 26.1767 24.6042 26.1719 24.6752 26.1719L24.6724 26.1715Z" fill="#91958E"/>
</svg>
