<svg width="98" height="34" viewBox="0 0 98 34" fill="none" xmlns="http://www.w3.org/2000/svg">
<g clip-path="url(#clip0)">
<path d="M25.5755 8.79883C25.3867 8.92281 25.2128 9.06578 25.0593 9.22305C24.4803 9.80191 24.0949 10.6102 24.0534 11.5181C24.0516 11.5581 24.0611 11.5993 24.0808 11.6366C24.1006 11.6738 24.1295 11.7055 24.1642 11.7277C24.1989 11.7499 24.2378 11.7616 24.2761 11.7614C24.3144 11.7612 24.3504 11.7491 24.3796 11.7266C25.0799 11.1863 25.6592 11.2205 26.2529 11.3357C26.8467 11.451 27.4634 11.6827 28.0876 11.4436C28.3688 11.3358 28.6517 11.1777 28.8567 10.9187C29.0469 10.679 29.1615 10.3486 29.138 9.93377C30.6234 10.0096 32.0963 10.4608 33.4399 11.2219C33.6214 11.3247 33.8002 11.4337 33.9766 11.5476C33.6 11.4934 33.2229 11.5001 32.8612 11.5652C32.7809 11.4474 32.6842 11.3322 32.5696 11.2218C32.3192 10.9804 31.9931 10.8582 31.6717 10.8248C31.3504 10.7914 31.0283 10.8458 30.7705 10.994C29.8438 11.5268 29.4038 12.7866 29.4608 13.9575C29.4608 13.9576 29.4611 13.9579 29.4611 13.958C29.498 14.9127 29.8283 15.9073 30.4562 16.7111C30.4822 16.7443 30.516 16.7699 30.5534 16.7848C30.5909 16.7996 30.6303 16.803 30.6667 16.7946C30.7032 16.7862 30.7352 16.7663 30.7587 16.7373C30.7823 16.7084 30.7963 16.6717 30.7991 16.6318C30.8702 15.6058 31.2808 15.166 31.7573 14.7872C32.2338 14.4083 32.8057 14.1124 33.0429 13.413C33.1501 13.0967 33.2215 12.737 33.17 12.3553C33.1526 12.2255 33.1194 12.0938 33.0694 11.9625C33.6792 11.873 34.3318 11.9648 34.9253 12.2512C34.9383 12.2574 34.9516 12.2623 34.9651 12.2657C36.3087 13.3595 37.4383 14.7946 38.1974 16.4837C37.3976 16.1791 36.5545 16.106 35.7711 16.2512C35.6661 16.0912 35.5371 15.935 35.3813 15.7847C35.0732 15.4874 34.6674 15.3327 34.2653 15.2892C33.8632 15.2457 33.4595 15.3123 33.1399 15.4952C31.9762 16.1611 31.4208 17.759 31.4985 19.2429C31.4986 19.243 31.4988 19.2432 31.4989 19.2434C31.5502 20.4557 31.9742 21.7196 32.7728 22.7407C32.7988 22.7741 32.8328 22.7998 32.8703 22.8147C32.9079 22.8296 32.9474 22.833 32.984 22.8244C33.0206 22.8159 33.0527 22.7958 33.0761 22.7666C33.0996 22.7375 33.1135 22.7006 33.116 22.6605C33.2033 21.3297 33.7398 20.7504 34.3531 20.2638C34.9663 19.7772 35.6862 19.4055 35.9801 18.5299C36.1145 18.1297 36.2018 17.6768 36.1358 17.2003C36.1105 17.0174 36.0608 16.8315 35.9837 16.647C36.7786 16.5209 37.6341 16.6346 38.417 17.0049C38.4389 17.0609 38.4611 17.1169 38.4822 17.1733C38.7817 17.973 38.982 18.7762 39.0903 19.5685C39.091 19.5776 39.0923 19.5868 39.0942 19.5959C39.3348 21.3906 39.1013 23.128 38.4653 24.6383C38.4547 24.6621 38.4491 24.6884 38.4487 24.7157C38.4482 24.7431 38.453 24.771 38.4628 24.7977C38.4725 24.8244 38.4871 24.8495 38.5055 24.8714C38.5239 24.8934 38.5459 24.9117 38.5701 24.9255C38.5943 24.9392 38.6203 24.948 38.6466 24.9514C38.6728 24.9548 38.6988 24.9526 38.7229 24.9451C38.7471 24.9376 38.769 24.9249 38.7874 24.9077C38.8057 24.8905 38.8201 24.8691 38.8298 24.8449C39.4934 23.2689 39.736 21.4539 39.4836 19.5805C39.4346 18.703 39.6589 17.8563 40.0862 17.1617C40.2271 17.304 40.3797 17.4211 40.5389 17.5148C40.9535 17.7588 41.405 17.8519 41.8262 17.8815C42.7474 17.9465 43.3671 17.4247 44.052 17.0454C44.7368 16.6661 45.478 16.3935 46.7402 16.8242C46.7781 16.8372 46.8175 16.8384 46.8533 16.8279C46.8892 16.8174 46.92 16.7956 46.9419 16.7651C46.9638 16.7346 46.9759 16.6968 46.9765 16.6565C46.9772 16.6161 46.9665 16.575 46.9457 16.5381C46.3098 15.4086 45.306 14.5316 44.2065 14.0186C42.8662 13.3764 41.177 13.2753 40.115 14.0941C39.8234 14.3189 39.6065 14.6662 39.4922 15.0542C39.3779 15.4422 39.365 15.8759 39.5212 16.2746C39.6001 16.4761 39.6951 16.655 39.8021 16.8136C39.5309 17.2298 39.3292 17.7001 39.2092 18.2025C39.1092 17.8232 38.9893 17.4434 38.8473 17.0644C38.4472 15.9959 37.9068 15.0132 37.26 14.1343C37.2586 14.1155 37.2548 14.0967 37.2487 14.0784C37.0106 13.3004 37.0085 12.4811 37.2108 11.7468C37.3584 11.836 37.51 11.9013 37.6618 11.9451C38.0735 12.0639 38.4816 12.0344 38.8483 11.9551C39.6536 11.7809 40.0651 11.1454 40.5625 10.63C41.0592 10.1137 41.6228 9.6823 42.7892 9.75612C42.8279 9.75861 42.8649 9.74908 42.8958 9.72872C42.9267 9.70837 42.95 9.67808 42.9629 9.64163C42.9758 9.60517 42.9777 9.56416 42.9683 9.52368C42.959 9.48321 42.9388 9.44506 42.9102 9.41397C42.1117 8.54246 41.0561 7.99535 40.0013 7.8046L39.9997 7.80486C39.032 7.61914 37.9661 7.7602 37.188 8.27204L37.1879 8.27208C36.9287 8.44305 36.701 8.65456 36.5199 8.90935C36.32 9.19049 36.2129 9.5639 36.2026 9.94894C36.1923 10.334 36.279 10.7362 36.5049 11.0647C36.6155 11.2253 36.7342 11.3624 36.8587 11.479C36.6711 12.0954 36.6178 12.7713 36.7147 13.4472C35.8125 12.3916 34.7487 11.5161 33.5923 10.8611C33.4253 10.7665 33.256 10.677 33.0852 10.5916C33.0849 10.5912 33.0846 10.5907 33.0843 10.5903C32.6405 10.1211 32.3275 9.52466 32.1715 8.90319C32.2913 8.90269 32.4055 8.88656 32.5126 8.85663C32.8368 8.76601 33.0969 8.56345 33.309 8.34208C33.7792 7.85109 33.802 7.18132 33.9257 6.57839C34.0495 5.97549 34.2447 5.41728 35.0314 4.97191C35.0636 4.95366 35.0887 4.92513 35.1037 4.88985C35.1187 4.85458 35.1229 4.81412 35.1158 4.77348C35.1086 4.73284 35.0905 4.69381 35.0637 4.66124C35.0368 4.62867 35.0024 4.60399 34.9646 4.59025C34.0905 4.27254 33.1754 4.31664 32.4013 4.63271C32.4013 4.63268 32.4012 4.63249 32.4012 4.63249C32.1633 4.72626 31.9326 4.85228 31.7191 5.00587C31.0766 5.46764 30.5889 6.17746 30.5293 7.00618C30.5071 7.31456 30.5843 7.65025 30.731 7.95296C30.8776 8.2557 31.0967 8.53037 31.3837 8.68706C31.5126 8.75748 31.6388 8.80901 31.7613 8.84422C31.8704 9.33889 32.0691 9.8222 32.3486 10.2571C31.2872 9.8227 30.1735 9.56703 29.054 9.51658C28.9778 9.31651 28.8556 9.12966 28.7104 8.96686C28.4905 8.72038 28.2146 8.52426 27.9258 8.42808C27.1504 8.16979 26.3215 8.342 25.6594 8.74747C25.6315 8.76407 25.6047 8.78199 25.5778 8.79989L25.5755 8.79883ZM25.7402 9.21239C25.7873 9.18003 25.8356 9.14886 25.8843 9.11821C26.4761 8.76213 27.216 8.61148 27.8482 8.82206C28.0475 8.88841 28.2681 9.04081 28.4363 9.22934C28.5145 9.31689 28.5797 9.41112 28.6302 9.506C27.7943 9.50703 26.9586 9.62334 26.1425 9.86746C26.124 9.87264 26.1068 9.88083 26.0913 9.89176C26.0541 9.91815 26.029 9.95913 26.0207 10.0071C26.0123 10.0551 26.0212 10.1069 26.0458 10.1529C26.0704 10.1989 26.109 10.2359 26.1544 10.2572C26.1998 10.2785 26.249 10.2825 26.2929 10.2686C27.0974 10.028 27.9212 9.91634 28.7443 9.92133C28.7607 10.237 28.6783 10.4545 28.5402 10.6287C28.3887 10.8196 28.1602 10.9543 27.9124 11.0494C27.4283 11.2347 26.9103 11.0488 26.2762 10.9257C25.749 10.8234 25.1456 10.8117 24.5096 11.1489C24.6294 10.5249 24.926 9.96179 25.3498 9.53854C25.3503 9.53797 25.3508 9.5374 25.3513 9.53682C25.4674 9.41786 25.598 9.30852 25.7394 9.21135L25.7402 9.21239ZM32.0444 5.30821C32.2142 5.19301 32.3941 5.09643 32.5784 5.02307C32.5791 5.02286 32.5798 5.02264 32.5805 5.02242C33.1507 4.78946 33.8043 4.73328 34.4459 4.86909C33.8741 5.3337 33.6478 5.90612 33.5377 6.44273C33.4056 7.08616 33.3785 7.64617 33.0125 8.02851C32.8252 8.22397 32.6078 8.3857 32.3663 8.45265C32.2782 8.47738 32.1868 8.49069 32.0901 8.4889C32.0396 8.11777 32.0458 7.74575 32.115 7.39379L32.1158 7.39246L32.1166 7.391C32.2628 6.59664 32.7144 5.90423 33.3487 5.49082C33.3699 5.47751 33.3878 5.45955 33.4014 5.43795C33.415 5.41636 33.424 5.39157 33.4279 5.36503C33.4318 5.3385 33.4305 5.31074 33.4242 5.28338C33.4178 5.25601 33.4064 5.2296 33.3907 5.20565C33.375 5.1817 33.3553 5.16069 33.3327 5.14387C33.3102 5.12705 33.2852 5.11473 33.2593 5.10764C33.2333 5.10055 33.207 5.09883 33.1817 5.10257C33.1564 5.10631 33.1327 5.11545 33.1119 5.12944L33.1119 5.12949C32.3972 5.59432 31.8948 6.3653 31.7291 7.26162C31.7292 7.26173 31.7294 7.26206 31.7295 7.26216C31.6573 7.62924 31.645 8.0133 31.687 8.39722C31.6359 8.37583 31.5832 8.35089 31.5285 8.32106C31.355 8.22633 31.1903 8.03327 31.0775 7.80055C30.9648 7.5678 30.9069 7.30062 30.9222 7.0869C30.9709 6.40984 31.404 5.77382 31.9736 5.35795C31.9971 5.3403 32.0216 5.32401 32.046 5.30774L32.0444 5.30821ZM30.9208 11.4083C30.944 11.3933 30.9677 11.379 30.992 11.3658L30.992 11.3657C31.1741 11.2609 31.4324 11.2138 31.6824 11.2398C31.9325 11.2658 32.1693 11.3639 32.3239 11.513C32.376 11.5633 32.4226 11.6133 32.4643 11.6633C32.1087 11.7742 31.7753 11.9448 31.4817 12.1736L31.4816 12.1736C30.7683 12.7145 30.3006 13.5649 30.1832 14.517C30.1792 14.5437 30.1804 14.5717 30.1869 14.5992C30.1933 14.6268 30.2048 14.6533 30.2207 14.6774C30.2366 14.7015 30.2565 14.7225 30.2793 14.7393C30.3021 14.7561 30.3273 14.7683 30.3535 14.7752C30.3796 14.7821 30.4062 14.7836 30.4316 14.7795C30.4569 14.7754 30.4806 14.7658 30.5013 14.7514C30.5219 14.737 30.539 14.7179 30.5517 14.6954C30.5643 14.6729 30.5722 14.6474 30.5749 14.6203C30.6797 13.7705 31.1024 13.0027 31.738 12.5208L31.7392 12.52L31.7404 12.5192C32.0225 12.2991 32.3484 12.1397 32.6963 12.0423C32.7391 12.1485 32.7653 12.2553 32.7799 12.3632C32.8187 12.6508 32.765 12.9511 32.6697 13.232C32.4828 13.7834 32.0027 14.0418 31.4959 14.4447C31.0694 14.7837 30.6608 15.2627 30.49 16.0751C30.104 15.4376 29.8836 14.7057 29.8563 13.9913C29.8564 13.9906 29.8565 13.9899 29.8566 13.9892C29.8073 12.9798 30.2016 11.8767 30.922 11.4087L30.9208 11.4083ZM37.4305 8.63663C38.1244 8.19042 39.1016 8.04584 39.9774 8.21407C39.9781 8.21427 39.9788 8.21446 39.9795 8.21464C40.806 8.36371 41.6221 8.76536 42.2953 9.36454C41.3266 9.42613 40.7186 9.84724 40.2666 10.3171C39.7429 10.8617 39.3789 11.406 38.7226 11.548C38.3914 11.6197 38.0431 11.6386 37.7198 11.5453C37.5879 11.5072 37.4593 11.4516 37.3343 11.372C37.4969 10.9539 37.73 10.5738 38.0274 10.2588L38.0283 10.2576L38.0294 10.2566C38.6682 9.56137 39.596 9.16914 40.5701 9.17476C40.5966 9.17597 40.6223 9.17153 40.6458 9.16171C40.6694 9.15189 40.6902 9.13688 40.707 9.11759C40.7238 9.09829 40.7363 9.07511 40.7437 9.04942C40.7511 9.02374 40.7533 8.99609 40.7501 8.96811C40.747 8.94014 40.7385 8.91243 40.7253 8.88663C40.7121 8.86083 40.6943 8.83748 40.6731 8.81796C40.6519 8.79845 40.6277 8.78317 40.602 8.77306C40.5762 8.76295 40.5494 8.75822 40.5232 8.75912C39.7176 8.75458 38.946 8.99416 38.3128 9.43823L38.3127 9.43827C38.1021 9.58562 37.907 9.75613 37.731 9.94743C37.4229 10.2738 37.1775 10.6605 37.0002 11.085C36.9373 11.0156 36.8753 10.9377 36.8147 10.8496C36.6645 10.6308 36.5889 10.3229 36.5972 10.0119C36.6055 9.701 36.6981 9.39266 36.8464 9.18406C37.0001 8.96806 37.1996 8.78546 37.4307 8.6365L37.4305 8.63663ZM33.2678 15.9232C33.2982 15.9036 33.3288 15.8845 33.3601 15.8665C33.6038 15.7278 33.9428 15.6671 34.2737 15.7029C34.6046 15.7387 34.9216 15.8694 35.1347 16.075C35.2277 16.1648 35.3077 16.2546 35.3768 16.3444C34.8988 16.4821 34.4512 16.7044 34.0601 17.0087C33.1594 17.6907 32.5702 18.7673 32.4259 19.9731C32.4226 19.9996 32.4244 20.0272 32.4313 20.0544C32.4381 20.0815 32.4499 20.1076 32.4658 20.1312C32.4818 20.1547 32.5016 20.1753 32.5243 20.1917C32.5469 20.2081 32.5718 20.22 32.5977 20.2267C32.6235 20.2334 32.6497 20.2348 32.6748 20.2308C32.6998 20.2268 32.7233 20.2175 32.7437 20.2034C32.7642 20.1893 32.7813 20.1707 32.7941 20.1486C32.8068 20.1266 32.8149 20.1015 32.818 20.0749C32.95 18.9712 33.4942 17.9779 34.3174 17.3553L34.3186 17.3545L34.3198 17.3537C34.6983 17.059 35.1376 16.8485 35.6072 16.7255C35.679 16.8859 35.7222 17.047 35.7447 17.2093C35.7977 17.5918 35.7276 17.9845 35.6051 18.3492C35.3613 19.0757 34.7347 19.4095 34.0909 19.9204C33.5281 20.367 32.9969 20.9968 32.8036 22.1023C32.2507 21.2444 31.9338 20.2466 31.893 19.2745C31.8931 19.2738 31.8932 19.273 31.8933 19.2723C31.8243 17.9597 32.327 16.5312 33.2685 15.9225L33.2678 15.9232ZM40.4598 14.377C41.3836 13.7418 42.8955 13.8261 44.0809 14.3941C44.0816 14.3943 44.0823 14.3945 44.083 14.3947C44.9648 14.8057 45.7643 15.4817 46.344 16.3217C45.2491 16.0755 44.4633 16.3241 43.8348 16.6722C43.1158 17.0703 42.5668 17.5199 41.8029 17.4668C41.4192 17.4398 41.0294 17.3534 40.6966 17.1575C40.5554 17.0744 40.4233 16.9726 40.3028 16.8447C40.5968 16.4583 40.96 16.1337 41.3774 15.8974L41.3786 15.8966L41.3797 15.8958C42.2708 15.3748 43.3973 15.2539 44.467 15.556C44.4929 15.564 44.5195 15.5666 44.5451 15.5636C44.5708 15.5607 44.5949 15.5523 44.6162 15.5388C44.6375 15.5254 44.6555 15.5073 44.669 15.4855C44.6826 15.4638 44.6916 15.4388 44.6954 15.412C44.6992 15.3853 44.6977 15.3574 44.6911 15.3299C44.6844 15.3024 44.6728 15.2759 44.6568 15.252C44.6408 15.228 44.6208 15.2071 44.5979 15.1905C44.5751 15.1739 44.5498 15.1618 44.5237 15.1551C43.3551 14.8251 42.1345 14.9554 41.1588 15.5249C40.7277 15.7691 40.3506 16.0969 40.0399 16.4853C39.9834 16.3872 39.9313 16.2787 39.8842 16.1583C39.7762 15.8826 39.7772 15.5397 39.8713 15.2205C39.9654 14.9012 40.1513 14.611 40.3734 14.4398C40.4023 14.4185 40.431 14.3964 40.4611 14.3764L40.4598 14.377Z" fill="#B1C3A8"/>
</g>
<g clip-path="url(#clip1)">
<path d="M3.39826 8.71679C3.20944 8.84078 3.03557 8.98375 2.88204 9.14101C2.303 9.71988 1.91763 10.5282 1.87614 11.4361C1.87435 11.4761 1.8839 11.5173 1.9036 11.5545C1.92331 11.5918 1.9523 11.6235 1.987 11.6457C2.0217 11.6678 2.0606 11.6796 2.09887 11.6794C2.13714 11.6792 2.17311 11.6671 2.20235 11.6446C2.90264 11.1043 3.48193 11.1385 4.07568 11.2537C4.66944 11.369 5.28619 11.6006 5.91033 11.3615C6.19159 11.2538 6.47441 11.0956 6.67943 10.8366C6.86964 10.597 6.98425 10.2666 6.96077 9.85174C8.44614 9.92758 9.9191 10.3788 11.2626 11.1399C11.4441 11.2427 11.623 11.3517 11.7994 11.4656C11.4228 11.4113 11.0457 11.418 10.6839 11.4832C10.6036 11.3654 10.507 11.2502 10.3924 11.1398C10.142 10.8984 9.81582 10.7762 9.49447 10.7428C9.17311 10.7094 8.85107 10.7638 8.59324 10.912C7.66658 11.4448 7.22654 12.7045 7.28352 13.8755C7.28359 13.8756 7.28381 13.8759 7.28388 13.876C7.32078 14.8307 7.65109 15.8253 8.27891 16.629C8.30493 16.6623 8.33874 16.6879 8.37618 16.7027C8.41361 16.7176 8.45301 16.721 8.4895 16.7126C8.52599 16.7041 8.55798 16.6842 8.5815 16.6553C8.60502 16.6264 8.61903 16.5897 8.62182 16.5498C8.69293 15.5238 9.10351 15.084 9.58003 14.7052C10.0565 14.3263 10.6285 14.0304 10.8656 13.3309C10.9729 13.0147 11.0443 12.655 10.9928 12.2732C10.9753 12.1435 10.9421 12.0118 10.8922 11.8804C11.502 11.791 12.1545 11.8827 12.7481 12.1692C12.761 12.1754 12.7743 12.1802 12.7878 12.1837C14.1315 13.2775 15.261 14.7125 16.0201 16.4016C15.2204 16.0971 14.3773 16.024 13.5939 16.1692C13.4889 16.0092 13.3598 15.853 13.2041 15.7027C12.8959 15.4054 12.4902 15.2506 12.0881 15.2072C11.6859 15.1637 11.2823 15.2303 10.9626 15.4132C9.79893 16.079 9.24353 17.677 9.32129 19.1609C9.32136 19.161 9.32152 19.1612 9.32165 19.1614C9.37294 20.3737 9.7969 21.6375 10.5955 22.6587C10.6216 22.6921 10.6555 22.7178 10.6931 22.7327C10.7307 22.7476 10.7702 22.751 10.8068 22.7424C10.8434 22.7339 10.8754 22.7137 10.8989 22.6846C10.9224 22.6554 10.9362 22.6185 10.9388 22.5784C11.026 21.2476 11.5626 20.6684 12.1758 20.1817C12.7891 19.6951 13.509 19.3235 13.8029 18.4479C13.9372 18.0477 14.0245 17.5948 13.9585 17.1182C13.9332 16.9354 13.8836 16.7495 13.8065 16.5649C14.6013 16.4389 15.4568 16.5525 16.2398 16.9229C16.2617 16.9788 16.2838 17.0348 16.305 17.0913C16.6044 17.891 16.8047 18.6942 16.913 19.4864C16.9138 19.4956 16.9151 19.5047 16.9169 19.5139C17.1576 21.3086 16.924 23.0459 16.288 24.5563C16.2775 24.58 16.2718 24.6063 16.2714 24.6337C16.271 24.6611 16.2758 24.6889 16.2855 24.7157C16.2953 24.7424 16.3098 24.7675 16.3282 24.7894C16.3467 24.8113 16.3686 24.8297 16.3928 24.8434C16.4171 24.8572 16.4431 24.866 16.4693 24.8694C16.4956 24.8727 16.5215 24.8706 16.5457 24.8631C16.5699 24.8556 16.5918 24.8429 16.6101 24.8257C16.6285 24.8084 16.6429 24.7871 16.6525 24.7629C17.3161 23.1868 17.5588 21.3719 17.3064 19.4985C17.2574 18.621 17.4817 17.7743 17.909 17.0797C18.0499 17.2219 18.2025 17.3391 18.3616 17.4328C18.7763 17.6768 19.2278 17.7698 19.6489 17.7995C20.5702 17.8645 21.1899 17.3427 21.8747 16.9634C22.5596 16.5841 23.3007 16.3115 24.5629 16.7422C24.6009 16.7551 24.6402 16.7564 24.6761 16.7459C24.712 16.7354 24.7428 16.7135 24.7647 16.683C24.7866 16.6526 24.7986 16.6148 24.7993 16.5744C24.8 16.5341 24.7893 16.4929 24.7685 16.4561C24.1325 15.3265 23.1288 14.4496 22.0293 13.9365C20.689 13.2944 18.9998 13.1933 17.9378 14.0121C17.6461 14.2369 17.4293 14.5841 17.315 14.9722C17.2007 15.3602 17.1878 15.7938 17.3439 16.1925C17.4228 16.3941 17.5179 16.5729 17.6248 16.7316C17.3536 17.1478 17.1519 17.6181 17.0319 18.1204C16.9319 17.7412 16.812 17.3613 16.6701 16.9823C16.2699 15.9138 15.7296 14.9312 15.0828 14.0522C15.0814 14.0335 15.0776 14.0147 15.0715 13.9964C14.8334 13.2184 14.8313 12.3991 15.0336 11.6648C15.1812 11.7539 15.3328 11.8193 15.4845 11.863C15.8962 11.9818 16.3044 11.9524 16.6711 11.8731C17.4763 11.6988 17.8879 11.0633 18.3852 10.548C18.8819 10.0317 19.4455 9.60027 20.612 9.67409C20.6506 9.67658 20.6877 9.66705 20.7186 9.64669C20.7495 9.62634 20.7728 9.59605 20.7857 9.55959C20.7986 9.52314 20.8004 9.48213 20.7911 9.44165C20.7817 9.40118 20.7615 9.36303 20.733 9.33194C19.9345 8.46043 18.8789 7.91331 17.824 7.72257L17.8225 7.72282C16.8548 7.53711 15.7889 7.67817 15.0107 8.19001L15.0107 8.19005C14.7514 8.36102 14.5238 8.57252 14.3427 8.82732C14.1428 9.10845 14.0356 9.48187 14.0254 9.86691C14.0151 10.252 14.1018 10.6542 14.3277 10.9827C14.4382 11.1433 14.557 11.2803 14.6814 11.397C14.4939 12.0134 14.4406 12.6892 14.5374 13.3652C13.6353 12.3095 12.5714 11.4341 11.415 10.779C11.248 10.6845 11.0787 10.5949 10.908 10.5096C10.9077 10.5091 10.9074 10.5087 10.9071 10.5082C10.4632 10.039 10.1503 9.44263 9.99426 8.82116C10.114 8.82066 10.2283 8.80453 10.3353 8.7746C10.6596 8.68398 10.9196 8.48141 11.1317 8.26005C11.6019 7.76905 11.6247 7.09929 11.7485 6.49635C11.8723 5.89346 12.0675 5.33524 12.8542 4.88988C12.8863 4.87162 12.9114 4.84309 12.9264 4.80782C12.9414 4.77254 12.9456 4.73208 12.9385 4.69145C12.9314 4.65081 12.9133 4.61178 12.8864 4.57921C12.8596 4.54664 12.8251 4.52195 12.7874 4.50822C11.9133 4.19051 10.9982 4.23461 10.2241 4.55068C10.224 4.55065 10.2239 4.55045 10.2239 4.55045C9.98608 4.64423 9.75536 4.77025 9.54187 4.92384C8.89932 5.38561 8.41166 6.09543 8.35205 6.92415C8.32988 7.23253 8.40701 7.56822 8.55371 7.87093C8.70039 8.17366 8.9195 8.44834 9.20648 8.60503C9.33535 8.67545 9.46157 8.72698 9.58405 8.76219C9.69315 9.25685 9.89188 9.74017 10.1714 10.1751C9.10996 9.74067 7.99626 9.485 6.87674 9.43454C6.80052 9.23448 6.67837 9.04763 6.53319 8.88483C6.31326 8.63835 6.03734 8.44222 5.7486 8.34605C4.97317 8.08776 4.14421 8.25996 3.48211 8.66544C3.45429 8.68204 3.42743 8.69996 3.40059 8.71786L3.39826 8.71679ZM3.56294 9.13036C3.61006 9.098 3.65839 9.06683 3.70707 9.03618C4.29886 8.68009 5.03875 8.52945 5.67095 8.74003C5.87027 8.80638 6.09083 8.95877 6.25904 9.14731C6.33723 9.23486 6.40249 9.32909 6.45292 9.42397C5.61705 9.425 4.78134 9.54131 3.96522 9.78543C3.94678 9.79061 3.92955 9.7988 3.91409 9.80973C3.87689 9.83611 3.85178 9.8771 3.84341 9.92511C3.83504 9.97312 3.84397 10.0249 3.86855 10.0709C3.89313 10.1168 3.93171 10.1539 3.97713 10.1752C4.02255 10.1964 4.07175 10.2005 4.11562 10.1866C4.92015 9.94597 5.74392 9.83431 6.56707 9.83929C6.58344 10.155 6.50108 10.3724 6.36292 10.5467C6.21142 10.7376 5.98299 10.8723 5.73519 10.9673C5.25106 11.1527 4.73303 10.9668 4.09895 10.8437C3.57177 10.7413 2.96836 10.7296 2.33238 11.0668C2.45218 10.4428 2.74874 9.87976 3.1726 9.45651C3.17307 9.45594 3.17355 9.45537 3.17401 9.45479C3.29012 9.33583 3.42078 9.22649 3.56219 9.12932L3.56294 9.13036ZM9.86718 5.22618C10.0369 5.11098 10.2169 5.0144 10.4012 4.94104C10.4019 4.94083 10.4026 4.94061 10.4033 4.94039C10.9734 4.70743 11.627 4.65125 12.2686 4.78706C11.6969 5.25167 11.4706 5.82409 11.3604 6.3607C11.2284 7.00413 11.2013 7.56414 10.8352 7.94648C10.648 8.14194 10.4305 8.30367 10.1891 8.37062C10.101 8.39535 10.0095 8.40865 9.91281 8.40686C9.86233 8.03574 9.86852 7.66371 9.93775 7.31176L9.93857 7.31043L9.93931 7.30897C10.0856 6.5146 10.5372 5.8222 11.1715 5.40879C11.1926 5.39548 11.2106 5.37752 11.2242 5.35592C11.2377 5.33433 11.2468 5.30954 11.2507 5.283C11.2546 5.25646 11.2533 5.22871 11.2469 5.20134C11.2405 5.17398 11.2292 5.14756 11.2135 5.12362C11.1978 5.09967 11.1781 5.07866 11.1555 5.06184C11.1329 5.04501 11.108 5.0327 11.082 5.02561C11.0561 5.01852 11.0297 5.0168 11.0044 5.02054C10.9791 5.02428 10.9554 5.03342 10.9347 5.04741L10.9346 5.04746C10.22 5.51229 9.71751 6.28326 9.55187 7.17959C9.55194 7.1797 9.55216 7.18003 9.55223 7.18013C9.4801 7.54721 9.46772 7.93127 9.5098 8.31519C9.45861 8.2938 9.40591 8.26886 9.35127 8.23903C9.17771 8.1443 9.01302 7.95124 8.90027 7.71851C8.78751 7.48577 8.72962 7.21859 8.745 7.00487C8.79369 6.32781 9.22675 5.69179 9.79638 5.27592C9.8199 5.25827 9.84433 5.24198 9.86872 5.2257L9.86718 5.22618ZM8.74354 11.3263C8.76675 11.3113 8.79045 11.297 8.81472 11.2837L8.81477 11.2837C8.99689 11.1789 9.25512 11.1318 9.50515 11.1578C9.75527 11.1838 9.99206 11.2819 10.1467 11.4309C10.1988 11.4813 10.2453 11.5313 10.2871 11.5813C9.93145 11.6922 9.59809 11.8628 9.30445 12.0916L9.30439 12.0916C8.5911 12.6324 8.12339 13.4828 8.00591 14.435C8.00192 14.4617 8.00319 14.4896 8.00964 14.5172C8.01609 14.5447 8.02758 14.5713 8.04346 14.5954C8.05933 14.6194 8.07925 14.6405 8.10205 14.6573C8.12486 14.6741 8.15007 14.6863 8.17622 14.6932C8.20237 14.7001 8.22892 14.7015 8.2543 14.6974C8.27969 14.6933 8.30339 14.6838 8.32403 14.6694C8.34466 14.6549 8.36179 14.6359 8.37443 14.6134C8.38707 14.5909 8.39496 14.5653 8.39761 14.5383C8.50248 13.6885 8.92511 12.9207 9.56079 12.4388L9.56198 12.438L9.56316 12.4372C9.84521 12.2171 10.1711 12.0577 10.5191 11.9603C10.5618 12.0664 10.5881 12.1732 10.6027 12.2812C10.6415 12.5688 10.5878 12.869 10.4925 13.15C10.3055 13.7013 9.82549 13.9598 9.31866 14.3627C8.89217 14.7017 8.48353 15.1807 8.31271 15.9931C7.92671 15.3556 7.70636 14.6237 7.67909 13.9093C7.67919 13.9086 7.67928 13.9079 7.67937 13.9072C7.63008 12.8978 8.02432 11.7946 8.74474 11.3267L8.74354 11.3263ZM15.2533 8.55459C15.9472 8.10839 16.9243 7.96381 17.8001 8.13204C17.8008 8.13224 17.8015 8.13243 17.8022 8.13261C18.6287 8.28168 19.4449 8.68333 20.118 9.28251C19.1494 9.34409 18.5414 9.76521 18.0894 10.2351C17.5657 10.7797 17.2017 11.3239 16.5454 11.466C16.2142 11.5376 15.8659 11.5566 15.5426 11.4633C15.4106 11.4252 15.2821 11.3696 15.1571 11.2899C15.3197 10.8719 15.5527 10.4917 15.8501 10.1767L15.8511 10.1756L15.8521 10.1746C16.4909 9.47934 17.4188 9.08711 18.3928 9.09272C18.4193 9.09394 18.4451 9.0895 18.4686 9.07968C18.4921 9.06985 18.5129 9.05485 18.5297 9.03555C18.5465 9.01626 18.559 8.99307 18.5664 8.96739C18.5738 8.94171 18.576 8.91406 18.5729 8.88608C18.5697 8.85811 18.5613 8.8304 18.5481 8.8046C18.5348 8.7788 18.5171 8.75544 18.4959 8.73593C18.4747 8.71642 18.4505 8.70114 18.4247 8.69103C18.399 8.68092 18.3721 8.67619 18.3459 8.67709C17.5404 8.67255 16.7687 8.91213 16.1355 9.3562L16.1355 9.35624C15.9249 9.50359 15.7297 9.67409 15.5537 9.8654C15.2457 10.1918 15.0002 10.5785 14.8229 11.0029C14.76 10.9336 14.698 10.8557 14.6374 10.7676C14.4872 10.5488 14.4116 10.2409 14.4199 9.92992C14.4282 9.61897 14.5208 9.31063 14.6692 9.10203C14.8229 8.88603 15.0223 8.70343 15.2535 8.55446L15.2533 8.55459ZM11.0906 15.8411C11.1209 15.8215 11.1516 15.8024 11.1828 15.7845C11.4265 15.6458 11.7656 15.5851 12.0965 15.6209C12.4274 15.6567 12.7443 15.7874 12.9574 15.993C13.0505 16.0828 13.1305 16.1725 13.1996 16.2624C12.7216 16.4001 12.274 16.6223 11.8828 16.9266C10.9821 17.6087 10.3929 18.6853 10.2487 19.8911C10.2454 19.9176 10.2472 19.9452 10.254 19.9723C10.2609 19.9995 10.2726 20.0256 10.2886 20.0491C10.3045 20.0727 10.3244 20.0933 10.347 20.1097C10.3696 20.1261 10.3946 20.138 10.4204 20.1447C10.4462 20.1514 10.4724 20.1528 10.4975 20.1488C10.5226 20.1448 10.546 20.1355 10.5665 20.1214C10.587 20.1072 10.6041 20.0886 10.6168 20.0666C10.6296 20.0446 10.6377 20.0195 10.6407 19.9929C10.7728 18.8892 11.3169 17.8959 12.1402 17.2732L12.1413 17.2724L12.1425 17.2717C12.521 16.977 12.9603 16.7665 13.43 16.6434C13.5018 16.8039 13.545 16.965 13.5675 17.1273C13.6204 17.5098 13.5503 17.9025 13.4279 18.2671C13.184 18.9937 12.5575 19.3275 11.9137 19.8383C11.3509 20.285 10.8197 20.9148 10.6263 22.0202C10.0735 21.1623 9.75653 20.1646 9.71577 19.1924C9.71587 19.1917 9.71596 19.191 9.71605 19.1903C9.64707 17.8777 10.1498 16.4492 11.0913 15.8405L11.0906 15.8411ZM18.2826 14.295C19.2064 13.6597 20.7182 13.7441 21.9037 14.3121C21.9043 14.3122 21.905 14.3124 21.9057 14.3126C22.7875 14.7236 23.5871 15.3997 24.1667 16.2396C23.0719 15.9935 22.2861 16.2421 21.6575 16.5902C20.9385 16.9882 20.3896 17.4379 19.6257 17.3848C19.242 17.3577 18.8522 17.2714 18.5194 17.0755C18.3781 16.9923 18.2461 16.8906 18.1255 16.7627C18.4196 16.3763 18.7827 16.0516 19.2001 15.8153L19.2013 15.8145L19.2025 15.8138C20.0935 15.2928 21.22 15.1719 22.2897 15.474C22.3157 15.4819 22.3423 15.4845 22.3679 15.4816C22.3935 15.4787 22.4177 15.4702 22.439 15.4568C22.4602 15.4434 22.4782 15.4253 22.4918 15.4035C22.5054 15.3817 22.5143 15.3567 22.5181 15.33C22.5219 15.3033 22.5204 15.2754 22.5138 15.2479C22.5072 15.2204 22.4955 15.1939 22.4795 15.17C22.4635 15.146 22.4435 15.1251 22.4207 15.1085C22.3978 15.0918 22.3726 15.0798 22.3464 15.073C21.1779 14.7431 19.9573 14.8734 18.9816 15.4429C18.5505 15.6871 18.1734 16.0149 17.8627 16.4033C17.8061 16.3051 17.7541 16.1967 17.7069 16.0763C17.5989 15.8006 17.6 15.4577 17.6941 15.1385C17.7882 14.8192 17.9741 14.5289 18.1961 14.3578C18.2251 14.3365 18.2538 14.3144 18.2839 14.2943L18.2826 14.295Z" fill="#B1C3A8"/>
</g>
<g clip-path="url(#clip2)">
<path d="M70.5878 8.85802C70.7757 8.97837 70.949 9.11763 71.1024 9.27123C71.6808 9.83648 72.0704 10.6305 72.1215 11.5267C72.1237 11.5662 72.1148 11.607 72.0957 11.644C72.0767 11.681 72.0484 11.7127 72.0144 11.735C71.9804 11.7573 71.9421 11.7693 71.9043 11.7695C71.8665 11.7698 71.8308 11.7582 71.8017 11.7363C71.104 11.2105 70.5322 11.2507 69.9471 11.3712C69.362 11.4917 68.7554 11.7274 68.1363 11.4982C67.8573 11.3949 67.5762 11.2419 67.3708 10.9883C67.1803 10.7538 67.0634 10.4288 67.082 10.0188C65.6158 10.1103 64.166 10.5724 62.8476 11.3391C62.6695 11.4426 62.4941 11.5523 62.3211 11.6667C62.6925 11.609 63.065 11.6114 63.423 11.6717C63.501 11.5544 63.5952 11.4395 63.7071 11.3292C63.9517 11.088 64.2725 10.9637 64.5895 10.9271C64.9065 10.8905 65.2252 10.9407 65.4815 11.0842C66.4027 11.6 66.8514 12.8393 66.8082 13.9964C66.8081 13.9965 66.8079 13.9968 66.8078 13.997C66.782 14.9403 66.4669 15.9263 65.8558 16.7271C65.8305 16.7603 65.7974 16.7859 65.7606 16.801C65.7238 16.8161 65.6849 16.8199 65.6488 16.812C65.6126 16.8041 65.5808 16.7848 65.5573 16.7564C65.5337 16.7281 65.5195 16.6921 65.5163 16.6527C65.4346 15.6401 65.0241 15.2104 64.5493 14.8416C64.0744 14.4727 63.5062 14.1868 63.2642 13.4986C63.1547 13.1875 63.0802 12.8331 63.1268 12.4554C63.1426 12.3271 63.1739 12.1966 63.2218 12.0663C62.6185 11.9848 61.975 12.0827 61.392 12.3723C61.3793 12.3785 61.3662 12.3835 61.3529 12.387C60.0381 13.4823 58.9385 14.9123 58.2076 16.589C58.9941 16.2793 59.826 16.1977 60.6013 16.3324C60.7033 16.1732 60.829 16.0174 60.9811 15.8673C61.2821 15.5702 61.6811 15.4128 62.0778 15.3654C62.4745 15.3179 62.8739 15.3792 63.1917 15.5563C64.3484 16.2009 64.9148 17.7729 64.8546 19.2393C64.8545 19.2394 64.8544 19.2397 64.8543 19.2399C64.8171 20.4378 64.4125 21.6908 63.6352 22.7082C63.6098 22.7415 63.5766 22.7673 63.5397 22.7824C63.5027 22.7976 63.4637 22.8013 63.4275 22.7933C63.3912 22.7853 63.3594 22.7658 63.3359 22.7372C63.3123 22.7087 63.2982 22.6724 63.2953 22.6328C63.1942 21.3194 62.6578 20.7533 62.0467 20.2795C61.4356 19.8058 60.7204 19.4468 60.4204 18.5853C60.2832 18.1915 60.1919 17.7451 60.2518 17.2738C60.2747 17.0929 60.3217 16.9087 60.3958 16.7256C59.6093 16.61 58.7656 16.7318 57.9965 17.1063C57.9755 17.1618 57.9542 17.2174 57.934 17.2734C57.6472 18.0666 57.4583 18.8621 57.3602 19.6458C57.3596 19.6548 57.3584 19.6639 57.3567 19.6729C57.1391 21.4481 57.3891 23.1614 58.0341 24.646C58.0448 24.6694 58.0507 24.6953 58.0514 24.7223C58.0522 24.7493 58.0477 24.7769 58.0384 24.8034C58.0291 24.8299 58.015 24.8548 57.997 24.8767C57.9791 24.8986 57.9576 24.917 57.9338 24.9308C57.9101 24.9446 57.8845 24.9536 57.8586 24.9573C57.8327 24.9609 57.8071 24.9591 57.7831 24.9519C57.7591 24.9448 57.7374 24.9325 57.719 24.9157C57.7007 24.8989 57.6863 24.878 57.6765 24.8541C57.0034 23.305 56.7435 21.5151 56.9719 19.6621C57.0105 18.7948 56.7795 17.9611 56.3496 17.2798C56.2121 17.4219 56.0627 17.5393 55.9065 17.6336C55.4998 17.8792 55.0549 17.9762 54.6392 18.0102C53.7301 18.0847 53.1122 17.5762 52.4316 17.2093C51.7509 16.8423 51.0159 16.5814 49.7741 17.0209C49.7367 17.0341 49.6979 17.0358 49.6624 17.0258C49.6268 17.0158 49.5961 16.9946 49.5742 16.9647C49.5522 16.9348 49.5399 16.8977 49.5388 16.8578C49.5376 16.818 49.5478 16.7772 49.5679 16.7406C50.1834 15.6179 51.1649 14.7405 52.2451 14.2215C53.5617 13.5723 55.2289 13.4536 56.2869 14.2504C56.5775 14.4692 56.7955 14.8097 56.9128 15.1917C57.03 15.5736 57.0476 16.0018 56.8978 16.3973C56.8222 16.5972 56.7303 16.775 56.6264 16.9328C56.8989 17.3409 57.1034 17.8031 57.2275 18.2979C57.322 17.9222 57.4362 17.5457 57.5722 17.1698C57.9554 16.11 58.4782 15.1335 59.1071 14.2582C59.1083 14.2396 59.1119 14.221 59.1177 14.2029C59.3442 13.4319 59.337 12.6226 59.1291 11.8996C58.9843 11.9893 58.8353 12.0556 58.6859 12.1005C58.2806 12.2224 57.8772 12.1979 57.5141 12.1236C56.7169 11.9606 56.3033 11.3375 55.8063 10.8341C55.31 10.3297 54.7485 9.90991 53.5973 9.99585C53.5591 9.99874 53.5224 9.98974 53.4917 9.96998C53.461 9.95022 53.4376 9.92057 53.4244 9.88471C53.4113 9.84885 53.409 9.80836 53.4178 9.76828C53.4266 9.7282 53.4461 9.6903 53.4739 9.65928C54.2528 8.7896 55.2893 8.23744 56.329 8.03726L56.3306 8.0375C57.2842 7.84326 58.3385 7.97067 59.1128 8.4675L59.1128 8.46753C59.3708 8.6335 59.598 8.83985 59.7797 9.08947C59.9803 9.36491 60.0903 9.73251 60.1047 10.1127C60.1192 10.4929 60.0381 10.8911 59.8186 11.218C59.7112 11.3779 59.5955 11.5146 59.4739 11.6312C59.666 12.2379 59.7262 12.9048 59.6381 13.5735C60.5173 12.5208 61.5582 11.6443 62.693 10.9844C62.8569 10.8891 63.0232 10.7988 63.1908 10.7126C63.1911 10.7121 63.1914 10.7117 63.1917 10.7112C63.6248 10.2429 63.9272 9.65034 64.0744 9.0348C63.9561 9.03565 63.8431 9.02099 63.737 8.99263C63.4158 8.90675 63.1567 8.70959 62.9447 8.49333C62.4748 8.01365 62.4448 7.35241 62.3158 6.75829C62.1869 6.16422 61.9878 5.61508 61.2058 5.184C61.1739 5.16633 61.1488 5.13844 61.1336 5.10376C61.1184 5.06909 61.1138 5.02918 61.1204 4.98896C61.1269 4.94875 61.1444 4.91 61.1705 4.87753C61.1967 4.84506 61.2304 4.82029 61.2675 4.8063C62.1273 4.48275 63.0316 4.51608 63.7997 4.8196C63.7997 4.81957 63.7999 4.81938 63.7999 4.81938C64.0358 4.90934 64.2651 5.03122 64.4777 5.18054C65.1174 5.62942 65.607 6.32503 65.6751 7.14286C65.7005 7.44718 65.6281 7.77959 65.4866 8.0802C65.3451 8.38084 65.1317 8.65457 64.85 8.81253C64.7235 8.88352 64.5995 8.93583 64.4789 8.97197C64.3767 9.46175 64.1858 9.94132 63.9146 10.374C64.9581 9.93308 66.0552 9.66812 67.1603 9.60578C67.2333 9.40733 67.3519 9.22142 67.4935 9.05901C67.7079 8.81311 67.9783 8.61633 68.2623 8.51811C69.0253 8.25435 69.846 8.41516 70.5044 8.80824C70.5321 8.82432 70.5588 8.84171 70.5855 8.8591L70.5878 8.85802ZM70.4298 9.26832C70.3829 9.23688 70.3348 9.20664 70.2864 9.17691C69.6979 8.83183 68.9655 8.69132 68.3434 8.90636C68.1473 8.97412 67.9312 9.1271 67.7672 9.31519C67.6909 9.40253 67.6275 9.49633 67.5788 9.5906C68.4043 9.58227 69.231 9.68781 70.0398 9.9198C70.0581 9.92471 70.0752 9.93261 70.0906 9.94323C70.1276 9.96887 70.1529 10.0091 70.1617 10.0564C70.1705 10.1037 70.1622 10.1549 70.1385 10.2006C70.1147 10.2463 70.077 10.2833 70.0324 10.3049C69.9878 10.3264 69.9392 10.3309 69.8957 10.3177C69.0984 10.089 68.2836 9.98795 67.4707 10.0021C67.458 10.3141 67.5418 10.5279 67.6802 10.6984C67.832 10.8853 68.0591 11.0158 68.3049 11.1069C68.7851 11.2846 69.2947 11.0952 69.9195 10.9665C70.4391 10.8595 71.0349 10.8412 71.6668 11.1671C71.5415 10.5522 71.2423 9.99937 70.819 9.58608C70.8185 9.58552 70.818 9.58496 70.8175 9.5844C70.7015 9.4682 70.5713 9.36167 70.4305 9.26728L70.4298 9.26832ZM64.1597 5.48277C63.9908 5.37089 63.812 5.27752 63.6292 5.20712C63.6285 5.20692 63.6278 5.20671 63.627 5.20651C63.0614 4.98279 62.4152 4.93461 61.783 5.07591C62.3529 5.52839 62.5828 6.09122 62.6976 6.61998C62.8352 7.25399 62.8682 7.80679 63.234 8.18031C63.4212 8.37127 63.6377 8.52858 63.8769 8.59199C63.9643 8.61544 64.0547 8.62756 64.1502 8.62471C64.1959 8.2576 64.1857 7.89024 64.1133 7.5434L64.1125 7.5421L64.1118 7.54066C63.9585 6.75774 63.5047 6.07892 62.8736 5.67771C62.8525 5.6648 62.8346 5.64725 62.821 5.62608C62.8073 5.6049 62.7981 5.58052 62.794 5.55435C62.7898 5.52819 62.7908 5.50076 62.7968 5.47366C62.8028 5.44657 62.8137 5.42035 62.8289 5.39652C62.8442 5.37269 62.8634 5.35172 62.8855 5.33486C62.9076 5.31799 62.9321 5.30555 62.9576 5.29825C62.9832 5.29096 63.0092 5.28897 63.0342 5.29238C63.0593 5.29579 63.0828 5.30455 63.1034 5.31814L63.1035 5.31819C63.8145 5.7693 64.3194 6.52514 64.493 7.40855C64.4929 7.40866 64.4927 7.40899 64.4926 7.40908C64.568 7.77083 64.5845 8.15001 64.5472 8.52967C64.5975 8.50797 64.6493 8.48275 64.703 8.45267C64.8733 8.35717 65.0338 8.16465 65.1426 7.93354C65.2513 7.7024 65.3055 7.43788 65.2879 7.22697C65.2323 6.55881 64.7975 5.93548 64.2302 5.53111C64.2068 5.51394 64.1825 5.49812 64.1582 5.48232L64.1597 5.48277ZM65.3377 11.4951C65.3146 11.4805 65.291 11.4666 65.2669 11.4538L65.2668 11.4538C65.0858 11.3523 64.8302 11.3087 64.5836 11.3371C64.3368 11.3656 64.1041 11.4651 63.953 11.6141C63.9022 11.6644 63.8567 11.7143 63.816 11.7641C64.1685 11.8697 64.4997 12.0345 64.7922 12.2571L64.7923 12.2572C65.5028 12.7834 65.9743 13.618 66.1009 14.5571C66.1052 14.5834 66.1042 14.611 66.0982 14.6383C66.0921 14.6656 66.0811 14.692 66.0657 14.7159C66.0502 14.7399 66.0308 14.7609 66.0085 14.7777C65.9861 14.7946 65.9614 14.8069 65.9356 14.814C65.9099 14.8211 65.8837 14.8229 65.8585 14.8191C65.8334 14.8153 65.8099 14.8062 65.7894 14.7922C65.7688 14.7781 65.7517 14.7595 65.739 14.7374C65.7262 14.7153 65.7182 14.6902 65.7152 14.6635C65.6022 13.8254 65.1762 13.0718 64.5429 12.6029L64.5418 12.6022L64.5406 12.6014C64.2596 12.3871 63.9359 12.2334 63.5911 12.141C63.5501 12.2464 63.5253 12.3521 63.5122 12.4589C63.477 12.7434 63.5335 13.0393 63.6307 13.3157C63.8215 13.8582 64.2985 14.1081 64.8036 14.5004C65.2286 14.8305 65.6375 15.299 65.8153 16.0994C66.1894 15.4654 66.3989 14.7402 66.4179 14.0343C66.4177 14.0336 66.4176 14.0329 66.4176 14.0322C66.455 13.0347 66.0532 11.9496 65.3365 11.4955L65.3377 11.4951ZM58.8773 8.83029C58.187 8.39735 57.2203 8.26547 56.3572 8.44142C56.3565 8.44161 56.3558 8.44181 56.3551 8.442C55.5405 8.59846 54.7389 9.00428 54.0807 9.60358C55.0381 9.65358 55.6433 10.0627 56.095 10.5217C56.6183 11.0538 56.9839 11.5872 57.6337 11.7202C57.9616 11.7873 58.3058 11.8021 58.6241 11.7063C58.754 11.6672 58.8804 11.6109 59.0029 11.5308C58.8376 11.1197 58.6032 10.7469 58.306 10.4391L58.305 10.438L58.304 10.437C57.6653 9.75745 56.7445 9.38043 55.7825 9.39686C55.7564 9.39835 55.7309 9.39426 55.7076 9.38482C55.6842 9.37538 55.6635 9.36079 55.6467 9.34193C55.6299 9.32306 55.6173 9.3003 55.6097 9.27502C55.6021 9.24974 55.5996 9.22245 55.6024 9.19478C55.6052 9.16712 55.6132 9.13966 55.626 9.11403C55.6388 9.0884 55.656 9.06513 55.6768 9.04562C55.6975 9.02612 55.7212 9.01076 55.7465 9.00048C55.7719 8.99021 55.7983 8.98523 55.8242 8.98584C56.6198 8.97235 57.3846 9.20035 58.0149 9.63186L58.015 9.6319C58.2246 9.77508 58.4193 9.9413 58.5952 10.1283C58.9031 10.4472 59.1499 10.8264 59.3297 11.2436C59.3911 11.1744 59.4514 11.0968 59.5103 11.0091C59.6562 10.7913 59.7274 10.4863 59.7157 10.1793C59.7041 9.8723 59.6092 9.56881 59.4603 9.36444C59.3061 9.15283 59.1071 8.97471 58.8771 8.83017L58.8773 8.83029ZM63.0701 15.9804C63.0399 15.9614 63.0094 15.9428 62.9783 15.9255C62.7361 15.7912 62.4005 15.735 62.0741 15.7741C61.7477 15.8131 61.4361 15.9458 61.228 16.1512C61.1371 16.241 61.0591 16.3305 60.9918 16.42C61.4655 16.5506 61.91 16.7652 62.2997 17.0613C63.1969 17.7249 63.7909 18.7816 63.9468 19.9709C63.9504 19.9971 63.9489 20.0244 63.9425 20.0512C63.936 20.0781 63.9247 20.104 63.9092 20.1275C63.8937 20.1509 63.8743 20.1715 63.8521 20.1879C63.83 20.2044 63.8055 20.2164 63.78 20.2233C63.7546 20.2302 63.7288 20.2319 63.7039 20.2282C63.6791 20.2245 63.6559 20.2156 63.6355 20.2019C63.6151 20.1882 63.598 20.17 63.5852 20.1484C63.5724 20.1268 63.5641 20.1021 63.5607 20.0759C63.418 18.9873 62.8695 18.0123 62.0494 17.4065L62.0483 17.4058L62.0471 17.405C61.67 17.1182 61.2338 16.9152 60.7685 16.7989C60.6994 16.9582 60.6585 17.1178 60.6381 17.2783C60.5901 17.6567 60.6637 18.0438 60.7887 18.4026C61.0377 19.1174 61.6602 19.4401 62.3018 19.9374C62.8626 20.3723 63.3943 20.9884 63.5976 22.078C64.1341 21.2245 64.4359 20.2355 64.4653 19.2749C64.4652 19.2742 64.4651 19.2735 64.465 19.2728C64.5185 17.9756 64.0061 16.5704 63.0694 15.9797L63.0701 15.9804ZM55.9496 14.5337C55.0301 13.9166 53.5378 14.0168 52.3734 14.591C52.3727 14.5912 52.372 14.5914 52.3713 14.5916C51.505 15.0074 50.7229 15.684 50.1598 16.5201C51.2384 16.2648 52.0172 16.5015 52.6419 16.8382C53.3565 17.2234 53.9037 17.6614 54.6576 17.6003C55.0362 17.5693 55.4202 17.4797 55.7468 17.2825C55.8853 17.1988 56.0146 17.0968 56.1322 16.9691C55.8375 16.5908 55.4752 16.2742 55.0603 16.0455L55.0591 16.0447L55.058 16.044C54.1721 15.5394 53.0582 15.4326 52.005 15.7429C51.9795 15.751 51.9533 15.7539 51.9279 15.7513C51.9026 15.7487 51.8786 15.7406 51.8575 15.7276C51.8363 15.7146 51.8183 15.6969 51.8047 15.6755C51.791 15.6542 51.7819 15.6296 51.7779 15.6033C51.7738 15.5769 51.775 15.5493 51.7812 15.5221C51.7874 15.4949 51.7986 15.4686 51.8142 15.4447C51.8297 15.4209 51.8492 15.4 51.8716 15.3834C51.894 15.3667 51.9188 15.3545 51.9445 15.3475C53.095 15.0086 54.302 15.1237 55.272 15.6752C55.7005 15.9116 56.0766 16.2311 56.3878 16.6113C56.4426 16.5137 56.4928 16.406 56.538 16.2866C56.6416 16.0131 56.6367 15.6744 56.5402 15.3602C56.4437 15.0459 56.2569 14.7613 56.0357 14.5947C56.0068 14.574 55.9782 14.5525 55.9483 14.533L55.9496 14.5337Z" fill="#B1C3A8"/>
</g>
<g clip-path="url(#clip3)">
<path d="M94.624 8.85802C94.8118 8.97837 94.9852 9.11763 95.1385 9.27123C95.7169 9.83648 96.1065 10.6305 96.1577 11.5267C96.1599 11.5662 96.1509 11.607 96.1319 11.644C96.1128 11.681 96.0845 11.7127 96.0505 11.735C96.0165 11.7573 95.9782 11.7693 95.9404 11.7695C95.9026 11.7698 95.8669 11.7582 95.8378 11.7363C95.1401 11.2105 94.5684 11.2507 93.9832 11.3712C93.3981 11.4917 92.7916 11.7274 92.1724 11.4982C91.8935 11.3949 91.6124 11.2419 91.407 10.9883C91.2164 10.7538 91.0995 10.4288 91.1181 10.0188C89.6519 10.1103 88.2022 10.5724 86.8837 11.3391C86.7056 11.4426 86.5302 11.5523 86.3572 11.6667C86.7286 11.609 87.1011 11.6114 87.4591 11.6717C87.5371 11.5544 87.6313 11.4395 87.7432 11.3292C87.9879 11.088 88.3086 10.9637 88.6256 10.9271C88.9426 10.8905 89.2613 10.9407 89.5176 11.0842C90.4388 11.6 90.8875 12.8393 90.8443 13.9964C90.8442 13.9965 90.844 13.9968 90.8439 13.997C90.8182 14.9403 90.503 15.9263 89.892 16.7271C89.8666 16.7603 89.8335 16.7859 89.7967 16.801C89.7599 16.8161 89.721 16.8199 89.6849 16.812C89.6488 16.8041 89.6169 16.7848 89.5934 16.7564C89.5698 16.7281 89.5556 16.6921 89.5524 16.6527C89.4707 15.6401 89.0603 15.2104 88.5854 14.8416C88.1105 14.4727 87.5424 14.1868 87.3003 13.4986C87.1909 13.1875 87.1163 12.8331 87.1629 12.4554C87.1787 12.3271 87.21 12.1966 87.2579 12.0663C86.6546 11.9848 86.0112 12.0827 85.4281 12.3723C85.4154 12.3785 85.4023 12.3835 85.389 12.387C84.0742 13.4823 82.9746 14.9123 82.2438 16.589C83.0302 16.2793 83.8621 16.1977 84.6375 16.3324C84.7394 16.1732 84.8651 16.0174 85.0173 15.8673C85.3183 15.5702 85.7173 15.4128 86.1139 15.3654C86.5106 15.3179 86.9101 15.3792 87.2278 15.5563C88.3846 16.2009 88.951 17.7729 88.8907 19.2393C88.8907 19.2394 88.8905 19.2397 88.8904 19.2399C88.8533 20.4378 88.4487 21.6908 87.6713 22.7082C87.6459 22.7415 87.6127 22.7673 87.5758 22.7824C87.5389 22.7976 87.4998 22.8013 87.4636 22.7933C87.4273 22.7853 87.3955 22.7658 87.372 22.7372C87.3485 22.7087 87.3344 22.6724 87.3314 22.6328C87.2304 21.3194 86.694 20.7533 86.0828 20.2795C85.4717 19.8058 84.7566 19.4468 84.4565 18.5853C84.3194 18.1915 84.228 17.7451 84.2879 17.2738C84.3109 17.0929 84.3578 16.9087 84.4319 16.7256C83.6455 16.61 82.8018 16.7318 82.0327 17.1063C82.0117 17.1618 81.9904 17.2174 81.9701 17.2734C81.6833 18.0666 81.4945 18.8621 81.3963 19.6458C81.3957 19.6548 81.3945 19.6639 81.3928 19.6729C81.1752 21.4481 81.4253 23.1614 82.0703 24.646C82.0809 24.6694 82.0868 24.6953 82.0876 24.7223C82.0883 24.7493 82.0839 24.7769 82.0745 24.8034C82.0652 24.8299 82.0511 24.8548 82.0332 24.8767C82.0152 24.8986 81.9937 24.917 81.97 24.9308C81.9462 24.9446 81.9206 24.9536 81.8947 24.9573C81.8689 24.9609 81.8432 24.9591 81.8192 24.9519C81.7953 24.9448 81.7735 24.9325 81.7552 24.9157C81.7369 24.8989 81.7224 24.878 81.7126 24.8541C81.0396 23.305 80.7796 21.5151 81.008 19.6621C81.0466 18.7948 80.8156 17.9611 80.3858 17.2798C80.2482 17.4219 80.0988 17.5393 79.9427 17.6336C79.5359 17.8792 79.091 17.9762 78.6754 18.0102C77.7662 18.0847 77.1483 17.5762 76.4677 17.2093C75.7871 16.8423 75.052 16.5814 73.8102 17.0209C73.7729 17.0341 73.734 17.0358 73.6985 17.0258C73.6629 17.0158 73.6323 16.9946 73.6103 16.9647C73.5883 16.9348 73.576 16.8977 73.5749 16.8578C73.5738 16.818 73.5839 16.7772 73.604 16.7406C74.2195 15.6179 75.2011 14.7405 76.2812 14.2215C77.5978 13.5723 79.2651 13.4536 80.3231 14.2504C80.6136 14.4692 80.8317 14.8097 80.9489 15.1917C81.0661 15.5736 81.0837 16.0018 80.934 16.3973C80.8583 16.5972 80.7664 16.775 80.6626 16.9328C80.9351 17.3409 81.1395 17.8031 81.2636 18.2979C81.3582 17.9222 81.4724 17.5457 81.6083 17.1698C81.9916 16.11 82.5143 15.1335 83.1433 14.2582C83.1445 14.2396 83.148 14.221 83.1538 14.2029C83.3803 13.4319 83.3732 12.6226 83.1652 11.8996C83.0204 11.9893 82.8714 12.0556 82.722 12.1005C82.3167 12.2224 81.9133 12.1979 81.5503 12.1236C80.753 11.9606 80.3394 11.3375 79.8424 10.8341C79.3461 10.3297 78.7846 9.90991 77.6334 9.99585C77.5953 9.99874 77.5585 9.98974 77.5278 9.96998C77.4971 9.95022 77.4737 9.92057 77.4606 9.88471C77.4474 9.84885 77.4451 9.80836 77.4539 9.76828C77.4627 9.7282 77.4822 9.6903 77.5101 9.65928C78.289 8.7896 79.3254 8.23744 80.3652 8.03726L80.3667 8.0375C81.3203 7.84326 82.3747 7.97067 83.1489 8.4675L83.149 8.46753C83.4069 8.6335 83.6341 8.83985 83.8159 9.08947C84.0164 9.36491 84.1264 9.73251 84.1409 10.1127C84.1553 10.4929 84.0742 10.8911 83.8548 11.218C83.7474 11.3779 83.6316 11.5146 83.51 11.6312C83.7021 12.2379 83.7623 12.9048 83.6742 13.5735C84.5534 12.5208 85.5944 11.6443 86.7292 10.9844C86.8931 10.8891 87.0593 10.7988 87.227 10.7126C87.2272 10.7121 87.2275 10.7117 87.2278 10.7112C87.661 10.2429 87.9634 9.65034 88.1105 9.0348C87.9922 9.03565 87.8792 9.02099 87.7731 8.99263C87.4519 8.90675 87.1928 8.70959 86.9808 8.49333C86.511 8.01365 86.481 7.35241 86.352 6.75829C86.223 6.16422 86.024 5.61508 85.242 5.184C85.21 5.16633 85.1849 5.13844 85.1697 5.10376C85.1545 5.06909 85.1499 5.02918 85.1565 4.98896C85.1631 4.94875 85.1805 4.91 85.2067 4.87753C85.2328 4.84506 85.2666 4.82029 85.3037 4.8063C86.1635 4.48275 87.0677 4.51608 87.8359 4.8196C87.8359 4.81957 87.836 4.81938 87.836 4.81938C88.0719 4.90934 88.3012 5.03122 88.5138 5.18054C89.1536 5.62942 89.6431 6.32503 89.7113 7.14286C89.7366 7.44718 89.6642 7.77959 89.5227 8.0802C89.3812 8.38084 89.1679 8.65457 88.8862 8.81253C88.7597 8.88352 88.6356 8.93583 88.515 8.97197C88.4128 9.46175 88.2219 9.94132 87.9507 10.374C88.9942 9.93308 90.0913 9.66812 91.1964 9.60578C91.2695 9.40733 91.388 9.22142 91.5296 9.05901C91.7441 8.81311 92.0144 8.61633 92.2985 8.51811C93.0615 8.25435 93.8821 8.41516 94.5406 8.80824C94.5682 8.82432 94.595 8.84171 94.6217 8.8591L94.624 8.85802ZM94.4659 9.26832C94.419 9.23688 94.3709 9.20664 94.3225 9.17691C93.7341 8.83183 93.0016 8.69132 92.3796 8.90636C92.1835 8.97412 91.9673 9.1271 91.8033 9.31519C91.727 9.40253 91.6636 9.49633 91.6149 9.5906C92.4405 9.58227 93.2672 9.68781 94.0759 9.9198C94.0942 9.92471 94.1113 9.93261 94.1267 9.94323C94.1637 9.96887 94.189 10.0091 94.1978 10.0564C94.2066 10.1037 94.1984 10.1549 94.1746 10.2006C94.1508 10.2463 94.1131 10.2833 94.0685 10.3049C94.0239 10.3264 93.9754 10.3309 93.9319 10.3177C93.1346 10.089 92.3197 9.98795 91.5068 10.0021C91.4942 10.3141 91.5779 10.5279 91.7163 10.6984C91.8681 10.8853 92.0952 11.0158 92.341 11.1069C92.8212 11.2846 93.3308 11.0952 93.9557 10.9665C94.4752 10.8595 95.071 10.8412 95.7029 11.1671C95.5776 10.5522 95.2785 9.99937 94.8551 9.58608C94.8546 9.58552 94.8541 9.58496 94.8537 9.5844C94.7377 9.4682 94.6074 9.36167 94.4667 9.26728L94.4659 9.26832ZM88.1959 5.48277C88.0269 5.37089 87.8481 5.27752 87.6653 5.20712C87.6646 5.20692 87.6639 5.20671 87.6632 5.20651C87.0975 4.98279 86.4513 4.93461 85.8191 5.07591C86.3891 5.52839 86.6189 6.09122 86.7337 6.61998C86.8714 7.25399 86.9044 7.80679 87.2702 8.18031C87.4573 8.37127 87.6739 8.52858 87.9131 8.59199C88.0004 8.61544 88.0908 8.62756 88.1864 8.62471C88.2321 8.2576 88.2218 7.89024 88.1495 7.5434L88.1487 7.5421L88.1479 7.54066C87.9946 6.75774 87.5408 6.07892 86.9097 5.67771C86.8887 5.6648 86.8708 5.64725 86.8571 5.62608C86.8434 5.6049 86.8343 5.58052 86.8301 5.55435C86.8259 5.52819 86.8269 5.50076 86.8329 5.47366C86.8389 5.44657 86.8498 5.42035 86.8651 5.39652C86.8803 5.37269 86.8995 5.35172 86.9216 5.33486C86.9437 5.31799 86.9682 5.30555 86.9938 5.29825C87.0193 5.29096 87.0454 5.28897 87.0704 5.29238C87.0954 5.29579 87.1189 5.30455 87.1395 5.31814L87.1396 5.31819C87.8506 5.7693 88.3555 6.52514 88.5291 7.40855C88.5291 7.40866 88.5288 7.40899 88.5288 7.40908C88.6041 7.77083 88.6206 8.15001 88.5834 8.52967C88.6337 8.50797 88.6855 8.48275 88.7391 8.45267C88.9094 8.35717 89.0699 8.16465 89.1787 7.93354C89.2875 7.7024 89.3417 7.43788 89.3241 7.22697C89.2684 6.55881 88.8336 5.93548 88.2664 5.53111C88.2429 5.51394 88.2186 5.49812 88.1944 5.48232L88.1959 5.48277ZM89.3738 11.4951C89.3507 11.4805 89.3271 11.4666 89.303 11.4538L89.303 11.4538C89.1219 11.3523 88.8664 11.3087 88.6197 11.3371C88.373 11.3656 88.1402 11.4651 87.9892 11.6141C87.9383 11.6644 87.8929 11.7143 87.8522 11.7641C88.2046 11.8697 88.5358 12.0345 88.8284 12.2571L88.8284 12.2572C89.539 12.7834 90.0104 13.618 90.1371 14.5571C90.1413 14.5834 90.1404 14.611 90.1343 14.6383C90.1282 14.6656 90.1172 14.692 90.1018 14.7159C90.0864 14.7399 90.0669 14.7609 90.0446 14.7777C90.0223 14.7946 89.9975 14.8069 89.9717 14.814C89.946 14.8211 89.9198 14.8229 89.8947 14.8191C89.8696 14.8153 89.846 14.8062 89.8255 14.7922C89.805 14.7781 89.7878 14.7595 89.7751 14.7374C89.7624 14.7153 89.7543 14.6902 89.7514 14.6635C89.6383 13.8254 89.2123 13.0718 88.5791 12.6029L88.5779 12.6022L88.5767 12.6014C88.2957 12.3871 87.972 12.2334 87.6273 12.141C87.5862 12.2464 87.5615 12.3521 87.5483 12.4589C87.5132 12.7434 87.5696 13.0393 87.6668 13.3157C87.8576 13.8582 88.3346 14.1081 88.8397 14.5004C89.2647 14.8305 89.6737 15.299 89.8515 16.0994C90.2256 15.4654 90.435 14.7402 90.454 14.0343C90.4539 14.0336 90.4538 14.0329 90.4537 14.0322C90.4911 13.0347 90.0894 11.9496 89.3726 11.4955L89.3738 11.4951ZM82.9135 8.83029C82.2231 8.39735 81.2564 8.26547 80.3933 8.44142C80.3926 8.44161 80.3919 8.44181 80.3913 8.442C79.5766 8.59846 78.775 9.00428 78.1169 9.60358C79.0743 9.65358 79.6795 10.0627 80.1311 10.5217C80.6545 11.0538 81.02 11.5872 81.6699 11.7202C81.9977 11.7873 82.342 11.8021 82.6602 11.7063C82.7901 11.6672 82.9165 11.6109 83.039 11.5308C82.8738 11.1197 82.6394 10.7469 82.3421 10.4391L82.3411 10.438L82.3401 10.437C81.7014 9.75745 80.7806 9.38043 79.8187 9.39686C79.7925 9.39835 79.767 9.39426 79.7437 9.38482C79.7203 9.37538 79.6996 9.36079 79.6828 9.34193C79.666 9.32306 79.6534 9.3003 79.6458 9.27502C79.6382 9.24974 79.6357 9.22245 79.6385 9.19478C79.6413 9.16712 79.6494 9.13966 79.6621 9.11403C79.6749 9.0884 79.6922 9.06513 79.7129 9.04562C79.7336 9.02612 79.7573 9.01076 79.7827 9.00048C79.808 8.99021 79.8344 8.98523 79.8604 8.98584C80.6559 8.97235 81.4207 9.20035 82.051 9.63186L82.0511 9.6319C82.2608 9.77508 82.4554 9.9413 82.6313 10.1283C82.9393 10.4472 83.186 10.8264 83.3659 11.2436C83.4272 11.1744 83.4875 11.0968 83.5464 11.0091C83.6923 10.7913 83.7636 10.4863 83.7519 10.1793C83.7402 9.8723 83.6453 9.56881 83.4964 9.36444C83.3422 9.15283 83.1432 8.97471 82.9132 8.83017L82.9135 8.83029ZM87.1062 15.9804C87.076 15.9614 87.0455 15.9428 87.0144 15.9255C86.7722 15.7912 86.4367 15.735 86.1103 15.7741C85.7839 15.8131 85.4723 15.9458 85.2641 16.1512C85.1732 16.241 85.0952 16.3305 85.0279 16.42C85.5016 16.5506 85.9461 16.7652 86.3358 17.0613C87.2331 17.7249 87.827 18.7816 87.983 19.9709C87.9865 19.9971 87.985 20.0244 87.9786 20.0512C87.9721 20.0781 87.9608 20.104 87.9453 20.1275C87.9298 20.1509 87.9104 20.1715 87.8883 20.1879C87.8661 20.2044 87.8416 20.2164 87.8162 20.2233C87.7907 20.2302 87.7649 20.2319 87.7401 20.2282C87.7153 20.2245 87.692 20.2156 87.6716 20.2019C87.6513 20.1882 87.6342 20.17 87.6213 20.1484C87.6085 20.1268 87.6002 20.1021 87.5969 20.0759C87.4541 18.9873 86.9056 18.0123 86.0856 17.4065L86.0844 17.4058L86.0832 17.405C85.7061 17.1182 85.2699 16.9152 84.8046 16.7989C84.7355 16.9582 84.6946 17.1178 84.6743 17.2783C84.6262 17.6567 84.6998 18.0438 84.8248 18.4026C85.0738 19.1174 85.6964 19.4401 86.3379 19.9374C86.8988 20.3723 87.4305 20.9884 87.6338 22.078C88.1702 21.2245 88.4721 20.2355 88.5015 19.2749C88.5014 19.2742 88.5013 19.2735 88.5012 19.2728C88.5546 17.9756 88.0422 16.5704 87.1055 15.9797L87.1062 15.9804ZM79.9857 14.5337C79.0662 13.9166 77.574 14.0168 76.4095 14.591C76.4088 14.5912 76.4081 14.5914 76.4074 14.5916C75.5411 15.0074 74.759 15.684 74.1959 16.5201C75.2745 16.2648 76.0534 16.5015 76.678 16.8382C77.3926 17.2234 77.9398 17.6614 78.6937 17.6003C79.0724 17.5693 79.4564 17.4797 79.7829 17.2825C79.9215 17.1988 80.0507 17.0968 80.1684 16.9691C79.8736 16.5908 79.5114 16.2742 79.0965 16.0455L79.0953 16.0447L79.0941 16.044C78.2082 15.5394 77.0943 15.4326 76.0412 15.7429C76.0156 15.751 75.9894 15.7539 75.9641 15.7513C75.9387 15.7487 75.9147 15.7406 75.8936 15.7276C75.8724 15.7146 75.8545 15.6969 75.8408 15.6755C75.8271 15.6542 75.818 15.6296 75.814 15.6033C75.81 15.5769 75.8111 15.5493 75.8173 15.5221C75.8236 15.4949 75.8348 15.4686 75.8503 15.4447C75.8658 15.4209 75.8854 15.4 75.9078 15.3834C75.9301 15.3667 75.9549 15.3545 75.9807 15.3475C77.1312 15.0086 78.3381 15.1237 79.3081 15.6752C79.7366 15.9116 80.1128 16.2311 80.4239 16.6113C80.4787 16.5137 80.5289 16.406 80.5741 16.2866C80.6777 16.0131 80.6728 15.6744 80.5763 15.3602C80.4799 15.0459 80.293 14.7613 80.0718 14.5947C80.0429 14.574 80.0144 14.5525 79.9844 14.533L79.9857 14.5337Z" fill="#B1C3A8"/>
</g>
<defs>
<clipPath id="clip0">
<rect width="18.8571" height="26.9985" fill="white" transform="translate(22.1772 10.5469) rotate(-33.7048)"/>
</clipPath>
<clipPath id="clip1">
<rect width="18.8571" height="26.9985" fill="white" transform="translate(0 10.4648) rotate(-33.7048)"/>
</clipPath>
<clipPath id="clip2">
<rect width="18.6255" height="26.667" fill="white" transform="matrix(-0.838132 -0.545468 -0.545468 0.838132 73.9639 10.5469)"/>
</clipPath>
<clipPath id="clip3">
<rect width="18.6255" height="26.667" fill="white" transform="matrix(-0.838132 -0.545468 -0.545468 0.838132 98 10.5469)"/>
</clipPath>
</defs>
</svg>
