<svg width="30" height="32" viewBox="0 0 30 32" fill="none" xmlns="http://www.w3.org/2000/svg">
<path d="M27.5453 3.54018H25.0907V2.50465C25.0907 1.95537 24.8838 1.42859 24.5155 1.04019C24.1473 0.651794 23.6478 0.433594 23.127 0.433594C22.6062 0.433594 22.1067 0.651794 21.7384 1.04019C21.3702 1.42859 21.1633 1.95537 21.1633 2.50465V3.54018H17.2359V2.50465C17.2359 1.95537 17.029 1.42859 16.6607 1.04019C16.2925 0.651794 15.793 0.433594 15.2722 0.433594C14.7514 0.433594 14.2519 0.651794 13.8836 1.04019C13.5154 1.42859 13.3085 1.95537 13.3085 2.50465V3.54018H9.38109V2.50465C9.38109 1.95537 9.1742 1.42859 8.80593 1.04019C8.43767 0.651794 7.93819 0.433594 7.41739 0.433594C6.89658 0.433594 6.3971 0.651794 6.02884 1.04019C5.66057 1.42859 5.45368 1.95537 5.45368 2.50465V3.54018H2.99906C2.34805 3.54018 1.72371 3.81293 1.26338 4.29843C0.803045 4.78393 0.544434 5.4424 0.544434 6.129V26.8396C0.544434 27.5262 0.803045 28.1847 1.26338 28.6702C1.72371 29.1556 2.34805 29.4284 2.99906 29.4284H16.745C16.8752 29.4284 17 29.3738 17.0921 29.2768C17.1842 29.1797 17.2359 29.048 17.2359 28.9106C17.2359 28.7733 17.1842 28.6416 17.0921 28.5445C17 28.4474 16.8752 28.3929 16.745 28.3929H2.99906C2.60881 28.3916 2.23488 28.2276 1.95894 27.9366C1.68299 27.6455 1.52745 27.2512 1.52628 26.8396V10.7889H29.0181V19.5909C29.0181 19.7282 29.0698 19.8599 29.1619 19.957C29.2539 20.0541 29.3788 20.1086 29.509 20.1086C29.6392 20.1086 29.7641 20.0541 29.8562 19.957C29.9482 19.8599 29.9999 19.7282 29.9999 19.5909V6.129C29.9999 5.4424 29.7413 4.78393 29.281 4.29843C28.8207 3.81293 28.1963 3.54018 27.5453 3.54018ZM22.1451 2.50465C22.1451 2.23001 22.2486 1.96662 22.4327 1.77242C22.6168 1.57822 22.8666 1.46912 23.127 1.46912C23.3874 1.46912 23.6371 1.57822 23.8213 1.77242C24.0054 1.96662 24.1088 2.23001 24.1088 2.50465V5.61124C24.1088 5.88588 24.0054 6.14927 23.8213 6.34347C23.6371 6.53767 23.3874 6.64677 23.127 6.64677C22.8666 6.64677 22.6168 6.53767 22.4327 6.34347C22.2486 6.14927 22.1451 5.88588 22.1451 5.61124V2.50465ZM14.2903 2.50465C14.2903 2.23001 14.3938 1.96662 14.5779 1.77242C14.762 1.57822 15.0118 1.46912 15.2722 1.46912C15.5326 1.46912 15.7823 1.57822 15.9665 1.77242C16.1506 1.96662 16.254 2.23001 16.254 2.50465V5.61124C16.254 5.88588 16.1506 6.14927 15.9665 6.34347C15.7823 6.53767 15.5326 6.64677 15.2722 6.64677C15.0118 6.64677 14.762 6.53767 14.5779 6.34347C14.3938 6.14927 14.2903 5.88588 14.2903 5.61124V2.50465ZM6.43553 2.50465C6.43553 2.23001 6.53898 1.96662 6.72311 1.77242C6.90724 1.57822 7.15698 1.46912 7.41739 1.46912C7.67779 1.46912 7.92753 1.57822 8.11166 1.77242C8.29579 1.96662 8.39924 2.23001 8.39924 2.50465V5.61124C8.39924 5.88588 8.29579 6.14927 8.11166 6.34347C7.92753 6.53767 7.67779 6.64677 7.41739 6.64677C7.15698 6.64677 6.90724 6.53767 6.72311 6.34347C6.53898 6.14927 6.43553 5.88588 6.43553 5.61124V2.50465ZM29.0181 9.75335H1.52628V6.129C1.52745 5.71742 1.68299 5.32305 1.95894 5.03202C2.23488 4.74098 2.60881 4.57694 2.99906 4.57571H5.45368V5.61124C5.45368 6.16052 5.66057 6.6873 6.02884 7.0757C6.3971 7.4641 6.89658 7.6823 7.41739 7.6823C7.93819 7.6823 8.43767 7.4641 8.80593 7.0757C9.1742 6.6873 9.38109 6.16052 9.38109 5.61124V4.57571H13.3085V5.61124C13.3085 6.16052 13.5154 6.6873 13.8836 7.0757C14.2519 7.4641 14.7514 7.6823 15.2722 7.6823C15.793 7.6823 16.2925 7.4641 16.6607 7.0757C17.029 6.6873 17.2359 6.16052 17.2359 5.61124V4.57571H21.1633V5.61124C21.1633 6.16052 21.3702 6.6873 21.7384 7.0757C22.1067 7.4641 22.6062 7.6823 23.127 7.6823C23.6478 7.6823 24.1473 7.4641 24.5155 7.0757C24.8838 6.6873 25.0907 6.16052 25.0907 5.61124V4.57571H27.5453C27.9356 4.57694 28.3095 4.74098 28.5854 5.03202C28.8614 5.32305 29.0169 5.71742 29.0181 6.129V9.75335Z" fill="#6FACD9"/>
<path d="M14.2907 14.4125C14.2907 14.1378 14.1872 13.8745 14.0031 13.6803C13.819 13.4861 13.5692 13.377 13.3088 13.377H11.3451C11.0847 13.377 10.835 13.4861 10.6509 13.6803C10.4667 13.8745 10.3633 14.1378 10.3633 14.4125V15.9658C10.3633 16.2404 10.4667 16.5038 10.6509 16.698C10.835 16.8922 11.0847 17.0013 11.3451 17.0013H13.3088C13.5692 17.0013 13.819 16.8922 14.0031 16.698C14.1872 16.5038 14.2907 16.2404 14.2907 15.9658V14.4125ZM11.3451 15.9658V14.4125H13.3088V15.9658H11.3451Z" fill="#6FACD9"/>
<path d="M8.39908 14.4125C8.39908 14.1378 8.29564 13.8745 8.1115 13.6803C7.92737 13.4861 7.67763 13.377 7.41723 13.377H5.45353C5.19313 13.377 4.94339 13.4861 4.75926 13.6803C4.57512 13.8745 4.47168 14.1378 4.47168 14.4125V15.9658C4.47168 16.2404 4.57512 16.5038 4.75926 16.698C4.94339 16.8922 5.19313 17.0013 5.45353 17.0013H7.41723C7.67763 17.0013 7.92737 16.8922 8.1115 16.698C8.29564 16.5038 8.39908 16.2404 8.39908 15.9658V14.4125ZM5.45353 15.9658V14.4125H7.41723V15.9658H5.45353Z" fill="#6FACD9"/>
<path d="M25.0906 17.0013C25.351 17.0013 25.6007 16.8922 25.7848 16.698C25.969 16.5038 26.0724 16.2404 26.0724 15.9658V14.4125C26.0724 14.1378 25.969 13.8745 25.7848 13.6803C25.6007 13.4861 25.351 13.377 25.0906 13.377H23.1269C22.8665 13.377 22.6167 13.4861 22.4326 13.6803C22.2485 13.8745 22.145 14.1378 22.145 14.4125V15.9658C22.145 16.2404 22.2485 16.5038 22.4326 16.698C22.6167 16.8922 22.8665 17.0013 23.1269 17.0013H25.0906ZM23.1269 14.4125H25.0906V15.9658H23.1269V14.4125Z" fill="#6FACD9"/>
<path d="M14.2907 19.0746C14.2907 18.8 14.1872 18.5366 14.0031 18.3424C13.819 18.1482 13.5692 18.0391 13.3088 18.0391H11.3451C11.0847 18.0391 10.835 18.1482 10.6509 18.3424C10.4667 18.5366 10.3633 18.8 10.3633 19.0746V20.6279C10.3633 20.9025 10.4667 21.1659 10.6509 21.3601C10.835 21.5543 11.0847 21.6634 11.3451 21.6634H13.3088C13.5692 21.6634 13.819 21.5543 14.0031 21.3601C14.1872 21.1659 14.2907 20.9025 14.2907 20.6279V19.0746ZM11.3451 20.6279V19.0746H13.3088V20.6279H11.3451Z" fill="#6FACD9"/>
<path d="M8.39908 19.0746C8.39908 18.8 8.29564 18.5366 8.1115 18.3424C7.92737 18.1482 7.67763 18.0391 7.41723 18.0391H5.45353C5.19313 18.0391 4.94339 18.1482 4.75926 18.3424C4.57512 18.5366 4.47168 18.8 4.47168 19.0746V20.6279C4.47168 20.9025 4.57512 21.1659 4.75926 21.3601C4.94339 21.5543 5.19313 21.6634 5.45353 21.6634H7.41723C7.67763 21.6634 7.92737 21.5543 8.1115 21.3601C8.29564 21.1659 8.39908 20.9025 8.39908 20.6279V19.0746ZM5.45353 20.6279V19.0746H7.41723V20.6279H5.45353Z" fill="#6FACD9"/>
<path d="M13.3088 22.6973H11.3451C11.0847 22.6973 10.835 22.8064 10.6509 23.0006C10.4667 23.1948 10.3633 23.4582 10.3633 23.7328V25.2861C10.3633 25.5607 10.4667 25.8241 10.6509 26.0183C10.835 26.2125 11.0847 26.3216 11.3451 26.3216H13.3088C13.5692 26.3216 13.819 26.2125 14.0031 26.0183C14.1872 25.8241 14.2907 25.5607 14.2907 25.2861V23.7328C14.2907 23.4582 14.1872 23.1948 14.0031 23.0006C13.819 22.8064 13.5692 22.6973 13.3088 22.6973ZM11.3451 25.2861V23.7328H13.3088V25.2861H11.3451Z" fill="#6FACD9"/>
<path d="M17.2358 17.0013H19.1995C19.4599 17.0013 19.7096 16.8922 19.8937 16.698C20.0779 16.5038 20.1813 16.2404 20.1813 15.9658V14.4125C20.1813 14.1378 20.0779 13.8745 19.8937 13.6803C19.7096 13.4861 19.4599 13.377 19.1995 13.377H17.2358C16.9754 13.377 16.7256 13.4861 16.5415 13.6803C16.3574 13.8745 16.2539 14.1378 16.2539 14.4125V15.9658C16.2539 16.2404 16.3574 16.5038 16.5415 16.698C16.7256 16.8922 16.9754 17.0013 17.2358 17.0013ZM17.2358 14.4125H19.1995V15.9658H17.2358V14.4125Z" fill="#6FACD9"/>
<path d="M16.2539 20.6279C16.2539 20.9025 16.3574 21.1659 16.5415 21.3601C16.7256 21.5543 16.9754 21.6634 17.2358 21.6634C17.366 21.6634 17.4908 21.6089 17.5829 21.5118C17.675 21.4147 17.7267 21.283 17.7267 21.1456C17.7267 21.0083 17.675 20.8766 17.5829 20.7795C17.4908 20.6824 17.366 20.6279 17.2358 20.6279V19.0746H19.1995C19.3297 19.0746 19.4545 19.02 19.5466 18.9229C19.6387 18.8258 19.6904 18.6941 19.6904 18.5568C19.6904 18.4195 19.6387 18.2878 19.5466 18.1907C19.4545 18.0936 19.3297 18.0391 19.1995 18.0391H17.2358C16.9754 18.0391 16.7256 18.1482 16.5415 18.3424C16.3574 18.5366 16.2539 18.8 16.2539 19.0746V20.6279Z" fill="#6FACD9"/>
<path d="M7.41723 22.6973H5.45353C5.19313 22.6973 4.94339 22.8064 4.75926 23.0006C4.57512 23.1948 4.47168 23.4582 4.47168 23.7328V25.2861C4.47168 25.5607 4.57512 25.8241 4.75926 26.0183C4.94339 26.2125 5.19313 26.3216 5.45353 26.3216H7.41723C7.67763 26.3216 7.92737 26.2125 8.1115 26.0183C8.29564 25.8241 8.39908 25.5607 8.39908 25.2861V23.7328C8.39908 23.4582 8.29564 23.1948 8.1115 23.0006C7.92737 22.8064 7.67763 22.6973 7.41723 22.6973V22.6973ZM5.45353 25.2861V23.7328H7.41723V25.2861H5.45353Z" fill="#6FACD9"/>
<path d="M23.6179 18.0391C22.3556 18.0391 21.1217 18.4338 20.0722 19.1734C19.0227 19.913 18.2047 20.9643 17.7216 22.1942C17.2386 23.4241 17.1122 24.7775 17.3585 26.0831C17.6047 27.3888 18.2126 28.5882 19.1051 29.5295C19.9976 30.4708 21.1348 31.1119 22.3728 31.3716C23.6108 31.6313 24.894 31.498 26.0602 30.9886C27.2263 30.4791 28.2231 29.6164 28.9243 28.5095C29.6256 27.4026 29.9999 26.1013 29.9999 24.77C29.9979 22.9855 29.3249 21.2746 28.1285 20.0128C26.932 18.7509 25.3099 18.0411 23.6179 18.0391V18.0391ZM23.6179 30.4654C22.5498 30.4654 21.5057 30.1314 20.6177 29.5056C19.7296 28.8797 19.0375 27.9902 18.6288 26.9495C18.22 25.9088 18.1131 24.7637 18.3215 23.6589C18.5298 22.5541 19.0441 21.5393 19.7994 20.7427C20.5546 19.9462 21.5168 19.4038 22.5643 19.184C23.6119 18.9643 24.6977 19.0771 25.6844 19.5081C26.6712 19.9392 27.5146 20.6692 28.1079 21.6058C28.7013 22.5424 29.018 23.6436 29.018 24.77C29.0164 26.28 28.4469 27.7276 27.4345 28.7953C26.4221 29.863 25.0496 30.4636 23.6179 30.4654Z" fill="#6FACD9"/>
<path d="M26.4547 22.5985L22.6362 26.6256L20.9008 24.7948C20.8082 24.7005 20.6842 24.6483 20.5555 24.6495C20.4268 24.6507 20.3037 24.7051 20.2126 24.8011C20.1216 24.8971 20.07 25.027 20.0689 25.1627C20.0677 25.2985 20.1172 25.4293 20.2067 25.5269L22.2892 27.7238C22.3812 27.8209 22.5061 27.8754 22.6362 27.8754C22.7664 27.8754 22.8913 27.8209 22.9833 27.7238L27.1488 23.3306C27.2383 23.2329 27.2877 23.1021 27.2866 22.9664C27.2855 22.8306 27.2339 22.7008 27.1428 22.6048C27.0518 22.5088 26.9287 22.4543 26.8 22.4531C26.6713 22.452 26.5472 22.5042 26.4547 22.5985Z" fill="#6FACD9"/>
</svg>
