<svg width="40" height="41" viewBox="0 0 40 41" fill="none" xmlns="http://www.w3.org/2000/svg">
<path d="M26.2744 5.23167L38.8375 23.6725C40.0033 25.3848 39.56 27.7347 37.8477 28.9005L22.4672 39.3809C20.7792 40.4739 18.5204 40.0488 17.3485 38.4155C12.9766 31.9973 8.59863 25.5731 4.22675 19.1549C3.94136 18.742 4.05066 18.1773 4.46356 17.8919C13.1345 11.9838 21.8053 6.07569 30.4762 0.167578C31.4599 -0.500348 32.4861 0.99945 31.5024 1.66738L26.2744 5.23167ZM7.24456 20.3511H34.3806L24.7746 6.25785L6.2366 18.8817L7.24456 20.3511ZM35.6193 22.1727H8.48326L18.8058 37.3225C19.4069 38.2029 20.6213 38.4397 21.5017 37.8386L36.8276 27.4007C37.7081 26.7996 37.9388 25.5791 37.3377 24.6987L35.6193 22.1727Z" fill="#91958E"/>
<path d="M6.48499 39.0901C5.03984 40.8268 2.441 40.8085 0.977631 39.1023C-0.522167 37.3414 -0.127483 35.4712 1.02621 33.7407C1.77307 32.6659 2.3317 31.2815 2.91462 30.1035C3.24858 29.4174 4.21404 29.4356 4.54193 30.1035C5.13092 31.2936 5.70169 32.6538 6.43034 33.7467C7.58403 35.4712 7.95442 37.3292 6.48499 39.0901ZM4.92447 34.7608C4.43263 34.026 4.11688 33.3399 3.72827 32.5566C3.3518 33.3156 3.03606 33.9957 2.56244 34.7061C1.8763 35.7809 1.40267 36.801 2.36206 37.9182C3.09071 38.7744 4.36584 38.7926 5.09448 37.9243C5.99922 36.8374 5.61668 35.7869 4.92447 34.7608Z" fill="#91958E"/>
</svg>
