<svg width="56" height="51" viewBox="0 0 56 51" fill="none" xmlns="http://www.w3.org/2000/svg">
<path d="M43.7021 33.4973C45.4113 38.8295 46.0362 44.4498 45.5401 50.0273C41.7565 45.8912 38.8874 41.004 37.1198 35.6844C35.3523 30.3647 34.7261 24.7322 35.2821 19.1543C39.0171 23.326 41.8799 28.2026 43.7021 33.4973V33.4973Z" fill="#499083"/>
<path d="M47.3781 33.4973C45.6689 38.8295 45.0439 44.4498 45.5401 50.0273C49.3235 45.8911 52.1925 41.0039 53.96 35.6843C55.7276 30.3647 56.3538 24.7322 55.7981 19.1543C52.0631 23.326 49.2003 28.2027 47.3781 33.4973V33.4973Z" fill="#499083"/>
<path d="M48.5191 33.5913C48.578 39.1906 47.5158 44.7449 45.3951 49.9273C43.001 44.8587 41.7025 39.3424 41.5841 33.7381C41.4657 28.1338 42.5302 22.5675 44.7081 17.4023C47.0453 22.4905 48.3411 27.9949 48.5191 33.5913V33.5913Z" fill="#3F3D56"/>
<path d="M45.3931 50.4669C49.8181 50.4669 53.4041 50.2669 53.4041 50.0279C53.4041 49.7889 49.8181 49.5879 45.3931 49.5879C40.9681 49.5879 37.3821 49.7879 37.3821 50.0279C37.3821 50.2679 40.9711 50.4669 45.3931 50.4669Z" fill="#3F3D56"/>
<path d="M45.0511 26.5315C45.2253 26.5317 45.3955 26.4802 45.5404 26.3836C45.6853 26.287 45.7982 26.1496 45.8649 25.9887C45.9317 25.8279 45.9492 25.6509 45.9153 25.4801C45.8813 25.3093 45.7975 25.1523 45.6744 25.0292C45.5512 24.9061 45.3944 24.8223 45.2236 24.7883C45.0528 24.7544 44.8757 24.7719 44.7149 24.8387C44.5541 24.9054 44.4166 25.0184 44.32 25.1632C44.2234 25.3081 44.1719 25.4783 44.1721 25.6525C44.1724 25.8855 44.2651 26.109 44.4299 26.2738C44.5947 26.4385 44.8181 26.5312 45.0511 26.5315Z" fill="#499083"/>
<path d="M43.342 33.1752C43.4385 33.175 43.5328 33.1462 43.6129 33.0925C43.693 33.0387 43.7554 32.9625 43.7922 32.8733C43.8289 32.7841 43.8385 32.686 43.8195 32.5914C43.8006 32.4968 43.754 32.41 43.6857 32.3418C43.6175 32.2737 43.5305 32.2273 43.4359 32.2085C43.3412 32.1898 43.2432 32.1995 43.1541 32.2365C43.0649 32.2734 42.9888 32.336 42.9352 32.4162C42.8816 32.4965 42.853 32.5907 42.853 32.6872C42.853 32.7514 42.8657 32.8149 42.8903 32.8742C42.9149 32.9335 42.9509 32.9873 42.9963 33.0326C43.0417 33.078 43.0957 33.1139 43.155 33.1384C43.2143 33.1628 43.2779 33.1754 43.342 33.1752Z" fill="#499083"/>
<path d="M37.382 28.3393C37.4786 28.3393 37.5729 28.3106 37.6532 28.257C37.7334 28.2034 37.796 28.1272 37.8329 28.038C37.8698 27.9489 37.8795 27.8507 37.8607 27.7561C37.8418 27.6614 37.7954 27.5745 37.7271 27.5062C37.6589 27.438 37.5719 27.3915 37.4772 27.3727C37.3826 27.3538 37.2845 27.3635 37.1953 27.4004C37.1061 27.4374 37.0299 27.4999 36.9763 27.5801C36.9227 27.6604 36.894 27.7547 36.894 27.8513C36.894 27.9807 36.9455 28.1048 37.037 28.1964C37.1285 28.2879 37.2526 28.3393 37.382 28.3393Z" fill="#3F3D56"/>
<path d="M54.6252 23.601C54.7217 23.601 54.8161 23.5724 54.8963 23.5187C54.9766 23.4651 55.0391 23.3889 55.0761 23.2998C55.113 23.2106 55.1227 23.1125 55.1038 23.0178C55.085 22.9231 55.0385 22.8362 54.9703 22.7679C54.902 22.6997 54.8151 22.6532 54.7204 22.6344C54.6257 22.6155 54.5276 22.6252 54.4385 22.6621C54.3493 22.6991 54.2731 22.7616 54.2194 22.8419C54.1658 22.9221 54.1372 23.0165 54.1372 23.113C54.1375 23.2424 54.189 23.3663 54.2804 23.4578C54.3719 23.5492 54.4959 23.6007 54.6252 23.601V23.601Z" fill="#3F3D56"/>
<path d="M39.9221 32.9311C40.0189 32.9313 40.1136 32.9028 40.1941 32.8491C40.2747 32.7955 40.3375 32.7191 40.3747 32.6297C40.4118 32.5403 40.4216 32.4419 40.4027 32.347C40.3839 32.252 40.3373 32.1648 40.2689 32.0964C40.2004 32.0279 40.1132 31.9813 40.0182 31.9625C39.9233 31.9436 39.8249 31.9534 39.7355 31.9905C39.6461 32.0277 39.5697 32.0905 39.5161 32.1711C39.4624 32.2516 39.4339 32.3463 39.4341 32.4431C39.4343 32.5725 39.4858 32.6964 39.5773 32.7879C39.6688 32.8794 39.7927 32.9309 39.9221 32.9311V32.9311Z" fill="#3F3D56"/>
<path d="M50.1801 30.0971C50.2766 30.0971 50.3709 30.0685 50.4511 30.0149C50.5314 29.9613 50.5939 29.8852 50.6309 29.7961C50.6679 29.707 50.6776 29.6089 50.6588 29.5143C50.6401 29.4196 50.5937 29.3327 50.5256 29.2644C50.4574 29.1961 50.3706 29.1495 50.276 29.1306C50.1814 29.1117 50.0833 29.1212 49.9941 29.1579C49.9049 29.1947 49.8286 29.2571 49.7749 29.3372C49.7211 29.4174 49.6923 29.5116 49.6921 29.6081C49.6921 29.7376 49.7435 29.8618 49.835 29.9535C49.9265 30.0452 50.0506 30.0968 50.1801 30.0971V30.0971Z" fill="#3F3D56"/>
<path d="M40.215 40.1108C40.3118 40.111 40.4065 40.0825 40.487 40.0289C40.5675 39.9753 40.6304 39.899 40.6675 39.8096C40.7047 39.7203 40.7145 39.6219 40.6958 39.527C40.677 39.4321 40.6305 39.3449 40.5622 39.2764C40.4938 39.2079 40.4067 39.1612 40.3118 39.1423C40.2169 39.1233 40.1186 39.133 40.0292 39.1699C39.9397 39.2069 39.8633 39.2696 39.8095 39.35C39.7558 39.4305 39.7271 39.525 39.7271 39.6218C39.7271 39.7513 39.7784 39.8756 39.8699 39.9672C39.9614 40.0589 40.0855 40.1106 40.215 40.1108Z" fill="#3F3D56"/>
<path d="M50.6711 37.3276C50.7676 37.3274 50.8619 37.2986 50.942 37.2448C51.0221 37.1911 51.0845 37.1148 51.1213 37.0256C51.1581 36.9364 51.1676 36.8383 51.1486 36.7437C51.1297 36.6491 51.0831 36.5623 51.0148 36.4941C50.9466 36.426 50.8596 36.3796 50.765 36.3609C50.6703 36.3421 50.5723 36.3519 50.4831 36.3888C50.394 36.4258 50.3179 36.4883 50.2643 36.5686C50.2107 36.6488 50.1821 36.7431 50.1821 36.8396C50.1821 36.9037 50.1948 36.9673 50.2194 37.0265C50.244 37.0858 50.28 37.1397 50.3254 37.185C50.3708 37.2303 50.4247 37.2662 50.4841 37.2907C50.5434 37.3152 50.607 37.3277 50.6711 37.3276Z" fill="#3F3D56"/>
<path d="M45.9311 37.8158C46.0276 37.8156 46.1218 37.7869 46.2019 37.7332C46.282 37.6795 46.3444 37.6033 46.3812 37.5141C46.418 37.425 46.4276 37.327 46.4087 37.2324C46.3898 37.1378 46.3434 37.0509 46.2752 36.9828C46.207 36.9146 46.1202 36.8681 46.0256 36.8493C45.931 36.8304 45.833 36.84 45.7439 36.8768C45.6547 36.9136 45.5785 36.976 45.5248 37.0561C45.4711 37.1362 45.4423 37.2304 45.4421 37.3268C45.4421 37.4565 45.4937 37.5809 45.5854 37.6726C45.6771 37.7643 45.8014 37.8158 45.9311 37.8158V37.8158Z" fill="#499083"/>
<path d="M13.2051 24.6684C15.8239 32.8398 16.7814 41.4524 16.0211 49.9994C10.2232 43.6616 5.82656 36.1727 3.1179 28.0212C0.409243 19.8698 -0.550545 11.2388 0.301141 2.69141C6.02513 9.08316 10.4126 16.5555 13.2051 24.6684V24.6684Z" fill="#499083"/>
<path d="M18.838 24.6684C16.2192 32.8398 15.2618 41.4524 16.022 49.9994C21.7448 43.6067 26.1309 36.1338 28.922 28.0204C31.5416 19.8499 32.5001 11.2379 31.741 2.69141C26.0174 9.08325 21.6303 16.5556 18.838 24.6684V24.6684Z" fill="#499083"/>
<path d="M20.586 24.809C20.676 33.3894 19.0484 41.9011 15.799 49.843C12.1302 42.0757 10.1401 33.6221 9.95848 25.0338C9.77687 16.4456 11.4078 7.91549 14.745 0C18.3271 7.79734 20.3131 16.2325 20.586 24.809V24.809Z" fill="#3F3D56"/>
<path d="M15.797 50.6722C22.577 50.6722 28.073 50.3722 28.073 49.9982C28.073 49.6242 22.573 49.3242 15.797 49.3242C9.021 49.3242 3.521 49.6242 3.521 49.9982C3.521 50.3722 9.017 50.6722 15.797 50.6722Z" fill="#3F3D56"/>
<path d="M15.2711 13.9909C15.5377 13.9911 15.7984 13.9122 16.0203 13.7642C16.2421 13.6162 16.415 13.4058 16.5172 13.1595C16.6194 12.9132 16.6462 12.6421 16.5943 12.3806C16.5424 12.119 16.4141 11.8787 16.2256 11.6901C16.0371 11.5015 15.7969 11.373 15.5354 11.3209C15.2739 11.2688 15.0028 11.2954 14.7564 11.3974C14.5101 11.4994 14.2995 11.6722 14.1513 11.8939C14.0032 12.1156 13.9241 12.3763 13.9241 12.6429C13.9241 13.0003 14.066 13.343 14.3185 13.5958C14.5711 13.8485 14.9137 13.9907 15.2711 13.9909Z" fill="#499083"/>
<path d="M12.6531 24.1737C12.8009 24.1735 12.9454 24.1295 13.0682 24.0473C13.1911 23.965 13.2868 23.8482 13.3433 23.7115C13.3998 23.5749 13.4145 23.4246 13.3856 23.2796C13.3567 23.1346 13.2855 23.0014 13.181 22.8968C13.0764 22.7923 12.9432 22.721 12.7982 22.6922C12.6532 22.6633 12.5029 22.678 12.3663 22.7345C12.2296 22.791 12.1128 22.8867 12.0305 23.0095C11.9483 23.1324 11.9043 23.2769 11.9041 23.4247C11.9041 23.6234 11.983 23.8139 12.1234 23.9544C12.2639 24.0948 12.4544 24.1737 12.6531 24.1737Z" fill="#499083"/>
<path d="M3.52 16.7617C3.66818 16.7617 3.81303 16.7177 3.93623 16.6354C4.05942 16.553 4.15542 16.436 4.21208 16.2991C4.26874 16.1621 4.28351 16.0115 4.25453 15.8662C4.22555 15.7209 4.15412 15.5874 4.04927 15.4827C3.94442 15.378 3.81086 15.3067 3.66551 15.2779C3.52015 15.2492 3.36952 15.2641 3.23267 15.321C3.09583 15.3778 2.97893 15.474 2.89674 15.5973C2.81456 15.7206 2.7708 15.8655 2.771 16.0137C2.771 16.112 2.79038 16.2093 2.82803 16.3002C2.86569 16.391 2.92088 16.4735 2.99044 16.5429C3.06001 16.6124 3.14258 16.6675 3.23344 16.705C3.32431 16.7425 3.42168 16.7618 3.52 16.7617V16.7617Z" fill="#3F3D56"/>
<path d="M7.41306 23.7988C7.5612 23.7988 7.70601 23.7549 7.82919 23.6726C7.95236 23.5903 8.04836 23.4733 8.10505 23.3364C8.16174 23.1995 8.17657 23.049 8.14767 22.9037C8.11877 22.7584 8.04743 22.6249 7.94268 22.5202C7.83793 22.4154 7.70447 22.3441 7.55918 22.3152C7.41389 22.2863 7.26329 22.3011 7.12643 22.3578C6.98956 22.4145 6.87259 22.5105 6.79029 22.6337C6.70799 22.7568 6.66406 22.9017 6.66406 23.0498C6.66406 23.2484 6.74297 23.439 6.88344 23.5794C7.0239 23.7199 7.21442 23.7988 7.41306 23.7988Z" fill="#3F3D56"/>
<path d="M23.1321 19.4569C23.28 19.4567 23.4245 19.4127 23.5474 19.3304C23.6702 19.2481 23.7659 19.1312 23.8224 18.9945C23.8789 18.8578 23.8935 18.7074 23.8646 18.5624C23.8356 18.4174 23.7643 18.2842 23.6596 18.1797C23.555 18.0752 23.4217 18.004 23.2766 17.9752C23.1315 17.9465 22.9812 17.9613 22.8446 18.018C22.708 18.0746 22.5912 18.1705 22.509 18.2935C22.4269 18.4165 22.3831 18.561 22.3831 18.7089C22.3831 18.8073 22.4024 18.9046 22.4401 18.9954C22.4777 19.0862 22.5329 19.1687 22.6025 19.2382C22.6721 19.3077 22.7546 19.3628 22.8455 19.4003C22.9364 19.4378 23.0337 19.4571 23.1321 19.4569Z" fill="#3F3D56"/>
<path d="M7.86204 34.8026C8.00994 34.8024 8.15445 34.7584 8.27733 34.6761C8.4002 34.5938 8.49592 34.4769 8.55238 34.3402C8.60884 34.2035 8.62352 34.0531 8.59454 33.9081C8.56557 33.7631 8.49425 33.6299 8.3896 33.5254C8.28495 33.4209 8.15167 33.3497 8.0066 33.3209C7.86153 33.2922 7.71118 33.307 7.57456 33.3637C7.43794 33.4203 7.32118 33.5162 7.23903 33.6392C7.15688 33.7622 7.11304 33.9067 7.11304 34.0546C7.11304 34.153 7.13242 34.2503 7.17007 34.3411C7.20773 34.4319 7.26291 34.5144 7.33247 34.5839C7.40204 34.6534 7.48462 34.7085 7.57549 34.746C7.66635 34.7835 7.76372 34.8028 7.86204 34.8026V34.8026Z" fill="#3F3D56"/>
<path d="M23.8811 30.537C24.0292 30.5372 24.1742 30.4935 24.2975 30.4113C24.4208 30.3291 24.5169 30.2122 24.5738 30.0754C24.6306 29.9385 24.6456 29.7879 24.6168 29.6425C24.588 29.4972 24.5167 29.3636 24.412 29.2588C24.3073 29.1539 24.1739 29.0825 24.0285 29.0535C23.8832 29.0245 23.7326 29.0393 23.5957 29.096C23.4587 29.1526 23.3417 29.2486 23.2594 29.3718C23.177 29.495 23.1331 29.6399 23.1331 29.7881C23.1331 29.9865 23.2118 30.1769 23.3521 30.3173C23.4923 30.4578 23.6826 30.5368 23.8811 30.537V30.537Z" fill="#3F3D56"/>
<path d="M16.6201 31.2851C16.7683 31.2853 16.9132 31.2415 17.0366 31.1593C17.1599 31.0771 17.256 30.9601 17.3129 30.8232C17.3697 30.6863 17.3846 30.5356 17.3557 30.3902C17.3269 30.2448 17.2555 30.1113 17.1507 30.0065C17.0459 29.9017 16.9123 29.8303 16.7669 29.8014C16.6216 29.7726 16.4709 29.7875 16.334 29.8443C16.1971 29.9011 16.0801 29.9973 15.9979 30.1206C15.9157 30.2439 15.8719 30.3889 15.8721 30.5371C15.8721 30.7355 15.9509 30.9258 16.0911 31.066C16.2314 31.2063 16.4217 31.2851 16.6201 31.2851Z" fill="#499083"/>
</svg>
