<svg width="43" height="44" viewBox="0 0 43 44" fill="none" xmlns="http://www.w3.org/2000/svg">
<path d="M2.29797 31.6945C1.90859 31.6945 1.59709 31.4609 1.44133 31.1494C-0.66132 26.0096 -0.427693 19.8574 1.90859 14.8733C3.54399 11.5246 5.88027 8.72108 8.68381 6.92993C9.85195 6.15117 11.0201 5.60603 12.0325 5.21665C12.4997 4.98302 13.0449 5.21665 13.2006 5.68391C13.4343 6.15117 13.2006 6.6963 12.7334 6.85205C11.7989 7.31931 10.7086 7.78657 9.61833 8.48745C7.12629 10.1228 5.02364 12.6149 3.54399 15.6521C1.36346 20.2467 1.2077 25.7759 3.07673 30.5264C3.23248 30.9936 3.07673 31.5388 2.60948 31.6945C2.5316 31.6945 2.37585 31.6945 2.29797 31.6945Z" fill="white"/>
<path d="M18.7299 5.29557C18.3405 5.29557 17.9511 4.98407 17.8732 4.59469L17.3281 2.18053L14.914 2.72566C14.4467 2.80354 13.9794 2.56991 13.8237 2.02478C13.7458 1.55752 13.9794 1.09026 14.5246 0.934511L18.652 0L19.5865 4.12743C19.6644 4.59469 19.4308 5.06194 18.8856 5.2177C18.8856 5.29557 18.8078 5.29557 18.7299 5.29557Z" fill="white"/>
<path d="M19.9764 43.9993C16.8614 43.9993 13.9799 43.2984 11.4879 42.0524C10.2419 41.4294 9.2295 40.6506 8.37286 40.1055C7.98348 39.794 7.9056 39.2488 8.13923 38.8595C8.45073 38.4701 8.99587 38.3922 9.38525 38.6258C10.164 39.2488 11.1764 39.8718 12.3445 40.4949C14.9923 41.8966 18.1852 42.4418 21.6118 42.2081C26.6737 41.8187 31.5799 39.171 34.695 35.1214C35.0065 34.732 35.5516 34.6541 35.941 34.9657C36.3304 35.2772 36.4083 35.8223 36.0968 36.2117C32.6702 40.5727 27.2968 43.4541 21.6897 43.9214C21.1445 43.9214 20.5215 43.9993 19.9764 43.9993Z" fill="white"/>
<path d="M4.08939 40.1831C3.85576 40.1831 3.62213 40.1052 3.46637 39.8716L0.584961 36.7565L3.70001 33.8751C4.08939 33.5636 4.63452 33.5636 4.94602 33.953C5.25753 34.3424 5.25753 34.8875 4.86815 35.199L3.07699 36.8344L4.71239 38.6255C5.0239 39.0149 5.0239 39.5601 4.63452 39.8716C4.47876 40.1052 4.24514 40.1831 4.08939 40.1831Z" fill="white"/>
<path d="M39.3668 27.4126H39.289C38.8217 27.3347 38.4323 26.9453 38.5102 26.4002L38.5881 26.0108C38.7438 24.8427 38.8217 23.5967 38.7438 22.117C38.5881 19.1577 37.4978 16.0427 35.5509 13.2391C32.6695 9.03382 27.919 6.1524 22.8571 5.45152C22.3898 5.37364 22.0005 4.90638 22.0783 4.43912C22.1562 3.97187 22.6235 3.58249 23.0907 3.66036C28.6199 4.43912 33.8376 7.63204 36.9527 12.2267C39.0553 15.3418 40.3013 18.6905 40.4571 22.0391C40.535 23.5966 40.3792 24.9984 40.3013 26.1666L40.2235 26.5559C40.2235 27.0232 39.8341 27.4126 39.3668 27.4126Z" fill="white"/>
<path d="M41.3914 34.1875L37.3419 32.9415C36.8746 32.7858 36.641 32.3185 36.7189 31.8513C36.8746 31.384 37.3419 31.1504 37.8091 31.2282L40.1454 31.9291L40.8463 29.5928C41.002 29.1256 41.4693 28.892 41.9366 28.9698C42.4038 29.1256 42.6374 29.5928 42.5596 30.0601L41.3914 34.1875Z" fill="white"/>
<path d="M16.0817 28.9714C13.2003 28.9714 10.7861 26.6351 10.7861 23.6758V17.9909C10.7861 15.1095 13.1224 12.6953 16.0817 12.6953C19.041 12.6953 21.3773 15.0316 21.3773 17.9909V23.7537C21.3773 26.6351 19.041 28.9714 16.0817 28.9714ZM16.0817 14.4865C14.1348 14.4865 12.5773 16.044 12.5773 17.9909V23.7537C12.5773 25.7006 14.1348 27.2581 16.0817 27.2581C18.0286 27.2581 19.5861 25.7006 19.5861 23.7537V17.9909C19.5861 16.044 18.0286 14.4865 16.0817 14.4865Z" fill="#B1C3A8"/>
<path d="M29.2425 33.877H24.4921C24.2585 33.877 24.0248 33.7991 23.7912 33.5655C23.6355 33.4097 23.5576 33.0982 23.5576 32.8646C23.7133 31.4628 24.6479 30.2947 25.2709 29.5159C25.4266 29.2823 25.6602 29.0487 25.8939 28.8929C26.439 28.3478 26.9063 27.8026 27.2956 27.1796C27.685 26.5566 27.9186 25.6221 27.6071 24.9212C27.4514 24.6097 27.2178 24.3761 26.9063 24.2982C26.439 24.0646 25.816 24.1425 25.5045 24.454L25.4266 24.5319C25.3487 24.6097 25.193 24.8434 24.9594 25.5442C24.8036 26.0115 24.3363 26.323 23.8691 26.1672C23.4018 26.0115 23.0903 25.5442 23.2461 25.077C23.6355 23.831 24.1027 23.2858 24.4142 23.1301C25.3487 22.3513 26.6726 22.1956 27.7629 22.7407C28.3859 23.0522 28.931 23.5973 29.2425 24.2203C29.7877 25.3885 29.7098 26.8681 28.931 28.192C28.4638 28.9708 27.8408 29.5938 27.2956 30.2168C27.1399 30.4504 26.9063 30.6062 26.7505 30.8398C26.439 31.2292 26.0496 31.6965 25.816 32.2416H29.3204C29.7877 32.2416 30.1771 32.631 30.1771 33.0982C30.0992 33.4876 29.7098 33.877 29.2425 33.877Z" fill="#B1C3A8"/>
</svg>
