<svg width="37" height="32" viewBox="0 0 37 32" fill="none" xmlns="http://www.w3.org/2000/svg">
<path d="M36.3037 5.03677C35.9337 5.03677 27.1608 4.55015 20.8708 10.1851C20.1408 10.8399 19.5535 11.638 19.1456 12.5296C18.7377 13.4213 18.5179 14.3873 18.4999 15.3676C18.4628 17.207 19.065 19.0024 20.2039 20.4478C19.8001 21.6022 19.4748 22.7825 19.2302 23.9806C18.6333 21.2321 17.5854 18.6013 16.129 16.1948V16.1948C16.9018 15.4336 17.5108 14.5225 17.9185 13.5175C18.3262 12.5125 18.5241 11.4348 18.4999 10.3506C18.4838 9.37259 18.2667 8.40835 17.8622 7.51769C17.4577 6.62704 16.8744 5.82897 16.1485 5.17302C9.8439 -0.486293 1.07105 -0.00454575 0.696182 0.0197849C0.508472 0.0285501 0.331367 0.109305 0.201702 0.245253C0.0720381 0.381201 -0.000204291 0.561878 4.33932e-07 0.749705C4.33932e-07 1.15846 0.0584217 10.8275 5.17024 16.1461C5.86322 16.8686 6.69432 17.4447 7.61423 17.84C8.53415 18.2354 9.52414 18.4421 10.5255 18.4478H10.6034C12.1469 18.4444 13.6553 17.9875 14.9411 17.134C16.8349 20.2824 18.5291 24.8857 18.5291 31.2701C18.5291 31.4637 18.6061 31.6493 18.743 31.7862C18.88 31.9231 19.0657 32 19.2594 32C19.4531 32 19.6388 31.9231 19.7758 31.7862C19.9127 31.6493 19.9896 31.4637 19.9896 31.2701C19.9448 28.0133 20.3996 24.7688 21.3382 21.6497C22.7455 22.8202 24.517 23.4637 26.3478 23.4697H26.4257C27.427 23.464 28.417 23.2573 29.3369 22.8619C30.2568 22.4665 31.0879 21.8905 31.7809 21.168C36.9268 15.8444 36.9998 6.17544 36.9998 5.78128C37.0039 5.59095 36.9333 5.40658 36.8032 5.26749C36.6732 5.1284 36.4939 5.04561 36.3037 5.03677V5.03677ZM10.5644 16.9734C9.7555 16.9702 8.95548 16.8045 8.21195 16.4859C7.46843 16.1674 6.79659 15.7027 6.23642 15.1194C2.29302 11.0172 1.61631 3.74724 1.49947 1.45043C3.66104 1.45043 10.3161 1.88838 15.1553 6.2387C15.7385 6.76354 16.2069 7.40315 16.5311 8.11743C16.8553 8.8317 17.0283 9.60524 17.0394 10.3895C17.0766 12.0636 16.4643 13.6871 15.3306 14.9199C14.0838 13.0738 12.4919 11.4859 10.6423 10.2435C10.477 10.1557 10.2843 10.1346 10.1039 10.1847C9.92352 10.2349 9.76929 10.3523 9.67306 10.5128C9.57683 10.6733 9.54595 10.8647 9.5868 11.0473C9.62766 11.2299 9.73712 11.3899 9.89259 11.4941C11.5893 12.6834 13.0475 14.1805 14.1914 15.9077C13.1193 16.624 11.8538 16.9958 10.5644 16.9734V16.9734ZM30.7634 20.1364C30.2032 20.7197 29.5314 21.1844 28.7879 21.5029C28.0444 21.8214 27.2443 21.9872 26.4354 21.9904H26.3721C24.7015 21.9845 23.0994 21.3261 21.9078 20.1558C23.232 16.7836 24.7802 15.3238 24.8288 15.2897C24.9608 15.1576 25.0371 14.9801 25.0422 14.7935C25.0472 14.6069 24.9805 14.4255 24.8558 14.2865C24.7311 14.1476 24.5579 14.0616 24.3718 14.0464C24.1857 14.0311 24.0008 14.0877 23.8552 14.2046C23.7383 14.3067 22.2535 15.6644 20.8903 18.7885C20.2909 17.7552 19.9893 16.5762 20.0189 15.3822C20.0301 14.6026 20.2014 13.8337 20.5221 13.123C20.8429 12.4124 21.3062 11.7751 21.8835 11.2508C26.7226 6.9005 33.3777 6.47714 35.5393 6.46254C35.3884 8.77882 34.7068 16.044 30.7634 20.1558V20.1364Z" fill="#6FACD9"/>
</svg>
