<svg width="25" height="32" viewBox="0 0 25 32" fill="none" xmlns="http://www.w3.org/2000/svg">
<path d="M2.81217 0.00111319C2.72457 0.0157553 2.64482 0.0633669 2.58736 0.135365C2.52989 0.207363 2.49853 0.298952 2.499 0.393487V20.2069C1.80884 20.2995 1.17415 20.6575 0.714024 21.2137C0.253904 21.7699 0 22.4861 0 23.2277C0 23.9693 0.253904 24.6854 0.714024 25.2416C1.17415 25.7978 1.80884 26.1559 2.499 26.2485V31.5999C2.49664 31.6515 2.50414 31.7031 2.52105 31.7515C2.53795 31.7999 2.56392 31.8442 2.59735 31.8816C2.63078 31.919 2.67097 31.9488 2.71552 31.9691C2.76007 31.9895 2.80804 32 2.85651 32C2.90498 32 2.95293 31.9895 2.99748 31.9691C3.04202 31.9488 3.08224 31.919 3.11567 31.8816C3.1491 31.8442 3.17504 31.7999 3.19195 31.7515C3.20885 31.7031 3.21635 31.6515 3.214 31.5999V26.2485C3.90416 26.1559 4.53887 25.7978 4.999 25.2416C5.45912 24.6854 5.71299 23.9693 5.71299 23.2277C5.71299 22.4861 5.45912 21.7699 4.999 21.2137C4.53887 20.6575 3.90416 20.2995 3.214 20.2069V0.393487C3.21333 0.339066 3.20223 0.28534 3.18136 0.23567C3.16049 0.185999 3.13031 0.14142 3.09266 0.104659C3.05502 0.0678969 3.0107 0.0397465 2.96247 0.0219321C2.91423 0.00411773 2.86308 -0.00294572 2.81217 0.00111319V0.00111319ZM12.4557 0.00111319C12.3681 0.0157553 12.2883 0.0633669 12.2308 0.135365C12.1734 0.207363 12.142 0.298952 12.1425 0.393487V4.22297C11.4524 4.31561 10.8176 4.67365 10.3575 5.22986C9.89739 5.78606 9.64352 6.50217 9.64352 7.2438C9.64352 7.98543 9.89739 8.70154 10.3575 9.25774C10.8176 9.81395 11.4524 10.172 12.1425 10.2646V31.5999C12.1402 31.6515 12.1477 31.7031 12.1646 31.7515C12.1815 31.7999 12.2074 31.8442 12.2408 31.8816C12.2743 31.919 12.3145 31.9488 12.359 31.9691C12.4036 31.9895 12.4515 32 12.5 32C12.5485 32 12.5964 31.9895 12.641 31.9691C12.6855 31.9488 12.7257 31.919 12.7592 31.8816C12.7926 31.8442 12.8185 31.7999 12.8354 31.7515C12.8523 31.7031 12.8598 31.6515 12.8575 31.5999V10.2646C13.5476 10.172 14.1824 9.81395 14.6425 9.25774C15.1026 8.70154 15.3565 7.98543 15.3565 7.2438C15.3565 6.50217 15.1026 5.78606 14.6425 5.22986C14.1824 4.67365 13.5476 4.31561 12.8575 4.22297V0.393487C12.8568 0.339066 12.8457 0.28534 12.8248 0.23567C12.804 0.185999 12.7738 0.14142 12.7362 0.104659C12.6985 0.0678969 12.6542 0.0397465 12.606 0.0219321C12.5577 0.00411773 12.5066 -0.00294572 12.4557 0.00111319V0.00111319ZM22.0992 0.00111319C22.0116 0.0157553 21.9318 0.0633669 21.8744 0.135365C21.8169 0.207363 21.7856 0.298952 21.786 0.393487V12.9763C21.0959 13.069 20.4612 13.427 20.001 13.9832C19.5409 14.5394 19.287 15.2555 19.287 15.9972C19.287 16.7388 19.5409 17.4549 20.001 18.0111C20.4612 18.5673 21.0959 18.9253 21.786 19.0179V31.5999C21.7837 31.6515 21.7912 31.7031 21.8081 31.7515C21.825 31.7999 21.8509 31.8442 21.8844 31.8816C21.9178 31.919 21.958 31.9488 22.0026 31.9691C22.0471 31.9895 22.0951 32 22.1435 32C22.192 32 22.2399 31.9895 22.2845 31.9691C22.329 31.9488 22.3692 31.919 22.4027 31.8816C22.4361 31.8442 22.462 31.7999 22.479 31.7515C22.4959 31.7031 22.5034 31.6515 22.501 31.5999V19.0179C23.1912 18.9253 23.8259 18.5673 24.286 18.0111C24.7461 17.4549 25 16.7388 25 15.9972C25 15.2555 24.7461 14.5394 24.286 13.9832C23.8259 13.427 23.1912 13.069 22.501 12.9763V0.393487C22.5003 0.339066 22.4892 0.28534 22.4684 0.23567C22.4475 0.185999 22.4173 0.14142 22.3797 0.104659C22.342 0.0678969 22.2977 0.0397465 22.2495 0.0219321C22.2012 0.00411773 22.1501 -0.00294572 22.0992 0.00111319V0.00111319ZM12.5004 4.96097C12.9239 4.96132 13.3378 5.09553 13.6898 5.34664C14.0417 5.59775 14.316 5.95446 14.4778 6.37171C14.6396 6.78896 14.6818 7.24798 14.599 7.69078C14.5162 8.13357 14.312 8.54024 14.0125 8.85938C13.7129 9.17853 13.3313 9.39583 12.9159 9.48379C12.5005 9.57174 12.07 9.52641 11.6788 9.35354C11.2876 9.18068 10.9532 8.88805 10.7179 8.5126C10.4827 8.13716 10.3572 7.69575 10.3572 7.24424C10.3565 6.94404 10.4115 6.64664 10.519 6.36918C10.6265 6.09172 10.7843 5.83969 10.9835 5.6275C11.1827 5.41531 11.4192 5.24718 11.6796 5.13279C11.9399 5.0184 12.2189 4.96002 12.5004 4.96097V4.96097ZM22.1439 13.7134C22.5674 13.7137 22.9813 13.8479 23.3333 14.0991C23.6852 14.3502 23.9595 14.7069 24.1213 15.1241C24.2831 15.5414 24.3253 16.0005 24.2425 16.4432C24.1597 16.886 23.9556 17.2927 23.656 17.6119C23.3564 17.931 22.9748 18.1482 22.5594 18.2362C22.144 18.3242 21.7135 18.2788 21.3223 18.106C20.9311 17.9331 20.5967 17.6405 20.3615 17.265C20.1262 16.8896 20.0006 16.4482 20.0006 15.9967C20 15.6965 20.055 15.3991 20.1625 15.1217C20.27 14.8442 20.4279 14.5921 20.627 14.3799C20.8262 14.1677 21.0627 13.9996 21.3231 13.8852C21.5834 13.7708 21.8624 13.7124 22.1439 13.7134V13.7134ZM2.85607 20.9466C3.27981 20.9466 3.69402 21.0806 4.04634 21.3316C4.39867 21.5826 4.67328 21.9393 4.83544 22.3567C4.99759 22.7741 5.04001 23.2333 4.95734 23.6764C4.87467 24.1195 4.67064 24.5265 4.37101 24.846C4.07139 25.1654 3.68964 25.383 3.27405 25.4711C2.85846 25.5593 2.42767 25.514 2.03619 25.3411C1.64472 25.1682 1.31012 24.8755 1.07471 24.4999C0.839293 24.1242 0.713638 23.6826 0.713638 23.2308C0.712858 22.9306 0.767744 22.6332 0.875135 22.3557C0.982527 22.0782 1.14031 21.8261 1.3394 21.6138C1.5385 21.4015 1.77498 21.2333 2.03527 21.1188C2.29555 21.0043 2.5745 20.9458 2.85607 20.9466Z" fill="#6FACD9"/>
</svg>
