<svg width="148" height="152" viewBox="0 0 148 152" fill="none" xmlns="http://www.w3.org/2000/svg">
<path d="M120.961 42.1348C120.961 42.1348 118.205 43.7248 119.053 45.9518C120.693 46.4555 122.113 47.5022 123.08 48.9198C124.246 51.0408 133.254 58.6748 133.254 58.6748L139.825 55.3878C139.825 55.3878 137.539 52.3348 130.31 50.2038C130.31 50.2038 126.048 45.6328 124.564 44.7848C123.301 43.9885 122.097 43.1029 120.961 42.1348V42.1348Z" fill="#CBCDDA"/>
<path opacity="0.05" d="M120.961 42.1348C120.961 42.1348 118.205 43.7248 119.053 45.9518C120.693 46.4555 122.113 47.5022 123.08 48.9198C124.246 51.0408 133.254 58.6748 133.254 58.6748L139.825 55.3878C139.825 55.3878 137.539 52.3348 130.31 50.2038C130.31 50.2038 126.048 45.6328 124.564 44.7848C123.301 43.9885 122.097 43.1029 120.961 42.1348V42.1348Z" fill="black"/>
<path opacity="0.1" d="M25.6999 143.629C24.2849 143.979 22.8 143.57 21.348 143.553C19.896 143.536 18.1909 144.153 17.8329 145.562C17.3539 147.462 19.572 148.892 21.472 149.362C28.844 151.198 36.6479 148.815 44.1829 149.787C47.3579 150.196 50.446 151.198 53.638 151.437C60.946 151.984 68.085 148.508 75.403 148.9C79.068 149.1 82.6319 150.261 86.3029 150.447C95.0749 150.895 103.73 145.747 112.317 147.589C114.742 148.11 117.017 149.173 119.417 149.789C125.491 151.345 131.886 149.958 138.001 148.571C139.215 148.295 140.679 147.759 140.829 146.522C140.994 145.157 139.429 144.302 138.129 143.866C123.881 139.099 108.629 136.573 93.765 138.776C90.383 139.276 87.0109 140.023 83.5919 139.976C76.0259 139.867 69.073 135.918 61.645 134.476C47.57 131.739 33.497 138.124 20.576 144.343" fill="#499083"/>
<path d="M45.2049 103.176H40.8999V139.622C40.8999 139.622 68.712 148.635 95.74 139.622V103.176H45.2049Z" fill="#C9D8E4"/>
<path d="M67.9239 107.486C82.8519 107.486 94.9519 105.643 94.9519 103.371C94.9519 101.099 82.8519 99.2559 67.9239 99.2559C52.9959 99.2559 40.8999 101.099 40.8999 103.371C40.8999 105.643 52.9999 107.486 67.9239 107.486Z" fill="#6FACD9"/>
<path d="M99.3429 59.6295C92.5249 84.8455 69.1699 100.462 69.1699 100.462C69.1699 100.462 56.8699 75.1965 63.6889 49.9805C70.5079 24.7645 93.8619 9.14648 93.8619 9.14648C93.8619 9.14648 106.161 34.4135 99.3429 59.6295Z" fill="#C9D8E4"/>
<path d="M37.315 59.6295C44.133 84.8455 67.488 100.462 67.488 100.462C67.488 100.462 79.7879 75.1965 72.9689 49.9805C66.1499 24.7645 42.8 9.14648 42.8 9.14648C42.8 9.14648 30.5 34.4135 37.315 59.6295Z" fill="#B1C3A8"/>
<path d="M47.3339 54.211C66.0439 72.432 68.3289 100.443 68.3289 100.443C68.3289 100.443 40.28 98.911 21.57 80.689C2.85995 62.467 0.569946 34.457 0.569946 34.457C0.569946 34.457 28.6239 35.99 47.3339 54.211Z" fill="#C9D8E4"/>
<path d="M89.324 54.211C70.614 72.432 68.324 100.443 68.324 100.443C68.324 100.443 96.3729 98.911 115.083 80.689C133.793 62.467 136.077 34.457 136.077 34.457C136.077 34.457 108.033 35.99 89.324 54.211Z" fill="#C9D8E4"/>
<path d="M68.3159 17.7421C70.0214 17.7428 71.6888 17.2378 73.1073 16.2908C74.5257 15.3439 75.6314 13.9975 76.2846 12.4221C76.9377 10.8466 77.109 9.11284 76.7767 7.44005C76.4444 5.76725 75.6234 4.2306 74.4177 3.02443C73.2119 1.81826 71.6756 0.996789 70.0029 0.663896C68.3302 0.331002 66.5964 0.501638 65.0207 1.15425C63.445 1.80687 62.0983 2.91212 61.1508 4.33022C60.2034 5.74832 59.6977 7.41557 59.6979 9.12105C59.6977 11.407 60.6055 13.5995 62.2216 15.2162C63.8378 16.833 66.0299 17.7415 68.3159 17.7421V17.7421Z" fill="#B1C3A8"/>
<path d="M16.7109 70.1779C17.206 71.6351 18.1667 72.8888 19.4449 73.7459C20.1921 72.3818 20.379 70.7805 19.9659 69.281C19.5528 67.7816 18.5723 66.5019 17.2319 65.7129C16.5734 67.1038 16.3903 68.6727 16.7109 70.1779Z" fill="#B1C3A8"/>
<path d="M28.1479 82.5305C27.7955 84.0289 27.9455 85.6017 28.5749 87.0065C29.9317 86.2459 30.9392 84.9871 31.3838 83.4966C31.8284 82.0061 31.6753 80.4011 30.957 79.0215C29.661 79.8513 28.6739 81.0843 28.1479 82.5305V82.5305Z" fill="#B1C3A8"/>
<path d="M110.644 96.7156C109.63 97.8736 109.025 99.3329 108.923 100.869C110.478 100.834 111.958 100.194 113.049 99.0863C114.141 97.9783 114.757 96.4888 114.769 94.9336C113.236 95.0587 111.786 95.6849 110.644 96.7156V96.7156Z" fill="#B1C3A8"/>
<path d="M138.129 132.574C138.129 132.574 138.447 137.239 138.977 137.774C139.507 138.309 134.208 138.622 134.208 138.622L134.95 132.579L138.129 132.574Z" fill="#FFB9B9"/>
<path opacity="0.05" d="M138.129 132.574C138.129 132.574 138.447 137.239 138.977 137.774C139.507 138.309 134.208 138.622 134.208 138.622L134.95 132.579L138.129 132.574Z" fill="black"/>
<path d="M139.3 136.18C139.3 136.18 138.558 136.18 135.909 137.558C135.909 137.558 134.109 137.24 133.365 134.695C133.365 134.695 131.14 138.512 129.656 138.724C128.172 138.936 125.311 139.148 127.218 141.693C129.125 144.238 140.36 143.071 140.36 143.071C140.36 143.071 140.673 136.922 139.3 136.18Z" fill="#CBCDDA"/>
<path opacity="0.05" d="M139.3 136.18C139.3 136.18 138.558 136.18 135.909 137.558C135.909 137.558 134.109 137.24 133.365 134.695C133.365 134.695 131.14 138.512 129.656 138.724C128.172 138.936 125.311 139.148 127.218 141.693C129.125 144.238 140.36 143.071 140.36 143.071C140.36 143.071 140.673 136.922 139.3 136.18Z" fill="black"/>
<path d="M137.705 139.785L136.963 141.8L132.088 140.422L132.366 138.422L132.433 137.94L132.618 136.605C132.618 136.605 136.751 135.544 136.751 136.075C136.807 136.511 136.898 136.943 137.023 137.366C137.192 138.018 137.405 138.761 137.548 139.25C137.642 139.573 137.705 139.785 137.705 139.785Z" fill="#FFB9B9"/>
<path d="M135.045 112.133C134.779 112.579 134.639 113.088 134.637 113.607C134.635 114.126 134.773 114.636 135.036 115.084C135.244 115.467 135.5 115.822 135.798 116.141C138.129 118.685 138.765 124.411 138.765 124.411V133.635L137.175 133.757L134.632 133.957L130.817 118.265C130.817 118.265 128.591 106.814 129.651 104.8C130.711 102.786 131.664 90.1678 131.664 90.1678L132.544 89.2567L134.632 87.0938H140.673C141.156 87.4406 141.557 87.8891 141.848 88.4077C142.862 90.0877 143.772 93.5797 140.99 100.029C136.645 110.101 135.374 111.692 135.374 111.692C135.248 111.826 135.138 111.974 135.045 112.133V112.133Z" fill="#4C4C78"/>
<path opacity="0.05" d="M135.045 112.133C134.779 112.579 134.639 113.088 134.637 113.607C134.635 114.126 134.773 114.636 135.036 115.084C135.244 115.467 135.5 115.822 135.798 116.141C138.129 118.685 138.765 124.411 138.765 124.411V133.635L137.175 133.757L134.632 133.957L130.817 118.265C130.817 118.265 128.591 106.814 129.651 104.8C130.711 102.786 131.664 90.1678 131.664 90.1678L132.544 89.2567L134.632 87.0938H140.673C141.156 87.4406 141.557 87.8891 141.848 88.4077C142.862 90.0877 143.772 93.5797 140.99 100.029C136.645 110.101 135.374 111.692 135.374 111.692C135.248 111.826 135.138 111.974 135.045 112.133V112.133Z" fill="black"/>
<path opacity="0.1" d="M137.023 137.366L132.433 137.94L132.618 136.605C132.618 136.605 136.751 135.544 136.751 136.075C136.807 136.511 136.898 136.943 137.023 137.366V137.366Z" fill="black"/>
<path d="M134.738 98.5394C134.738 98.5394 135.002 106.886 135.045 112.132C135.055 113.318 135.054 114.347 135.036 115.083C135.042 115.473 135.013 115.862 134.95 116.246C134.838 117.282 134.946 118.33 135.268 119.321C136.858 123.511 137.509 127.999 137.175 132.468V137.133L132.088 137.769C132.088 137.769 132.936 137.133 130.605 130.983C129.514 128.005 128.961 124.856 128.971 121.683C128.958 120.421 128.706 119.172 128.227 118.003C128.08 117.609 127.989 117.197 127.955 116.777C127.729 115.152 127.338 113.553 126.79 112.006C125.363 107.757 124.299 103.395 123.61 98.9654C123.316 96.3409 123.366 93.6892 123.757 91.0774C123.851 90.4137 123.979 89.7551 124.14 89.1044C124.14 89.1044 134.5 82.5814 138.412 87.0904C138.788 87.5315 139.087 88.0333 139.295 88.5744C139.51 89.1093 139.677 89.6621 139.795 90.2264C141.013 96.2084 134.738 98.5394 134.738 98.5394Z" fill="#4C4C78"/>
<path d="M134.42 52.0992C135.49 52.1008 136.536 51.7849 137.427 51.1916C138.317 50.5983 139.012 49.7542 139.422 48.7661C139.833 47.778 139.941 46.6903 139.733 45.6407C139.525 44.5911 139.011 43.6267 138.254 42.8696C137.498 42.1126 136.535 41.5968 135.485 41.3876C134.436 41.1784 133.348 41.2851 132.36 41.6944C131.371 42.1036 130.526 42.7969 129.931 43.6866C129.337 44.5762 129.02 45.6222 129.02 46.6922C129.02 48.1251 129.588 49.4995 130.601 50.5133C131.613 51.5272 132.987 52.0976 134.42 52.0992V52.0992Z" fill="#FFB9B9"/>
<path d="M131.453 50.0873C131.453 50.0873 133.678 56.3423 131.453 59.6293C129.228 62.9163 138.553 61.8553 138.553 61.8553L142.153 57.5083C142.153 57.5083 137.914 57.5083 137.702 50.0873C137.49 42.6663 131.453 50.0873 131.453 50.0873Z" fill="#FFB9B9"/>
<path opacity="0.1" d="M142.156 89.6344C141.388 89.9004 140.598 90.0985 139.795 90.2264C138.476 90.4264 136.919 90.4374 136.01 89.6344C135.47 89.1584 134.141 89.1004 132.544 89.2534C129.573 89.639 126.636 90.2487 123.758 91.0774C123.851 90.4136 123.979 89.7551 124.14 89.1044C124.14 89.1044 134.5 82.5814 138.412 87.0904H140.673C141.156 87.437 141.557 87.8856 141.848 88.4044C142.043 89.2484 142.156 89.6344 142.156 89.6344Z" fill="black"/>
<path opacity="0.1" d="M137.705 139.785L136.963 141.8L132.088 140.422L132.366 138.422C132.553 138.926 132.855 139.379 133.248 139.744C133.642 140.11 134.116 140.379 134.632 140.528C135.563 140.013 136.539 139.585 137.548 139.25C137.642 139.573 137.705 139.785 137.705 139.785Z" fill="black"/>
<path d="M138.023 139.254C138.023 139.254 137.281 139.254 134.632 140.633C134.632 140.633 132.832 140.315 132.088 137.77C132.088 137.77 129.863 141.587 128.379 141.799C126.895 142.011 124.034 142.223 125.942 144.768C127.85 147.313 139.083 146.146 139.083 146.146C139.083 146.146 139.4 139.999 138.023 139.254Z" fill="#CBCDDA"/>
<path d="M112.88 47.7285C112.901 47.1733 113.039 46.6287 113.286 46.131C113.533 45.6333 113.883 45.1937 114.313 44.8415C114.743 44.4893 115.242 44.2324 115.779 44.088C116.315 43.9435 116.876 43.9147 117.425 44.0035C117.546 44.0155 117.663 44.0567 117.765 44.1235C117.866 44.1912 117.95 44.2827 118.008 44.3901C118.066 44.4975 118.096 44.6175 118.097 44.7395C118.097 44.8615 118.067 44.9817 118.01 45.0895L117.121 46.7645L112.88 47.7285Z" fill="#FFB9B9"/>
<path d="M137.917 58.7803C137.917 58.7803 132.724 57.9313 131.347 56.8713C131.221 57.1347 131.043 57.3696 130.823 57.5616C130.603 57.7536 130.346 57.8987 130.069 57.9881C129.791 58.0774 129.497 58.109 129.207 58.081C128.916 58.053 128.635 57.966 128.379 57.8253C126.472 56.7653 122.021 56.8713 122.021 56.8713C120.854 56.1559 119.853 55.1994 119.085 54.0658C118.317 52.9323 117.801 51.6477 117.57 50.2983C117.57 50.2983 116.828 47.5413 117.04 46.7983C117.04 46.7983 114.284 43.9353 112.906 47.7523C113.436 50.4033 113.86 50.1913 113.754 52.3113L115.454 56.9763C115.454 56.9763 115.56 58.5673 118.633 60.6873C120.932 62.3529 123.125 64.1601 125.2 66.0983C125.2 66.0983 123.345 67.1063 124.034 71.7183C124.876 77.3553 123.61 85.3953 123.61 85.3953V90.5903C123.61 90.5903 134.21 87.5163 136.01 89.1063C137.81 90.6963 142.156 89.1063 142.156 89.1063C141.628 87.0796 141.204 85.0273 140.885 82.9574C140.456 80.1074 140.492 77.2068 140.991 74.3683C140.991 74.3683 143.746 67.0533 145.018 64.0843C146.29 61.1153 144.064 57.0843 141.838 55.6023C139.612 54.1203 138.784 55.0093 138.784 55.0093C138.784 55.0093 142.686 57.8253 137.917 58.7803Z" fill="#CBCDDA"/>
<path opacity="0.1" d="M128.575 45.3709C128.573 45.5916 128.61 45.811 128.684 46.0189C128.809 46.2555 128.979 46.4654 129.184 46.6369C130.013 47.3842 130.625 48.3421 130.954 49.4089C131.11 50.1454 131.166 50.8995 131.121 51.6509C131.075 54.6949 130.947 57.9809 129.068 60.3749C128.334 61.2194 127.526 61.9974 126.655 62.6999C126.538 62.7854 126.45 62.9038 126.401 63.0399C126.378 63.1848 126.406 63.3332 126.48 63.4599C126.951 64.2257 127.639 64.8341 128.457 65.2079C128.794 65.4418 129.183 65.5891 129.591 65.6369C130.555 65.6679 131.191 64.6499 132.069 64.2489C133.345 63.6659 134.778 64.4779 136.045 65.0809C136.963 65.5177 137.925 65.853 138.916 66.0809C139.58 66.2938 140.281 66.3676 140.974 66.2977C141.668 66.2279 142.34 66.0158 142.948 65.6749C143.608 65.209 144.059 64.5028 144.204 63.7079C144.296 63.1899 144.281 62.5889 144.673 62.2379C144.873 62.0569 145.151 61.9819 145.373 61.8219C145.687 61.539 145.911 61.1701 146.018 60.7609L147.323 57.1899C147.492 56.8125 147.579 56.4034 147.578 55.9899C147.491 55.567 147.292 55.1753 147.002 54.856C146.711 54.5368 146.34 54.3018 145.927 54.1759C145.1 53.9338 144.302 53.5983 143.551 53.1759C142.368 52.3259 142.003 50.7369 141.897 49.2829C141.824 48.2839 141.831 47.2807 141.918 46.2829C142.047 44.8039 142.336 43.2289 141.678 41.8979C140.978 40.4759 139.4 39.7509 137.941 39.1309C137.393 38.8163 136.775 38.6418 136.143 38.6228C135.511 38.6038 134.884 38.7409 134.318 39.0219C133.355 39.4082 132.371 39.742 131.372 40.0219C130.795 40.062 130.222 40.1405 129.656 40.2569C127.662 41.0059 128.575 43.7709 128.575 45.3709Z" fill="black"/>
<path d="M128.575 45.1588C128.573 45.3795 128.61 45.5989 128.684 45.8068C128.809 46.0432 128.979 46.2531 129.184 46.4248C130.013 47.1721 130.625 48.13 130.954 49.1968C131.11 49.9333 131.166 50.6873 131.121 51.4388C131.075 54.4828 130.947 57.7688 129.068 60.1628C128.334 61.0073 127.526 61.7853 126.655 62.4878C126.538 62.5733 126.45 62.6917 126.401 62.8278C126.378 62.9724 126.406 63.1205 126.48 63.2468C126.949 64.0138 127.637 64.6237 128.454 64.9988C128.791 65.2327 129.18 65.38 129.588 65.4278C130.552 65.4588 131.188 64.4408 132.066 64.0398C133.342 63.4568 134.775 64.2688 136.042 64.8718C136.96 65.3082 137.923 65.6435 138.913 65.8718C139.577 66.0846 140.278 66.1584 140.971 66.0886C141.665 66.0187 142.337 65.8067 142.945 65.4658C143.605 64.9997 144.055 64.2935 144.2 63.4988C144.292 62.9808 144.277 62.3798 144.669 62.0288C144.869 61.8478 145.147 61.7728 145.369 61.6128C145.683 61.3299 145.907 60.961 146.014 60.5518L147.319 56.9808C147.488 56.6033 147.575 56.1943 147.574 55.7808C147.487 55.3579 147.288 54.9662 146.998 54.6469C146.707 54.3277 146.336 54.0927 145.923 53.9668C145.096 53.7246 144.298 53.3891 143.547 52.9668C142.364 52.1168 141.999 50.5278 141.893 49.0738C141.82 48.0748 141.827 47.0716 141.914 46.0738C142.043 44.5948 142.332 43.0198 141.674 41.6888C140.974 40.2668 139.396 39.5408 137.937 38.9218C137.389 38.6073 136.771 38.4329 136.139 38.4138C135.507 38.3948 134.88 38.5318 134.314 38.8128C133.351 39.1991 132.367 39.5329 131.368 39.8128C130.791 39.8529 130.218 39.9314 129.652 40.0478C127.662 40.7988 128.575 43.5588 128.575 45.1588Z" fill="#B96B6B"/>
<path opacity="0.05" d="M124.3 74.0989C124.3 74.0989 125.146 73.8989 129.385 73.2579C133.624 72.6169 141.043 74.1059 141.043 74.1059" fill="black"/>
<path d="M7.81895 91.5285C8.31417 92.9853 9.27489 94.2387 10.5529 95.0955C11.3001 93.7314 11.487 92.1301 11.0739 90.6307C10.6608 89.1312 9.68026 87.8515 8.33994 87.0625C7.68134 88.4538 7.49828 90.023 7.81895 91.5285Z" fill="#B1C3A8"/>
</svg>
