<svg width="29" height="60" viewBox="0 0 29 60" fill="none" xmlns="http://www.w3.org/2000/svg">
<path d="M8.90141 11.5327C9.63218 9.80651 11.0315 10.0612 11.2551 10.1147L11.2771 10.2016L9.81445 12.2581L11.8545 11.5053L12.0453 12.8538L12.7211 11.7714L14.1272 13.0363L13.5261 11.3114L13.8855 11.1523C14.1929 11.53 15.2837 13.0818 14.2517 15.0326C13.3676 16.704 11.2013 16.129 10.1841 15.3455C9.33104 14.6883 8.1061 13.4127 8.90141 11.5327Z" fill="#E4C3C3"/>
<path d="M7.02707 21.9558C8.01732 19.8787 9.61439 20.0975 10.0553 20.2043L8.40429 21.748L10.5791 21.5823L10.2805 23.2581L11.6666 22.0885L12.9691 24.4096L12.8986 22.161L14.0074 22.5507C14.0263 22.572 14.0459 22.5927 14.0631 22.6134C14.85 23.574 14.85 24.9391 14.2948 26.3546C13.7395 27.7702 10.8695 28.7307 9.15689 27.8712C7.44367 27.0109 5.87031 24.3824 7.02707 21.9558Z" fill="#E4C3C3"/>
<path d="M18.922 17.0125L19.0034 16.994L18.6243 19.3418L20.5591 17.9165L21.7885 18.8422L22.0117 17.475L24.529 17.4137L22.7838 16.1756L22.8481 16.1245L22.8958 16.1136C22.8958 16.1136 26.2246 16.014 26.7213 19.1578C27.2181 22.3016 23.7633 23.93 23.194 24.0482C21.7529 24.3478 17.3816 24.3478 16.785 20.9044C16.1897 17.4616 18.922 17.0125 18.922 17.0125Z" fill="#E4C3C3"/>
<path d="M22.0443 9.82701L22.2943 9.77604V9.57831H23.2542L21.9797 8.99897L21.5223 8.79103L21.9641 8.55159L22.4342 8.29676L21.4564 7.67882L21.6413 7.22309L21.6413 7.22282L21.6414 7.22283L21.6414 7.22284L21.6422 7.22301L21.6459 7.22376L21.6611 7.22683C21.6745 7.22952 21.6944 7.23341 21.7194 7.23809C21.7696 7.24745 21.8397 7.25985 21.9197 7.27197C22.0314 7.28891 22.1552 7.30416 22.2677 7.31096C22.2176 7.273 22.1573 7.2302 22.0853 7.18226L22.0853 7.18221C21.8212 7.00615 21.536 6.99597 21.2288 7.09974C20.913 7.20641 20.5891 7.43025 20.2898 7.69771C19.9931 7.96283 19.7351 8.25759 19.5503 8.48793C19.4583 8.60267 19.3852 8.70041 19.3354 8.76907C19.3227 8.78653 19.3116 8.80209 19.302 8.81556C19.305 8.93891 19.3305 9.09701 19.3747 9.27781C19.4264 9.48909 19.4992 9.71457 19.5745 9.92341C19.591 9.96898 19.6075 10.0136 19.6238 10.0569L19.8723 9.2923L20.0868 8.63251L20.3425 9.27742L20.7586 10.3269L20.7802 10.206L20.8451 9.84186L21.1588 10.0379L22.4578 10.8499L22.1296 10.0783H22.0443V9.82831V9.82701Z" stroke="#D0D9CB" stroke-width="0.5"/>
<path d="M12.1652 5.372C12.0967 5.36796 12.0298 5.36498 11.9663 5.36281L12.4585 6.05662C12.7847 6.51649 13.184 6.59851 13.512 6.57302C13.6381 6.56323 13.7541 6.53703 13.8504 6.50765C13.7912 6.42072 13.7198 6.31839 13.6422 6.2122C13.5367 6.06779 13.4215 5.91901 13.3111 5.79298C13.1966 5.66235 13.1017 5.57319 13.0368 5.53201L13.0365 5.53179C12.9835 5.49806 12.871 5.46035 12.6992 5.42979C12.5359 5.40074 12.3474 5.38274 12.1652 5.372Z" stroke="#D0D9CB" stroke-width="0.5"/>
<path d="M12.9952 1.57446L12.9952 1.57448C13.2389 2.16651 13.6633 2.57867 14.0351 2.84532C14.2025 2.96539 14.357 3.05433 14.4755 3.11545C14.5086 3.00879 14.5438 2.86926 14.5668 2.70523C14.6225 2.3079 14.6062 1.7719 14.3205 1.20634C14.0702 0.711066 13.574 0.465737 13.0974 0.347674C12.8897 0.296218 12.6944 0.271308 12.5409 0.25964C12.5525 0.302136 12.5657 0.348594 12.5803 0.398749C12.6642 0.686317 12.7977 1.09482 12.9952 1.57446ZM14.39 3.34267L14.3902 3.34227L14.3902 3.34243L14.39 3.34267Z" stroke="#D0D9CB" stroke-width="0.5"/>
<path d="M16.749 2.51826L16.749 2.5183C15.8781 3.20511 15.4135 3.27297 15.2046 3.23889C15.1044 3.22255 15.0483 3.18108 15.018 3.15075C15.0169 3.14963 15.0158 3.14852 15.0148 3.14742C15.0212 3.10616 15.0311 3.05078 15.0457 2.98416C15.0806 2.82485 15.1422 2.60304 15.2484 2.35672C15.461 1.86389 15.8474 1.2824 16.5486 0.896666L16.749 2.51826ZM16.749 2.51826C16.8538 2.43563 16.9661 2.28117 17.076 2.06822C17.1834 1.86033 17.2775 1.61894 17.3557 1.38562C17.4335 1.15319 17.4938 0.933985 17.5347 0.772592C17.5378 0.760536 17.5407 0.748811 17.5435 0.737436M16.749 2.51826L17.5435 0.737436M17.5435 0.737436C17.4987 0.728832 17.4476 0.721227 17.3912 0.716396C17.1683 0.697295 16.8669 0.721587 16.5486 0.89666L17.5435 0.737436Z" stroke="#D0D9CB" stroke-width="0.5"/>
<path d="M19.6968 2.51231C19.6033 2.54491 19.5038 2.58248 19.4007 2.62552C18.8606 2.85094 18.2535 3.21379 17.8881 3.76959C17.5295 4.31503 17.5484 4.80069 17.6505 5.15217C17.6973 5.31343 17.7624 5.44795 17.8197 5.54683C17.9013 5.49876 18.0005 5.44457 18.0984 5.40208L18.1673 5.51123L18.1869 5.51536C18.2301 5.52431 18.2929 5.53693 18.3702 5.55147C18.5251 5.5806 18.7372 5.61719 18.9669 5.6473C19.1973 5.6775 19.4412 5.70059 19.6607 5.70387C19.8865 5.70725 20.0612 5.68894 20.1675 5.65169C20.5016 5.53376 21.0251 5.47055 21.4409 5.4355C21.5269 5.42826 21.6097 5.42211 21.6871 5.41691C21.4922 5.23951 21.206 5.026 20.8156 4.84579C20.4294 4.66752 20.0554 4.70222 19.7674 4.78782C19.6236 4.83056 19.5047 4.88512 19.4224 4.92872C19.3814 4.95043 19.35 4.96915 19.3296 4.98189C19.3221 4.98657 19.3161 4.99042 19.3117 4.99331L18.9049 5.34755L18.5156 5.05024C18.6663 4.73828 18.8046 4.31038 18.8412 4.05503C18.8412 4.05499 18.8412 4.05495 18.8412 4.0549L19.6968 2.51231ZM19.3028 4.99926L19.3028 4.99925L19.3028 4.99926Z" stroke="#D0D9CB" stroke-width="0.5"/>
<mask id="path-9-inside-1" fill="white">
<path d="M0.0613769 54.1063C0.269245 53.8137 0.406737 53.4651 0.552049 53.0956C0.707787 52.7007 0.869391 52.2915 1.13069 51.924C1.20954 51.8125 1.3327 51.6724 1.4754 51.5095C1.96738 50.9485 2.24432 50.5614 2.31079 50.3483C2.11465 50.3529 1.91981 50.3529 1.72758 50.3503C1.3125 50.3457 0.918917 50.3405 0.537716 50.4018C0.520122 50.4044 0.501876 50.4057 0.484934 50.4057C0.324634 50.4057 0.183233 50.2897 0.157168 50.1261C0.128496 49.945 0.251651 49.7749 0.432803 49.7456C0.870695 49.6752 1.31054 49.6811 1.7354 49.6856C2.23259 49.6915 2.70046 49.6974 3.15334 49.5918C4.52045 49.2732 5.72726 48.1954 6.22836 46.8459C6.32805 46.5767 6.3261 46.2907 6.32479 45.989C6.32349 45.7563 6.32219 45.5152 6.3652 45.2637C6.38475 45.1464 6.39322 45.0682 6.39908 45.0148C6.42124 44.8089 6.46881 44.6916 6.67863 44.5847C6.72033 44.5632 6.78549 44.53 6.8891 44.459C7.44755 44.0764 8.06007 43.7669 8.65305 43.4672C9.11375 43.2346 9.59009 42.9941 10.0267 42.725C10.9683 42.1444 11.917 41.5032 12.6429 40.6007C12.0467 40.9669 11.3566 41.1617 10.7839 41.2868C9.78427 41.5045 8.92282 42.0199 7.98122 42.6207C7.7297 42.781 7.43712 42.9276 7.12694 43.0834C6.4082 43.4437 5.59432 43.8523 5.32455 44.4629C5.10104 44.9685 5.01698 45.5042 4.92771 46.0717C4.82541 46.7188 4.72049 47.388 4.39533 48.0351C4.33669 48.1511 4.22005 48.2182 4.09819 48.2182C4.04802 48.2182 3.99719 48.2071 3.94962 48.183C3.78541 48.1009 3.7196 47.9008 3.8017 47.7373C4.07994 47.1827 4.17313 46.593 4.27152 45.9688C4.3634 45.3843 4.45854 44.7796 4.71724 44.195C5.08345 43.3662 6.01136 42.9009 6.8298 42.4904C7.12369 42.3431 7.40128 42.2037 7.62413 42.0616C8.62047 41.4256 9.536 40.8802 10.6425 40.6391C11.6355 40.4228 12.8254 40.037 13.2177 38.9677C13.2542 38.868 13.3343 38.8015 13.4282 38.7716L14.126 33.8394C14.126 33.8394 14.2785 32.7193 14.9914 31.04C15.7043 29.3608 15.8568 25.3905 15.8059 23.7106C15.7551 22.0307 14.8396 20.6564 14.8396 20.6564C14.8396 20.6564 13.4653 18.824 12.4983 18.6201C11.5313 18.4161 12.0402 20.096 12.0402 20.096L13.7201 20.1977L13.1095 20.6558L14.0257 21.8261L12.6006 21.368L12.6514 22.8439L11.6844 21.2663L10.5643 22.1317L10.8673 20.7502L8.98603 21.0122L10.4835 19.9194L9.64678 18.925L11.53 19.8412C11.53 19.8412 11.0719 18.7217 12.192 18.0597C13.3122 17.3976 14.6858 19.434 14.33 18.7719C13.9736 18.1099 14.4825 15.6167 14.4825 15.6167L15.297 12.4101C15.297 12.4101 14.8389 10.2213 13.9736 9.96716C13.1082 9.71237 12.7016 10.8833 12.7016 10.8833L14.1775 11.2398L12.9557 11.6979L13.3122 12.5632L12.3999 11.8686L11.8871 12.5632L11.7346 11.647L10.1055 12.156L11.1742 10.8833L10.8686 9.8655L12.0226 10.7967C12.0226 10.7967 12.9042 9.50972 13.668 9.15328C14.431 8.79684 15.297 9.71303 15.297 9.71303L14.5841 7.93148C14.5841 7.93148 14.33 5.48854 14.3808 4.36905C14.4317 3.24891 14.8389 3.65617 14.8389 3.65617C14.8389 3.65617 14.8389 4.87797 14.8389 6.30307C14.8389 7.72818 16.1109 9.20411 16.4165 10.4259C16.7221 11.6477 15.7043 14.7012 15.7043 14.7012C15.7043 14.7012 16.7729 12.7164 17.5366 11.0873C18.3004 9.45824 17.9439 5.99746 17.9439 5.99746C17.9439 5.99746 18.9116 8.03314 19.0126 9.35659C19.1142 10.68 17.8931 11.647 16.8244 14.0392C15.7558 16.4313 15.8059 18.9765 15.8059 18.9765L16.3657 16.8894C16.3657 16.8894 17.2819 14.9553 18.3004 14.3956C19.3182 13.8359 19.2674 14.0906 20.3875 14.6504C21.5077 15.2101 21.3545 16.8392 21.3545 16.8392L23.6945 16.0748L22.6258 17.0927L23.8985 17.9072L22.0472 17.9522L21.8621 19.0775L20.8443 18.3138L19.3175 19.434L19.6225 17.5508L18.5024 16.5838L20.2331 16.9402C20.2331 16.9402 20.2331 16.0748 20.1314 15.2095C20.0298 14.3441 18.4522 14.853 17.6885 16.1765C16.9254 17.4999 16.6198 19.434 16.5683 20.6551C16.5175 21.8763 17.7901 23.8109 17.7901 24.9812C17.7901 25.483 17.5282 26.9107 17.2291 28.3782L17.9674 27.1603L19.1475 25.8896C19.1475 25.8896 19.0699 26.7713 19.0048 26.94C18.9396 27.1088 20.7166 26.4344 20.7166 26.4344C20.7166 26.4344 20.7296 26.9791 20.379 27.3421C20.0291 27.705 21.4555 27.6014 21.4555 27.6014L20.7941 28.2889L21.8185 28.8336C21.8185 28.8336 19.1084 29.3914 18.6542 29.4169C18.2736 29.4384 17.4024 29.0871 17.1157 28.9275C16.7475 30.696 16.365 32.3622 16.365 32.3622C16.365 32.3622 17.4343 31.0896 18.4522 30.3265C19.1794 29.7811 21.5142 29.4182 22.79 29.2546C22.7829 29.2259 22.7783 29.2064 22.7783 29.2064L22.8291 29.0031C22.8291 29.0031 23.0331 27.5271 24.0001 27.5271C24.9665 27.5271 26.6972 27.9344 26.6972 27.9344C26.6972 27.9344 25.2721 28.5965 25.5262 28.5965C25.781 28.5965 28.7837 30.4797 28.7837 30.4797L26.4424 30.378V31.0909L25.119 30.378L24.4061 31.2434L23.7955 30.3272C23.7955 30.3272 22.8793 31.2942 23.0318 31.0394C23.1517 30.8393 22.9269 29.8248 22.8246 29.398C22.7503 29.4208 22.6793 29.4429 22.6245 29.4612C22.3196 29.5628 18.4001 31.65 17.1783 32.8203C16.1559 33.7997 15.6333 37.5569 15.4892 38.7585C15.4919 38.7625 15.4958 38.7638 15.4984 38.7677L18.6223 43.3212C18.6346 43.3395 18.6457 43.3597 18.6542 43.3799C18.6542 43.3799 18.6542 43.3799 18.6548 43.3805C18.6731 43.4242 19.126 44.4576 20.3152 44.7659C20.6097 44.8421 21.0274 44.962 21.5572 45.1217C21.5937 45.1269 21.6269 45.136 21.6569 45.1516C21.782 45.1894 21.911 45.2292 22.0478 45.2709L22.169 45.3067C22.5098 45.4064 22.6519 45.4827 22.7868 45.8938C22.8917 46.2138 22.8578 46.6289 22.8272 46.9951C22.8148 47.1417 22.8031 47.2811 22.8031 47.3991V48.9584C23.6228 49.1109 24.3904 50.1691 24.5709 50.7999L24.6198 50.9739C24.7795 51.5486 24.8283 51.722 25.3666 51.9585L25.4617 52.0002C26.0273 52.2491 26.7317 52.5593 27.3065 52.6479C27.4876 52.6759 27.6121 52.8454 27.5841 53.0272C27.5586 53.1914 27.4172 53.3087 27.2563 53.3087C27.2393 53.3087 27.2224 53.3074 27.2055 53.3048C26.5441 53.2025 25.7953 52.8734 25.1939 52.6088L25.0988 52.5671C24.2725 52.2035 24.1559 51.7852 23.9793 51.1524L23.9317 50.983C23.8007 50.5249 23.2553 49.8199 22.8031 49.6446V50.0649C22.8031 50.1815 22.7979 50.3021 22.792 50.4246C22.7868 50.5373 22.7835 50.6474 22.7829 50.755C22.8083 50.7986 22.8265 50.8468 22.8285 50.9009C22.8324 50.9954 22.8259 51.0782 22.8213 51.1629C22.8448 51.2704 22.878 51.372 22.9373 51.4568C23.037 51.5988 23.2071 51.7154 23.3882 51.8386C23.6359 52.0074 23.9167 52.1996 24.0868 52.5124C24.1741 52.6733 24.1141 52.8753 23.9532 52.9627C23.903 52.99 23.8489 53.0031 23.7955 53.0031C23.6776 53.0031 23.5635 52.9398 23.5029 52.8291C23.4097 52.657 23.2175 52.5261 23.0136 52.3873C22.8663 52.2869 22.7079 52.1761 22.5665 52.038C22.3509 52.3879 22.0335 52.6212 21.7188 52.846C21.5044 52.9985 21.2828 53.1562 21.0776 53.3601C20.4559 53.9772 20.0141 54.8367 19.9522 55.5503C19.9372 55.7236 19.7926 55.8539 19.6218 55.8539C19.6127 55.8539 19.603 55.8533 19.5932 55.8526C19.4101 55.837 19.2752 55.676 19.2908 55.4929C19.3814 54.449 20.0317 53.4631 20.6104 52.889C20.8541 52.6473 21.1089 52.4655 21.3337 52.3058C21.7931 51.9787 22.0948 51.7591 22.1547 51.2306C22.1065 50.9504 22.1169 50.6631 22.1293 50.3953C22.1345 50.2832 22.1397 50.1724 22.1397 50.0655V47.3997C22.1397 47.2662 22.1521 47.1078 22.1664 46.941C22.1906 46.653 22.2199 46.2939 22.1573 46.1024C22.1319 46.0242 22.1176 45.9916 22.1228 45.989C22.0974 45.9785 22.0381 45.961 21.9846 45.9453L21.8543 45.9069C21.8517 45.9062 21.8504 45.9056 21.8485 45.9049C21.8445 46.6458 21.7194 47.1867 21.4712 47.5092C21.3083 47.7223 21.1675 47.7816 21.0261 47.8285C20.9688 47.8474 20.9427 47.8559 20.8919 47.8989C20.3843 48.3277 19.9776 49.96 19.8506 50.9817C19.8297 51.1498 19.687 51.273 19.5215 51.273C19.5078 51.273 19.4941 51.2723 19.4804 51.2704C19.2986 51.2476 19.169 51.0821 19.1918 50.9003C19.2055 50.7888 19.5397 48.1726 20.4631 47.3919C20.6123 47.2655 20.7368 47.2244 20.8189 47.1977C20.8827 47.1769 20.8925 47.1736 20.9453 47.1052C21.1134 46.8863 21.1994 46.3708 21.1838 45.7036C20.7505 45.5745 20.4031 45.4755 20.151 45.4097C19.9587 45.3601 19.7835 45.2943 19.6212 45.2187C19.6251 45.2891 19.6284 45.3575 19.6329 45.4305C19.6824 46.2561 19.7378 47.1919 19.412 47.9438C19.1598 48.5257 18.7207 48.6867 18.3681 48.8157C18.1642 48.8907 17.9719 48.961 17.8058 49.105C17.7432 49.1598 17.6657 49.1858 17.5881 49.1858C17.4956 49.1858 17.4024 49.1467 17.3373 49.0712C17.2174 48.9324 17.2323 48.7225 17.3711 48.6026C17.6292 48.3791 17.9003 48.2794 18.1394 48.1921C18.4554 48.0768 18.664 47.9999 18.8028 47.6793C19.066 47.0726 19.0171 46.2581 18.9702 45.4696C18.9559 45.2318 18.9448 45.007 18.9402 44.7887C18.8262 44.6942 18.7233 44.5971 18.6327 44.5013C18.5669 44.9868 18.4176 45.4553 18.0755 45.9896L17.9706 46.1506C17.7569 46.4738 17.6598 46.6217 17.667 47.0166C17.6696 47.1997 17.5236 47.3509 17.3405 47.3541C17.3386 47.3541 17.3373 47.3541 17.3353 47.3541C17.2278 47.3541 17.1359 47.2994 17.0753 47.2192C17.0316 47.4675 16.9547 47.7047 16.8785 47.9354C16.7827 48.226 16.6921 48.5003 16.6869 48.7545C16.6837 48.9206 16.8081 49.1884 16.9085 49.4035C16.96 49.5136 17.0075 49.6179 17.0427 49.7097C17.2402 50.2278 17.4878 50.9172 17.6546 51.6529C17.7784 52.1963 17.7882 52.2413 18.1433 52.5534C18.1948 52.5991 18.2365 52.6323 18.2704 52.6597C18.4802 52.8284 18.533 52.9164 18.6268 53.25C18.7852 53.815 18.6477 54.4334 18.5147 55.0309C18.3785 55.6441 18.2495 56.2234 18.4502 56.6528C18.5278 56.819 18.4561 57.0164 18.2899 57.0946C18.2443 57.1161 18.1967 57.1259 18.1492 57.1259C18.0241 57.1259 17.9042 57.0549 17.8475 56.9343C17.551 56.3003 17.7106 55.5822 17.8651 54.8869C17.9856 54.3454 18.099 53.8332 17.9856 53.4286C17.9465 53.2904 17.9289 53.2468 17.9218 53.2357C17.9146 53.2266 17.8801 53.1992 17.8527 53.177C17.8129 53.1451 17.7647 53.106 17.7035 53.0526C17.2089 52.6173 17.1463 52.4192 17.0056 51.8002C16.8479 51.1042 16.61 50.4435 16.4204 49.9456C16.3904 49.8668 16.3487 49.7775 16.3044 49.6837C16.1682 49.3918 16.0145 49.0607 16.021 48.7401C16.0281 48.3863 16.1389 48.0507 16.2464 47.7269C16.3435 47.433 16.4348 47.1554 16.4452 46.8856C16.4686 46.249 16.3344 45.727 16.0868 45.2331C16.1813 45.9179 16.2692 46.6204 16.2432 47.3209C16.2256 47.8005 15.8933 48.1732 15.5727 48.5342C15.1628 48.9956 14.9021 49.3377 14.9517 49.7775C14.9608 49.7853 14.9725 49.7892 14.981 49.7984C15.2794 50.1183 15.4313 50.5582 15.5661 50.9465C15.5961 51.0338 15.6261 51.1186 15.6554 51.1987C15.7232 51.3773 15.7994 51.5623 15.877 51.7506C16.1109 52.3175 16.3533 52.9047 16.4367 53.4944C16.5116 54.0261 16.4875 54.5839 16.4647 55.1241C16.453 55.3926 16.4419 55.6584 16.4432 55.9145C16.4458 56.3101 16.4576 56.7043 16.4693 57.0992C16.4843 57.6009 16.4999 58.1196 16.4954 58.635C16.4934 58.8735 16.5032 59.0162 16.5038 59.0371C16.5696 59.0697 16.8687 59.0606 16.9671 59.058C17.1463 59.0514 17.3034 59.1967 17.3092 59.3799C17.3144 59.563 17.1704 59.7167 16.9873 59.722C16.9104 59.7239 16.8375 59.7259 16.7684 59.7259C16.455 59.7259 16.2243 59.6907 16.0509 59.5213C15.8418 59.316 15.8274 59.0091 15.8307 58.6298C15.8346 58.1268 15.8196 57.6146 15.8046 57.1187C15.7929 56.7186 15.7812 56.3192 15.7786 55.9184C15.7773 55.6513 15.7883 55.375 15.8007 55.0948C15.8222 54.5852 15.845 54.058 15.7786 53.5869C15.7069 53.0799 15.4808 52.5326 15.2625 52.0035C15.1817 51.808 15.1028 51.6164 15.0331 51.4313C15.0012 51.346 14.9699 51.2554 14.938 51.1629C14.9262 51.1296 14.9145 51.0964 14.9028 51.0632C14.7725 52.2524 14.4655 53.4064 14.1521 54.5031C14.0329 54.9195 13.9534 55.3678 13.8758 55.8011C13.7279 56.6287 13.5754 57.4849 13.1421 58.2323C13.0802 58.3386 12.9688 58.3979 12.8541 58.3979C12.7974 58.3979 12.74 58.3835 12.6879 58.3529C12.5296 58.261 12.4748 58.0577 12.5674 57.8987C12.9414 57.253 13.0782 56.4906 13.2222 55.6838C13.3024 55.2342 13.3858 54.769 13.5142 54.32C13.9117 52.9307 14.2987 51.4502 14.3039 49.9548C14.156 49.1278 14.6806 48.5368 15.0774 48.0911C15.3316 47.805 15.5713 47.5353 15.5805 47.2942C15.6059 46.6119 15.5147 45.9277 15.4143 45.2083C15.1954 45.8202 14.9634 46.4288 14.7151 47.027C14.7086 47.0433 14.7001 47.0596 14.6904 47.0752C14.6702 47.1078 14.5939 47.2446 14.5216 47.373L14.39 47.6056C14.3046 47.7542 14.2225 47.8213 14.1423 47.8748C14.1397 47.8819 14.1365 47.8911 14.1326 47.9008C13.9938 48.2859 13.8621 48.6952 13.7377 49.0822L13.6803 49.2595C13.6347 49.4002 13.505 49.4895 13.3643 49.4895C13.3304 49.4895 13.2959 49.4843 13.262 49.4732C13.0874 49.4165 12.9916 49.2295 13.0483 49.0549L13.1056 48.8783C13.2327 48.4847 13.3669 48.0683 13.5077 47.676C13.5787 47.4792 13.6621 47.3945 13.7885 47.3124C13.7885 47.3124 13.7976 47.3033 13.8146 47.274L13.9416 47.0479C14.0075 46.9312 14.0765 46.8087 14.1098 46.7507C14.5274 45.7401 14.9067 44.7014 15.2358 43.662C15.2286 43.5558 15.2214 43.4496 15.2175 43.3434C15.2156 43.2821 15.2103 43.2189 15.2077 43.157C14.8089 44.4329 14.0902 45.5478 13.3897 46.6308C13.1447 47.0094 12.8919 47.401 12.6586 47.7907C12.583 47.9171 12.512 48.0318 12.4468 48.1387C12.091 48.7173 11.9157 49.0079 11.876 49.5749C12.7811 51.2482 12.7804 53.1184 12.7798 54.9267V55.0622C12.7798 55.2459 12.6312 55.3945 12.4475 55.3945C12.2637 55.3945 12.1151 55.2459 12.1151 55.0622V54.9267C12.1158 53.6618 12.1145 52.3651 11.79 51.1622C11.7704 51.3466 11.7489 51.5304 11.7274 51.7109C11.6779 52.1201 11.6271 52.5437 11.6049 52.9627L11.5867 53.2657C11.5665 53.5876 11.5456 53.9205 11.556 54.2294C11.5645 54.4764 11.6538 54.653 11.7672 54.8771C11.8447 55.0316 11.9333 55.2062 11.9965 55.4167C12.2989 56.4267 11.947 57.4484 11.6362 58.3496C11.586 58.4949 11.5365 58.6377 11.4909 58.7784C11.4453 58.9185 11.3149 59.0078 11.1748 59.0078C11.141 59.0078 11.1058 59.0026 11.0719 58.9915C10.8972 58.9348 10.8021 58.7471 10.8588 58.5731C10.9057 58.4285 10.9565 58.2819 11.0074 58.1333C11.2993 57.2875 11.601 56.413 11.3599 55.6076C11.3136 55.4538 11.2459 55.3189 11.1735 55.1769C11.083 54.9977 10.9852 54.7996 10.9318 54.5572C10.5454 54.8732 10.2547 55.5796 10.0508 56.082C10.0013 56.2038 9.955 56.3179 9.91134 56.4182C9.61029 57.1096 8.76839 58.6605 7.28529 58.6605C7.21492 58.6605 7.14324 58.6572 7.07025 58.65C6.8878 58.6318 6.75422 58.4695 6.77181 58.2871C6.7894 58.1046 6.9484 57.9717 7.13476 57.9893C8.33115 58.104 9.04468 56.744 9.30142 56.1537C9.34312 56.0579 9.38678 55.9497 9.43435 55.8331C9.73344 55.0954 10.1368 54.1023 10.894 53.8085C10.8999 53.613 10.9103 53.4168 10.9227 53.2253L10.9403 52.9281C10.9637 52.487 11.0158 52.0523 11.0667 51.632C11.1383 51.0384 11.2055 50.478 11.2009 49.8909C11.197 49.4667 11.2465 49.15 11.3345 48.8678C11.0973 49.309 10.8106 49.7234 10.4346 50.0597C10.1505 50.3138 9.83445 50.5041 9.50081 50.6559C9.46106 51.3981 9.18217 51.8562 8.90783 52.296C8.70779 52.6179 8.51947 52.9216 8.39892 53.3601C8.21777 54.0215 8.12589 54.8432 8.14674 55.6135C8.1513 55.7972 8.00664 55.9497 7.82353 55.9543C7.82027 55.9543 7.81767 55.9543 7.81441 55.9543C7.63521 55.9543 7.48794 55.8116 7.48273 55.6311C7.45992 54.7983 7.56028 53.9062 7.75837 53.1842C7.90433 52.6525 8.13827 52.2765 8.34418 51.9448C8.55661 51.6034 8.73385 51.316 8.80749 50.9081C8.32919 51.0443 7.832 51.1244 7.34003 51.1818C7.24098 51.1935 7.1087 51.2007 6.95752 51.2078C6.88845 51.2117 6.8259 51.2157 6.76204 51.2202C6.76269 52.0439 6.45121 52.7118 6.10715 53.4364C5.95402 53.7602 5.83673 54.0952 5.71357 54.4503C5.57934 54.8341 5.44119 55.231 5.25287 55.6096C4.89709 56.3244 4.41162 56.6802 3.89749 57.0562L3.68702 57.2112C3.62707 57.2556 3.55735 57.2771 3.48827 57.2771C3.38727 57.2771 3.28692 57.2308 3.22176 57.1435C3.11163 56.9962 3.14226 56.7883 3.28888 56.6782L3.50456 56.5192C3.99002 56.1634 4.37383 55.8826 4.65729 55.3124C4.82671 54.971 4.95247 54.6113 5.0854 54.2301C5.20921 53.8743 5.33758 53.5061 5.51938 53.123C5.81783 52.4922 6.07913 51.9377 6.09868 51.2932C5.85171 51.3388 5.70836 51.3981 5.67838 51.4717C5.6256 51.6001 5.50179 51.6783 5.37147 51.6783C5.32911 51.6783 5.28676 51.6705 5.2457 51.6535C5.09192 51.5903 5.01764 51.4261 5.05478 51.2697C4.95508 51.3186 4.85473 51.3675 4.75503 51.4157C4.3608 51.6066 3.95288 51.8034 3.55604 52.0354C2.95329 52.3873 2.51149 52.6727 2.32121 53.1497C2.26908 53.2793 2.14462 53.3588 2.01299 53.3588C1.97194 53.3588 1.93024 53.351 1.88984 53.3347C1.71976 53.2663 1.63636 53.0734 1.70478 52.9027C1.99475 52.1774 2.64702 51.7969 3.22176 51.4613C3.64075 51.217 4.0604 51.0136 4.46636 50.8175C5.43859 50.3477 6.35607 49.9039 7.04745 48.978C7.46058 48.4247 7.49642 47.8331 7.53877 47.1482C7.56354 46.7533 7.58829 46.3448 7.68995 45.9192C7.84634 45.2663 8.3722 44.8786 8.88047 44.5039C9.12678 44.3221 9.35941 44.1507 9.54643 43.9546C9.60638 43.8914 9.67806 43.8204 9.7569 43.7435C9.82663 43.675 9.90743 43.5949 9.98888 43.5102C9.64547 43.7031 9.29685 43.8868 8.95345 44.0602C8.38067 44.3495 7.78769 44.6486 7.26574 45.0063C7.17907 45.0656 7.11196 45.1054 7.05461 45.1373C7.0481 45.1953 7.03832 45.2722 7.02073 45.3751C6.9875 45.5693 6.9888 45.7713 6.9901 45.9844C6.99206 46.333 6.99402 46.6934 6.85196 47.0765C6.27527 48.63 4.88275 49.8707 3.30451 50.2389C3.19895 50.2636 3.09338 50.2793 2.98782 50.2949C2.95263 50.8331 2.41961 51.4405 1.9752 51.9474C1.85009 52.0901 1.73214 52.225 1.67284 52.3084C1.45846 52.6101 1.31901 52.9646 1.17044 53.3393C1.01666 53.729 0.857663 54.1323 0.603529 54.4907C0.539018 54.5819 0.436713 54.6308 0.332453 54.6308C0.265987 54.6308 0.198871 54.6113 0.140876 54.5696C-0.00964915 54.4633 -0.044838 54.2561 0.0613769 54.1063ZM17.0935 46.3773C17.1691 46.1584 17.2832 45.9812 17.4141 45.7831L17.5145 45.6299C17.9315 44.979 18.011 44.4844 18.0169 43.6099L15.5492 40.0129C15.5863 40.4436 15.6378 40.8802 15.6912 41.3097C15.7734 41.9769 15.8587 42.6663 15.8796 43.3232C15.8841 43.4698 15.8939 43.6177 15.9063 43.7669C16.5547 44.5762 17.0069 45.3575 17.0935 46.3773ZM14.7777 41.4504C14.7268 41.5338 14.6754 41.6172 14.6239 41.698C14.5164 41.8661 14.4141 42.0258 14.3339 42.1867C14.0465 42.7621 13.9514 43.3049 13.8967 43.9429C13.8823 44.1162 13.737 44.2465 13.5663 44.2465C13.5572 44.2465 13.5474 44.2459 13.5376 44.2452C13.3552 44.2296 13.2196 44.0686 13.2346 43.8862C13.2874 43.2684 13.3851 42.5992 13.739 41.8896C13.8354 41.6967 13.9514 41.5149 14.0641 41.339C14.1919 41.1389 14.3124 40.95 14.3984 40.7571C14.519 40.4847 14.4421 40.1589 14.3528 39.7822C14.3496 39.7679 14.3463 39.7529 14.343 39.7386C14.2231 39.9614 14.0922 40.1797 13.9625 40.3941C13.8191 40.6307 13.6712 40.8757 13.5474 41.1148C13.3043 41.5853 13.0776 42.0525 12.9701 42.592C12.9694 42.5953 12.9688 42.5986 12.9681 42.6018C12.9727 42.624 12.9818 42.6448 12.9818 42.6683V42.7295C12.9811 43.1212 12.9805 43.851 13.1473 44.1879C13.1916 44.2771 13.245 44.3443 13.307 44.4218C13.4145 44.5567 13.5441 44.7268 13.6184 45.0102C14.1045 44.1879 14.5118 43.3518 14.7171 42.4148C14.7835 42.1157 14.794 41.7886 14.7777 41.4504ZM11.8786 47.7907C11.9431 47.6858 12.0122 47.5731 12.0865 47.4493C12.3256 47.0498 12.5823 46.653 12.83 46.2698C12.8521 46.2359 12.8736 46.202 12.8951 46.1682C12.5296 46.3474 12.2833 46.5787 12.1106 47.029L12.0004 47.3189C11.9073 47.5672 11.8095 47.8233 11.7033 48.08C11.7587 47.9875 11.816 47.8924 11.8786 47.7907ZM6.26875 50.5953C6.49291 50.5679 6.71968 50.5549 6.92429 50.5445C7.05787 50.538 7.17582 50.5321 7.26313 50.5217C7.73165 50.4669 8.2321 50.3953 8.70974 50.2493C8.53706 50.2382 8.39957 50.0981 8.39892 49.9228C8.39761 49.496 8.36308 49.3702 8.15391 49.0262C8.07832 48.9011 8.01511 48.7838 7.95711 48.6691C7.87045 48.9076 7.7525 49.1441 7.57917 49.3761C7.1908 49.8961 6.74249 50.2806 6.26875 50.5953ZM9.27405 45.0396C8.84267 45.3575 8.43541 45.6579 8.33506 46.0743C8.28749 46.2724 8.25947 46.4731 8.23927 46.6738C8.24122 46.6875 8.24774 46.7005 8.24774 46.7149C8.24774 47.6057 8.31616 48.0142 8.72082 48.6815C8.9932 49.1298 9.06031 49.3735 9.06227 49.9202C9.06227 50.0193 9.01731 50.1059 8.94889 50.1672C9.32487 50.029 9.68196 49.8401 9.98953 49.5644C10.6744 48.9526 11.0321 48.0031 11.3781 47.085L11.4896 46.7918C11.8173 45.9362 12.3764 45.6312 13.0828 45.3745C13.0372 45.3308 13.0013 45.2761 12.9864 45.2096C12.9479 45.0389 12.884 44.9587 12.7863 44.8362C12.7127 44.7431 12.6293 44.6375 12.5543 44.4883C12.484 44.689 12.3999 44.8877 12.2917 45.0839C11.7652 46.0385 10.2424 47.188 9.15871 47.4499C9.13786 47.4551 9.11701 47.4577 9.0955 47.459C9.03881 47.4975 8.95149 47.5666 8.87982 47.6311C8.81596 47.6878 8.73711 47.7158 8.65826 47.7158C8.56769 47.7158 8.47646 47.6786 8.4113 47.6056C8.28879 47.4688 8.29987 47.259 8.43671 47.1365C8.82573 46.7872 8.98994 46.7742 9.08117 46.7839C9.98302 46.5279 11.285 45.5335 11.7105 44.7633C12.0109 44.2185 12.1132 43.6268 12.2207 43.0013C12.2513 42.8227 12.2826 42.6435 12.3184 42.4637C12.3738 42.1835 12.4598 41.9228 12.5569 41.6739C12.1334 42.0831 11.674 42.435 11.2107 42.7517C11.1344 43.3127 10.6138 43.8308 10.2209 44.2179C10.1485 44.2895 10.0814 44.3553 10.026 44.4133C9.79991 44.6518 9.53274 44.8493 9.27405 45.0396Z"/>
</mask>
<path d="M0.0613769 54.1063C0.269245 53.8137 0.406737 53.4651 0.552049 53.0956C0.707787 52.7007 0.869391 52.2915 1.13069 51.924C1.20954 51.8125 1.3327 51.6724 1.4754 51.5095C1.96738 50.9485 2.24432 50.5614 2.31079 50.3483C2.11465 50.3529 1.91981 50.3529 1.72758 50.3503C1.3125 50.3457 0.918917 50.3405 0.537716 50.4018C0.520122 50.4044 0.501876 50.4057 0.484934 50.4057C0.324634 50.4057 0.183233 50.2897 0.157168 50.1261C0.128496 49.945 0.251651 49.7749 0.432803 49.7456C0.870695 49.6752 1.31054 49.6811 1.7354 49.6856C2.23259 49.6915 2.70046 49.6974 3.15334 49.5918C4.52045 49.2732 5.72726 48.1954 6.22836 46.8459C6.32805 46.5767 6.3261 46.2907 6.32479 45.989C6.32349 45.7563 6.32219 45.5152 6.3652 45.2637C6.38475 45.1464 6.39322 45.0682 6.39908 45.0148C6.42124 44.8089 6.46881 44.6916 6.67863 44.5847C6.72033 44.5632 6.78549 44.53 6.8891 44.459C7.44755 44.0764 8.06007 43.7669 8.65305 43.4672C9.11375 43.2346 9.59009 42.9941 10.0267 42.725C10.9683 42.1444 11.917 41.5032 12.6429 40.6007C12.0467 40.9669 11.3566 41.1617 10.7839 41.2868C9.78427 41.5045 8.92282 42.0199 7.98122 42.6207C7.7297 42.781 7.43712 42.9276 7.12694 43.0834C6.4082 43.4437 5.59432 43.8523 5.32455 44.4629C5.10104 44.9685 5.01698 45.5042 4.92771 46.0717C4.82541 46.7188 4.72049 47.388 4.39533 48.0351C4.33669 48.1511 4.22005 48.2182 4.09819 48.2182C4.04802 48.2182 3.99719 48.2071 3.94962 48.183C3.78541 48.1009 3.7196 47.9008 3.8017 47.7373C4.07994 47.1827 4.17313 46.593 4.27152 45.9688C4.3634 45.3843 4.45854 44.7796 4.71724 44.195C5.08345 43.3662 6.01136 42.9009 6.8298 42.4904C7.12369 42.3431 7.40128 42.2037 7.62413 42.0616C8.62047 41.4256 9.536 40.8802 10.6425 40.6391C11.6355 40.4228 12.8254 40.037 13.2177 38.9677C13.2542 38.868 13.3343 38.8015 13.4282 38.7716L14.126 33.8394C14.126 33.8394 14.2785 32.7193 14.9914 31.04C15.7043 29.3608 15.8568 25.3905 15.8059 23.7106C15.7551 22.0307 14.8396 20.6564 14.8396 20.6564C14.8396 20.6564 13.4653 18.824 12.4983 18.6201C11.5313 18.4161 12.0402 20.096 12.0402 20.096L13.7201 20.1977L13.1095 20.6558L14.0257 21.8261L12.6006 21.368L12.6514 22.8439L11.6844 21.2663L10.5643 22.1317L10.8673 20.7502L8.98603 21.0122L10.4835 19.9194L9.64678 18.925L11.53 19.8412C11.53 19.8412 11.0719 18.7217 12.192 18.0597C13.3122 17.3976 14.6858 19.434 14.33 18.7719C13.9736 18.1099 14.4825 15.6167 14.4825 15.6167L15.297 12.4101C15.297 12.4101 14.8389 10.2213 13.9736 9.96716C13.1082 9.71237 12.7016 10.8833 12.7016 10.8833L14.1775 11.2398L12.9557 11.6979L13.3122 12.5632L12.3999 11.8686L11.8871 12.5632L11.7346 11.647L10.1055 12.156L11.1742 10.8833L10.8686 9.8655L12.0226 10.7967C12.0226 10.7967 12.9042 9.50972 13.668 9.15328C14.431 8.79684 15.297 9.71303 15.297 9.71303L14.5841 7.93148C14.5841 7.93148 14.33 5.48854 14.3808 4.36905C14.4317 3.24891 14.8389 3.65617 14.8389 3.65617C14.8389 3.65617 14.8389 4.87797 14.8389 6.30307C14.8389 7.72818 16.1109 9.20411 16.4165 10.4259C16.7221 11.6477 15.7043 14.7012 15.7043 14.7012C15.7043 14.7012 16.7729 12.7164 17.5366 11.0873C18.3004 9.45824 17.9439 5.99746 17.9439 5.99746C17.9439 5.99746 18.9116 8.03314 19.0126 9.35659C19.1142 10.68 17.8931 11.647 16.8244 14.0392C15.7558 16.4313 15.8059 18.9765 15.8059 18.9765L16.3657 16.8894C16.3657 16.8894 17.2819 14.9553 18.3004 14.3956C19.3182 13.8359 19.2674 14.0906 20.3875 14.6504C21.5077 15.2101 21.3545 16.8392 21.3545 16.8392L23.6945 16.0748L22.6258 17.0927L23.8985 17.9072L22.0472 17.9522L21.8621 19.0775L20.8443 18.3138L19.3175 19.434L19.6225 17.5508L18.5024 16.5838L20.2331 16.9402C20.2331 16.9402 20.2331 16.0748 20.1314 15.2095C20.0298 14.3441 18.4522 14.853 17.6885 16.1765C16.9254 17.4999 16.6198 19.434 16.5683 20.6551C16.5175 21.8763 17.7901 23.8109 17.7901 24.9812C17.7901 25.483 17.5282 26.9107 17.2291 28.3782L17.9674 27.1603L19.1475 25.8896C19.1475 25.8896 19.0699 26.7713 19.0048 26.94C18.9396 27.1088 20.7166 26.4344 20.7166 26.4344C20.7166 26.4344 20.7296 26.9791 20.379 27.3421C20.0291 27.705 21.4555 27.6014 21.4555 27.6014L20.7941 28.2889L21.8185 28.8336C21.8185 28.8336 19.1084 29.3914 18.6542 29.4169C18.2736 29.4384 17.4024 29.0871 17.1157 28.9275C16.7475 30.696 16.365 32.3622 16.365 32.3622C16.365 32.3622 17.4343 31.0896 18.4522 30.3265C19.1794 29.7811 21.5142 29.4182 22.79 29.2546C22.7829 29.2259 22.7783 29.2064 22.7783 29.2064L22.8291 29.0031C22.8291 29.0031 23.0331 27.5271 24.0001 27.5271C24.9665 27.5271 26.6972 27.9344 26.6972 27.9344C26.6972 27.9344 25.2721 28.5965 25.5262 28.5965C25.781 28.5965 28.7837 30.4797 28.7837 30.4797L26.4424 30.378V31.0909L25.119 30.378L24.4061 31.2434L23.7955 30.3272C23.7955 30.3272 22.8793 31.2942 23.0318 31.0394C23.1517 30.8393 22.9269 29.8248 22.8246 29.398C22.7503 29.4208 22.6793 29.4429 22.6245 29.4612C22.3196 29.5628 18.4001 31.65 17.1783 32.8203C16.1559 33.7997 15.6333 37.5569 15.4892 38.7585C15.4919 38.7625 15.4958 38.7638 15.4984 38.7677L18.6223 43.3212C18.6346 43.3395 18.6457 43.3597 18.6542 43.3799C18.6542 43.3799 18.6542 43.3799 18.6548 43.3805C18.6731 43.4242 19.126 44.4576 20.3152 44.7659C20.6097 44.8421 21.0274 44.962 21.5572 45.1217C21.5937 45.1269 21.6269 45.136 21.6569 45.1516C21.782 45.1894 21.911 45.2292 22.0478 45.2709L22.169 45.3067C22.5098 45.4064 22.6519 45.4827 22.7868 45.8938C22.8917 46.2138 22.8578 46.6289 22.8272 46.9951C22.8148 47.1417 22.8031 47.2811 22.8031 47.3991V48.9584C23.6228 49.1109 24.3904 50.1691 24.5709 50.7999L24.6198 50.9739C24.7795 51.5486 24.8283 51.722 25.3666 51.9585L25.4617 52.0002C26.0273 52.2491 26.7317 52.5593 27.3065 52.6479C27.4876 52.6759 27.6121 52.8454 27.5841 53.0272C27.5586 53.1914 27.4172 53.3087 27.2563 53.3087C27.2393 53.3087 27.2224 53.3074 27.2055 53.3048C26.5441 53.2025 25.7953 52.8734 25.1939 52.6088L25.0988 52.5671C24.2725 52.2035 24.1559 51.7852 23.9793 51.1524L23.9317 50.983C23.8007 50.5249 23.2553 49.8199 22.8031 49.6446V50.0649C22.8031 50.1815 22.7979 50.3021 22.792 50.4246C22.7868 50.5373 22.7835 50.6474 22.7829 50.755C22.8083 50.7986 22.8265 50.8468 22.8285 50.9009C22.8324 50.9954 22.8259 51.0782 22.8213 51.1629C22.8448 51.2704 22.878 51.372 22.9373 51.4568C23.037 51.5988 23.2071 51.7154 23.3882 51.8386C23.6359 52.0074 23.9167 52.1996 24.0868 52.5124C24.1741 52.6733 24.1141 52.8753 23.9532 52.9627C23.903 52.99 23.8489 53.0031 23.7955 53.0031C23.6776 53.0031 23.5635 52.9398 23.5029 52.8291C23.4097 52.657 23.2175 52.5261 23.0136 52.3873C22.8663 52.2869 22.7079 52.1761 22.5665 52.038C22.3509 52.3879 22.0335 52.6212 21.7188 52.846C21.5044 52.9985 21.2828 53.1562 21.0776 53.3601C20.4559 53.9772 20.0141 54.8367 19.9522 55.5503C19.9372 55.7236 19.7926 55.8539 19.6218 55.8539C19.6127 55.8539 19.603 55.8533 19.5932 55.8526C19.4101 55.837 19.2752 55.676 19.2908 55.4929C19.3814 54.449 20.0317 53.4631 20.6104 52.889C20.8541 52.6473 21.1089 52.4655 21.3337 52.3058C21.7931 51.9787 22.0948 51.7591 22.1547 51.2306C22.1065 50.9504 22.1169 50.6631 22.1293 50.3953C22.1345 50.2832 22.1397 50.1724 22.1397 50.0655V47.3997C22.1397 47.2662 22.1521 47.1078 22.1664 46.941C22.1906 46.653 22.2199 46.2939 22.1573 46.1024C22.1319 46.0242 22.1176 45.9916 22.1228 45.989C22.0974 45.9785 22.0381 45.961 21.9846 45.9453L21.8543 45.9069C21.8517 45.9062 21.8504 45.9056 21.8485 45.9049C21.8445 46.6458 21.7194 47.1867 21.4712 47.5092C21.3083 47.7223 21.1675 47.7816 21.0261 47.8285C20.9688 47.8474 20.9427 47.8559 20.8919 47.8989C20.3843 48.3277 19.9776 49.96 19.8506 50.9817C19.8297 51.1498 19.687 51.273 19.5215 51.273C19.5078 51.273 19.4941 51.2723 19.4804 51.2704C19.2986 51.2476 19.169 51.0821 19.1918 50.9003C19.2055 50.7888 19.5397 48.1726 20.4631 47.3919C20.6123 47.2655 20.7368 47.2244 20.8189 47.1977C20.8827 47.1769 20.8925 47.1736 20.9453 47.1052C21.1134 46.8863 21.1994 46.3708 21.1838 45.7036C20.7505 45.5745 20.4031 45.4755 20.151 45.4097C19.9587 45.3601 19.7835 45.2943 19.6212 45.2187C19.6251 45.2891 19.6284 45.3575 19.6329 45.4305C19.6824 46.2561 19.7378 47.1919 19.412 47.9438C19.1598 48.5257 18.7207 48.6867 18.3681 48.8157C18.1642 48.8907 17.9719 48.961 17.8058 49.105C17.7432 49.1598 17.6657 49.1858 17.5881 49.1858C17.4956 49.1858 17.4024 49.1467 17.3373 49.0712C17.2174 48.9324 17.2323 48.7225 17.3711 48.6026C17.6292 48.3791 17.9003 48.2794 18.1394 48.1921C18.4554 48.0768 18.664 47.9999 18.8028 47.6793C19.066 47.0726 19.0171 46.2581 18.9702 45.4696C18.9559 45.2318 18.9448 45.007 18.9402 44.7887C18.8262 44.6942 18.7233 44.5971 18.6327 44.5013C18.5669 44.9868 18.4176 45.4553 18.0755 45.9896L17.9706 46.1506C17.7569 46.4738 17.6598 46.6217 17.667 47.0166C17.6696 47.1997 17.5236 47.3509 17.3405 47.3541C17.3386 47.3541 17.3373 47.3541 17.3353 47.3541C17.2278 47.3541 17.1359 47.2994 17.0753 47.2192C17.0316 47.4675 16.9547 47.7047 16.8785 47.9354C16.7827 48.226 16.6921 48.5003 16.6869 48.7545C16.6837 48.9206 16.8081 49.1884 16.9085 49.4035C16.96 49.5136 17.0075 49.6179 17.0427 49.7097C17.2402 50.2278 17.4878 50.9172 17.6546 51.6529C17.7784 52.1963 17.7882 52.2413 18.1433 52.5534C18.1948 52.5991 18.2365 52.6323 18.2704 52.6597C18.4802 52.8284 18.533 52.9164 18.6268 53.25C18.7852 53.815 18.6477 54.4334 18.5147 55.0309C18.3785 55.6441 18.2495 56.2234 18.4502 56.6528C18.5278 56.819 18.4561 57.0164 18.2899 57.0946C18.2443 57.1161 18.1967 57.1259 18.1492 57.1259C18.0241 57.1259 17.9042 57.0549 17.8475 56.9343C17.551 56.3003 17.7106 55.5822 17.8651 54.8869C17.9856 54.3454 18.099 53.8332 17.9856 53.4286C17.9465 53.2904 17.9289 53.2468 17.9218 53.2357C17.9146 53.2266 17.8801 53.1992 17.8527 53.177C17.8129 53.1451 17.7647 53.106 17.7035 53.0526C17.2089 52.6173 17.1463 52.4192 17.0056 51.8002C16.8479 51.1042 16.61 50.4435 16.4204 49.9456C16.3904 49.8668 16.3487 49.7775 16.3044 49.6837C16.1682 49.3918 16.0145 49.0607 16.021 48.7401C16.0281 48.3863 16.1389 48.0507 16.2464 47.7269C16.3435 47.433 16.4348 47.1554 16.4452 46.8856C16.4686 46.249 16.3344 45.727 16.0868 45.2331C16.1813 45.9179 16.2692 46.6204 16.2432 47.3209C16.2256 47.8005 15.8933 48.1732 15.5727 48.5342C15.1628 48.9956 14.9021 49.3377 14.9517 49.7775C14.9608 49.7853 14.9725 49.7892 14.981 49.7984C15.2794 50.1183 15.4313 50.5582 15.5661 50.9465C15.5961 51.0338 15.6261 51.1186 15.6554 51.1987C15.7232 51.3773 15.7994 51.5623 15.877 51.7506C16.1109 52.3175 16.3533 52.9047 16.4367 53.4944C16.5116 54.0261 16.4875 54.5839 16.4647 55.1241C16.453 55.3926 16.4419 55.6584 16.4432 55.9145C16.4458 56.3101 16.4576 56.7043 16.4693 57.0992C16.4843 57.6009 16.4999 58.1196 16.4954 58.635C16.4934 58.8735 16.5032 59.0162 16.5038 59.0371C16.5696 59.0697 16.8687 59.0606 16.9671 59.058C17.1463 59.0514 17.3034 59.1967 17.3092 59.3799C17.3144 59.563 17.1704 59.7167 16.9873 59.722C16.9104 59.7239 16.8375 59.7259 16.7684 59.7259C16.455 59.7259 16.2243 59.6907 16.0509 59.5213C15.8418 59.316 15.8274 59.0091 15.8307 58.6298C15.8346 58.1268 15.8196 57.6146 15.8046 57.1187C15.7929 56.7186 15.7812 56.3192 15.7786 55.9184C15.7773 55.6513 15.7883 55.375 15.8007 55.0948C15.8222 54.5852 15.845 54.058 15.7786 53.5869C15.7069 53.0799 15.4808 52.5326 15.2625 52.0035C15.1817 51.808 15.1028 51.6164 15.0331 51.4313C15.0012 51.346 14.9699 51.2554 14.938 51.1629C14.9262 51.1296 14.9145 51.0964 14.9028 51.0632C14.7725 52.2524 14.4655 53.4064 14.1521 54.5031C14.0329 54.9195 13.9534 55.3678 13.8758 55.8011C13.7279 56.6287 13.5754 57.4849 13.1421 58.2323C13.0802 58.3386 12.9688 58.3979 12.8541 58.3979C12.7974 58.3979 12.74 58.3835 12.6879 58.3529C12.5296 58.261 12.4748 58.0577 12.5674 57.8987C12.9414 57.253 13.0782 56.4906 13.2222 55.6838C13.3024 55.2342 13.3858 54.769 13.5142 54.32C13.9117 52.9307 14.2987 51.4502 14.3039 49.9548C14.156 49.1278 14.6806 48.5368 15.0774 48.0911C15.3316 47.805 15.5713 47.5353 15.5805 47.2942C15.6059 46.6119 15.5147 45.9277 15.4143 45.2083C15.1954 45.8202 14.9634 46.4288 14.7151 47.027C14.7086 47.0433 14.7001 47.0596 14.6904 47.0752C14.6702 47.1078 14.5939 47.2446 14.5216 47.373L14.39 47.6056C14.3046 47.7542 14.2225 47.8213 14.1423 47.8748C14.1397 47.8819 14.1365 47.8911 14.1326 47.9008C13.9938 48.2859 13.8621 48.6952 13.7377 49.0822L13.6803 49.2595C13.6347 49.4002 13.505 49.4895 13.3643 49.4895C13.3304 49.4895 13.2959 49.4843 13.262 49.4732C13.0874 49.4165 12.9916 49.2295 13.0483 49.0549L13.1056 48.8783C13.2327 48.4847 13.3669 48.0683 13.5077 47.676C13.5787 47.4792 13.6621 47.3945 13.7885 47.3124C13.7885 47.3124 13.7976 47.3033 13.8146 47.274L13.9416 47.0479C14.0075 46.9312 14.0765 46.8087 14.1098 46.7507C14.5274 45.7401 14.9067 44.7014 15.2358 43.662C15.2286 43.5558 15.2214 43.4496 15.2175 43.3434C15.2156 43.2821 15.2103 43.2189 15.2077 43.157C14.8089 44.4329 14.0902 45.5478 13.3897 46.6308C13.1447 47.0094 12.8919 47.401 12.6586 47.7907C12.583 47.9171 12.512 48.0318 12.4468 48.1387C12.091 48.7173 11.9157 49.0079 11.876 49.5749C12.7811 51.2482 12.7804 53.1184 12.7798 54.9267V55.0622C12.7798 55.2459 12.6312 55.3945 12.4475 55.3945C12.2637 55.3945 12.1151 55.2459 12.1151 55.0622V54.9267C12.1158 53.6618 12.1145 52.3651 11.79 51.1622C11.7704 51.3466 11.7489 51.5304 11.7274 51.7109C11.6779 52.1201 11.6271 52.5437 11.6049 52.9627L11.5867 53.2657C11.5665 53.5876 11.5456 53.9205 11.556 54.2294C11.5645 54.4764 11.6538 54.653 11.7672 54.8771C11.8447 55.0316 11.9333 55.2062 11.9965 55.4167C12.2989 56.4267 11.947 57.4484 11.6362 58.3496C11.586 58.4949 11.5365 58.6377 11.4909 58.7784C11.4453 58.9185 11.3149 59.0078 11.1748 59.0078C11.141 59.0078 11.1058 59.0026 11.0719 58.9915C10.8972 58.9348 10.8021 58.7471 10.8588 58.5731C10.9057 58.4285 10.9565 58.2819 11.0074 58.1333C11.2993 57.2875 11.601 56.413 11.3599 55.6076C11.3136 55.4538 11.2459 55.3189 11.1735 55.1769C11.083 54.9977 10.9852 54.7996 10.9318 54.5572C10.5454 54.8732 10.2547 55.5796 10.0508 56.082C10.0013 56.2038 9.955 56.3179 9.91134 56.4182C9.61029 57.1096 8.76839 58.6605 7.28529 58.6605C7.21492 58.6605 7.14324 58.6572 7.07025 58.65C6.8878 58.6318 6.75422 58.4695 6.77181 58.2871C6.7894 58.1046 6.9484 57.9717 7.13476 57.9893C8.33115 58.104 9.04468 56.744 9.30142 56.1537C9.34312 56.0579 9.38678 55.9497 9.43435 55.8331C9.73344 55.0954 10.1368 54.1023 10.894 53.8085C10.8999 53.613 10.9103 53.4168 10.9227 53.2253L10.9403 52.9281C10.9637 52.487 11.0158 52.0523 11.0667 51.632C11.1383 51.0384 11.2055 50.478 11.2009 49.8909C11.197 49.4667 11.2465 49.15 11.3345 48.8678C11.0973 49.309 10.8106 49.7234 10.4346 50.0597C10.1505 50.3138 9.83445 50.5041 9.50081 50.6559C9.46106 51.3981 9.18217 51.8562 8.90783 52.296C8.70779 52.6179 8.51947 52.9216 8.39892 53.3601C8.21777 54.0215 8.12589 54.8432 8.14674 55.6135C8.1513 55.7972 8.00664 55.9497 7.82353 55.9543C7.82027 55.9543 7.81767 55.9543 7.81441 55.9543C7.63521 55.9543 7.48794 55.8116 7.48273 55.6311C7.45992 54.7983 7.56028 53.9062 7.75837 53.1842C7.90433 52.6525 8.13827 52.2765 8.34418 51.9448C8.55661 51.6034 8.73385 51.316 8.80749 50.9081C8.32919 51.0443 7.832 51.1244 7.34003 51.1818C7.24098 51.1935 7.1087 51.2007 6.95752 51.2078C6.88845 51.2117 6.8259 51.2157 6.76204 51.2202C6.76269 52.0439 6.45121 52.7118 6.10715 53.4364C5.95402 53.7602 5.83673 54.0952 5.71357 54.4503C5.57934 54.8341 5.44119 55.231 5.25287 55.6096C4.89709 56.3244 4.41162 56.6802 3.89749 57.0562L3.68702 57.2112C3.62707 57.2556 3.55735 57.2771 3.48827 57.2771C3.38727 57.2771 3.28692 57.2308 3.22176 57.1435C3.11163 56.9962 3.14226 56.7883 3.28888 56.6782L3.50456 56.5192C3.99002 56.1634 4.37383 55.8826 4.65729 55.3124C4.82671 54.971 4.95247 54.6113 5.0854 54.2301C5.20921 53.8743 5.33758 53.5061 5.51938 53.123C5.81783 52.4922 6.07913 51.9377 6.09868 51.2932C5.85171 51.3388 5.70836 51.3981 5.67838 51.4717C5.6256 51.6001 5.50179 51.6783 5.37147 51.6783C5.32911 51.6783 5.28676 51.6705 5.2457 51.6535C5.09192 51.5903 5.01764 51.4261 5.05478 51.2697C4.95508 51.3186 4.85473 51.3675 4.75503 51.4157C4.3608 51.6066 3.95288 51.8034 3.55604 52.0354C2.95329 52.3873 2.51149 52.6727 2.32121 53.1497C2.26908 53.2793 2.14462 53.3588 2.01299 53.3588C1.97194 53.3588 1.93024 53.351 1.88984 53.3347C1.71976 53.2663 1.63636 53.0734 1.70478 52.9027C1.99475 52.1774 2.64702 51.7969 3.22176 51.4613C3.64075 51.217 4.0604 51.0136 4.46636 50.8175C5.43859 50.3477 6.35607 49.9039 7.04745 48.978C7.46058 48.4247 7.49642 47.8331 7.53877 47.1482C7.56354 46.7533 7.58829 46.3448 7.68995 45.9192C7.84634 45.2663 8.3722 44.8786 8.88047 44.5039C9.12678 44.3221 9.35941 44.1507 9.54643 43.9546C9.60638 43.8914 9.67806 43.8204 9.7569 43.7435C9.82663 43.675 9.90743 43.5949 9.98888 43.5102C9.64547 43.7031 9.29685 43.8868 8.95345 44.0602C8.38067 44.3495 7.78769 44.6486 7.26574 45.0063C7.17907 45.0656 7.11196 45.1054 7.05461 45.1373C7.0481 45.1953 7.03832 45.2722 7.02073 45.3751C6.9875 45.5693 6.9888 45.7713 6.9901 45.9844C6.99206 46.333 6.99402 46.6934 6.85196 47.0765C6.27527 48.63 4.88275 49.8707 3.30451 50.2389C3.19895 50.2636 3.09338 50.2793 2.98782 50.2949C2.95263 50.8331 2.41961 51.4405 1.9752 51.9474C1.85009 52.0901 1.73214 52.225 1.67284 52.3084C1.45846 52.6101 1.31901 52.9646 1.17044 53.3393C1.01666 53.729 0.857663 54.1323 0.603529 54.4907C0.539018 54.5819 0.436713 54.6308 0.332453 54.6308C0.265987 54.6308 0.198871 54.6113 0.140876 54.5696C-0.00964915 54.4633 -0.044838 54.2561 0.0613769 54.1063ZM17.0935 46.3773C17.1691 46.1584 17.2832 45.9812 17.4141 45.7831L17.5145 45.6299C17.9315 44.979 18.011 44.4844 18.0169 43.6099L15.5492 40.0129C15.5863 40.4436 15.6378 40.8802 15.6912 41.3097C15.7734 41.9769 15.8587 42.6663 15.8796 43.3232C15.8841 43.4698 15.8939 43.6177 15.9063 43.7669C16.5547 44.5762 17.0069 45.3575 17.0935 46.3773ZM14.7777 41.4504C14.7268 41.5338 14.6754 41.6172 14.6239 41.698C14.5164 41.8661 14.4141 42.0258 14.3339 42.1867C14.0465 42.7621 13.9514 43.3049 13.8967 43.9429C13.8823 44.1162 13.737 44.2465 13.5663 44.2465C13.5572 44.2465 13.5474 44.2459 13.5376 44.2452C13.3552 44.2296 13.2196 44.0686 13.2346 43.8862C13.2874 43.2684 13.3851 42.5992 13.739 41.8896C13.8354 41.6967 13.9514 41.5149 14.0641 41.339C14.1919 41.1389 14.3124 40.95 14.3984 40.7571C14.519 40.4847 14.4421 40.1589 14.3528 39.7822C14.3496 39.7679 14.3463 39.7529 14.343 39.7386C14.2231 39.9614 14.0922 40.1797 13.9625 40.3941C13.8191 40.6307 13.6712 40.8757 13.5474 41.1148C13.3043 41.5853 13.0776 42.0525 12.9701 42.592C12.9694 42.5953 12.9688 42.5986 12.9681 42.6018C12.9727 42.624 12.9818 42.6448 12.9818 42.6683V42.7295C12.9811 43.1212 12.9805 43.851 13.1473 44.1879C13.1916 44.2771 13.245 44.3443 13.307 44.4218C13.4145 44.5567 13.5441 44.7268 13.6184 45.0102C14.1045 44.1879 14.5118 43.3518 14.7171 42.4148C14.7835 42.1157 14.794 41.7886 14.7777 41.4504ZM11.8786 47.7907C11.9431 47.6858 12.0122 47.5731 12.0865 47.4493C12.3256 47.0498 12.5823 46.653 12.83 46.2698C12.8521 46.2359 12.8736 46.202 12.8951 46.1682C12.5296 46.3474 12.2833 46.5787 12.1106 47.029L12.0004 47.3189C11.9073 47.5672 11.8095 47.8233 11.7033 48.08C11.7587 47.9875 11.816 47.8924 11.8786 47.7907ZM6.26875 50.5953C6.49291 50.5679 6.71968 50.5549 6.92429 50.5445C7.05787 50.538 7.17582 50.5321 7.26313 50.5217C7.73165 50.4669 8.2321 50.3953 8.70974 50.2493C8.53706 50.2382 8.39957 50.0981 8.39892 49.9228C8.39761 49.496 8.36308 49.3702 8.15391 49.0262C8.07832 48.9011 8.01511 48.7838 7.95711 48.6691C7.87045 48.9076 7.7525 49.1441 7.57917 49.3761C7.1908 49.8961 6.74249 50.2806 6.26875 50.5953ZM9.27405 45.0396C8.84267 45.3575 8.43541 45.6579 8.33506 46.0743C8.28749 46.2724 8.25947 46.4731 8.23927 46.6738C8.24122 46.6875 8.24774 46.7005 8.24774 46.7149C8.24774 47.6057 8.31616 48.0142 8.72082 48.6815C8.9932 49.1298 9.06031 49.3735 9.06227 49.9202C9.06227 50.0193 9.01731 50.1059 8.94889 50.1672C9.32487 50.029 9.68196 49.8401 9.98953 49.5644C10.6744 48.9526 11.0321 48.0031 11.3781 47.085L11.4896 46.7918C11.8173 45.9362 12.3764 45.6312 13.0828 45.3745C13.0372 45.3308 13.0013 45.2761 12.9864 45.2096C12.9479 45.0389 12.884 44.9587 12.7863 44.8362C12.7127 44.7431 12.6293 44.6375 12.5543 44.4883C12.484 44.689 12.3999 44.8877 12.2917 45.0839C11.7652 46.0385 10.2424 47.188 9.15871 47.4499C9.13786 47.4551 9.11701 47.4577 9.0955 47.459C9.03881 47.4975 8.95149 47.5666 8.87982 47.6311C8.81596 47.6878 8.73711 47.7158 8.65826 47.7158C8.56769 47.7158 8.47646 47.6786 8.4113 47.6056C8.28879 47.4688 8.29987 47.259 8.43671 47.1365C8.82573 46.7872 8.98994 46.7742 9.08117 46.7839C9.98302 46.5279 11.285 45.5335 11.7105 44.7633C12.0109 44.2185 12.1132 43.6268 12.2207 43.0013C12.2513 42.8227 12.2826 42.6435 12.3184 42.4637C12.3738 42.1835 12.4598 41.9228 12.5569 41.6739C12.1334 42.0831 11.674 42.435 11.2107 42.7517C11.1344 43.3127 10.6138 43.8308 10.2209 44.2179C10.1485 44.2895 10.0814 44.3553 10.026 44.4133C9.79991 44.6518 9.53274 44.8493 9.27405 45.0396Z" stroke="#D0D9CB" mask="url(#path-9-inside-1)"/>
<path d="M12.3368 32.5221C12.3501 32.5454 12.3618 32.5655 12.3715 32.5823L13.7758 33.3579C13.7135 33.0951 13.6197 32.7595 13.4854 32.4124C13.1832 31.6314 12.7107 30.882 12.0153 30.6647C11.8301 30.6069 11.7331 30.6108 11.6914 30.622C11.6699 30.6278 11.6638 30.6322 11.655 30.6581C11.6406 30.7002 11.6338 30.7795 11.6531 30.9053C11.6718 31.0265 11.7111 31.1688 11.7654 31.3228C11.874 31.6306 12.033 31.9587 12.1674 32.2137C12.2341 32.3403 12.2939 32.4471 12.3368 32.5221Z" stroke="#D0D9CB" stroke-width="0.5"/>
</svg>
