<svg width="42" height="44" viewBox="0 0 42 44" fill="none" xmlns="http://www.w3.org/2000/svg">
<path d="M18.7266 12.7296L13.1606 22.5298C12.13 24.3443 12.1404 26.418 13.1889 28.2194C14.3582 30.2283 16.5306 31.4276 18.9998 31.4276C21.4689 31.4276 23.6413 30.2283 24.8107 28.2194C25.8591 26.418 25.8696 24.3443 24.8389 22.5298L19.2729 12.7296C19.1612 12.5328 18.8383 12.5328 18.7266 12.7296ZM24.2674 27.9032C23.2119 29.7165 21.2427 30.799 18.9998 30.799C16.7568 30.799 14.7876 29.7165 13.7321 27.9032C12.7991 26.3003 12.7899 24.455 13.7069 22.8401L18.9998 13.5211L24.2926 22.8401C25.2097 24.455 25.2005 26.3003 24.2674 27.9032Z" fill="white"/>
<path d="M2.27321 31.0895C1.8939 31.0895 1.59045 30.8603 1.43873 30.5547C-0.609549 25.5131 -0.381964 19.4784 1.8939 14.5895C3.487 11.3047 5.76286 8.55475 8.4939 6.7978C9.63183 6.03391 10.7698 5.49919 11.756 5.11725C12.2111 4.88808 12.7422 5.11725 12.8939 5.57558C13.1215 6.03392 12.8939 6.56864 12.4387 6.72142C11.5284 7.17975 10.4663 7.63808 9.40424 8.32558C6.97666 9.92975 4.92838 12.3742 3.487 15.3534C1.36287 19.8603 1.21114 25.2839 3.03183 29.9436C3.18355 30.402 3.03183 30.9367 2.57666 31.0895C2.5008 31.0895 2.34907 31.0895 2.27321 31.0895Z" fill="white"/>
<path d="M18.2803 5.19444C17.901 5.19444 17.5217 4.88889 17.4459 4.50694L16.9148 2.13889L14.5631 2.67361C14.1079 2.75 13.6528 2.52083 13.501 1.98611C13.4252 1.52778 13.6528 1.06944 14.1838 0.916664L18.2045 0L19.1148 4.04861C19.1907 4.50694 18.9631 4.96528 18.4321 5.11805C18.4321 5.19444 18.3562 5.19444 18.2803 5.19444Z" fill="white"/>
<path d="M19.4935 43.161C16.459 43.161 13.6521 42.4735 11.2246 41.2513C10.0108 40.6401 9.02456 39.8763 8.19008 39.3415C7.81077 39.036 7.7349 38.5013 7.96249 38.1193C8.26594 37.7374 8.79697 37.661 9.17628 37.8901C9.9349 38.5013 10.9211 39.1124 12.059 39.7235C14.6384 41.0985 17.7487 41.6332 21.0866 41.404C26.0177 41.0221 30.797 38.4249 33.8315 34.4526C34.1349 34.0707 34.6659 33.9943 35.0453 34.2999C35.4246 34.6054 35.5004 35.1401 35.197 35.5221C31.859 39.7999 26.6246 42.6263 21.1625 43.0846C20.6315 43.0846 20.0246 43.161 19.4935 43.161Z" fill="white"/>
<path d="M4.0178 39.4177C3.79021 39.4177 3.56262 39.3413 3.4109 39.1121L0.604004 36.0566L3.63849 33.2302C4.0178 32.9246 4.54883 32.9246 4.85228 33.3066C5.15573 33.6885 5.15573 34.2232 4.77642 34.5288L3.03159 36.133L4.62469 37.8899C4.92814 38.2718 4.92814 38.8066 4.54883 39.1121C4.3971 39.3413 4.16952 39.4177 4.0178 39.4177Z" fill="white"/>
<path d="M38.3838 26.8885H38.3079C37.8528 26.8121 37.4735 26.4301 37.5493 25.8954L37.6252 25.5135C37.7769 24.3676 37.8528 23.1454 37.7769 21.694C37.6252 18.7913 36.5631 15.7357 34.6666 12.9857C31.8597 8.8607 27.2321 6.03431 22.3011 5.34681C21.8459 5.27042 21.4666 4.81208 21.5424 4.35375C21.6183 3.89542 22.0735 3.51347 22.5286 3.58986C27.9148 4.35375 32.9976 7.48569 36.0321 11.9926C38.0804 15.0482 39.2942 18.3329 39.4459 21.6176C39.5217 23.1454 39.37 24.5204 39.2942 25.6663L39.2183 26.0482C39.2183 26.5065 38.839 26.8885 38.3838 26.8885Z" fill="white"/>
<path d="M40.3561 33.5349L36.4113 32.3127C35.9561 32.1599 35.7286 31.7015 35.8044 31.2432C35.9561 30.7849 36.4113 30.5557 36.8665 30.6321L39.1423 31.3196L39.8251 29.0279C39.9768 28.5696 40.432 28.3404 40.8872 28.4168C41.3423 28.5696 41.5699 29.0279 41.4941 29.4863L40.3561 33.5349Z" fill="white"/>
</svg>
