<svg width="22" height="16" viewBox="0 0 22 16" fill="none" xmlns="http://www.w3.org/2000/svg">
<path d="M21.425 4.89282C20.0431 3.50834 18.4016 2.40997 16.5947 1.66055C14.7877 0.911139 12.8508 0.525391 10.8946 0.525391C8.93837 0.525391 7.00137 0.911139 5.19443 1.66055C3.38748 2.40997 1.74607 3.50834 0.364075 4.89282C0.289018 4.96788 0.246826 5.06967 0.246826 5.17581C0.246826 5.28196 0.289018 5.38378 0.364075 5.45883C0.439131 5.53389 0.540919 5.57605 0.647064 5.57605C0.75321 5.57605 0.854997 5.53389 0.930054 5.45883C2.23855 4.15016 3.79202 3.11203 5.50174 2.40378C7.21146 1.69552 9.04395 1.33099 10.8946 1.33099C12.7452 1.33099 14.5777 1.69552 16.2874 2.40378C17.9971 3.11203 19.5506 4.15016 20.8591 5.45883C20.9341 5.53389 21.0359 5.57605 21.1421 5.57605C21.2482 5.57605 21.35 5.53389 21.425 5.45883C21.5001 5.38378 21.5423 5.28196 21.5423 5.17581C21.5423 5.06967 21.5001 4.96788 21.425 4.89282V4.89282Z" fill="#515151"/>
<path d="M10.8951 9.22658C10.0808 9.22446 9.2742 9.38377 8.52188 9.6953C7.76956 10.0068 7.08644 10.4644 6.51205 11.0416C6.437 11.1166 6.39484 11.2184 6.39484 11.3246C6.39484 11.4307 6.437 11.5325 6.51205 11.6076C6.58711 11.6826 6.68893 11.7248 6.79507 11.7248C6.90122 11.7248 7.00301 11.6826 7.07806 11.6076C8.09057 10.5963 9.46307 10.0283 10.8941 10.0283C12.3251 10.0283 13.6975 10.5963 14.7101 11.6076C14.7472 11.6448 14.7914 11.6743 14.8399 11.6945C14.8885 11.7147 14.9406 11.7251 14.9932 11.7251C15.0458 11.7252 15.0979 11.7149 15.1465 11.6948C15.1951 11.6747 15.2393 11.6452 15.2766 11.6081C15.3138 11.5709 15.3433 11.5268 15.3635 11.4782C15.3837 11.4296 15.3941 11.3775 15.3941 11.3249C15.3942 11.2723 15.3839 11.2202 15.3638 11.1716C15.3437 11.123 15.3142 11.0788 15.2771 11.0416C14.7028 10.4645 14.0199 10.007 13.2678 9.69542C12.5156 9.38389 11.7092 9.22454 10.8951 9.22658Z" fill="#515151"/>
<path d="M10.8951 4.87895C9.50961 4.87515 8.13715 5.14623 6.85715 5.67646C5.57714 6.20669 4.41502 6.98556 3.43808 7.96797C3.36302 8.04302 3.32086 8.14481 3.32086 8.25095C3.32086 8.3571 3.36302 8.45889 3.43808 8.53394C3.51314 8.609 3.61495 8.65116 3.7211 8.65116C3.82725 8.65116 3.92903 8.609 4.00409 8.53394C5.83161 6.70656 8.31018 5.67997 10.8946 5.67997C13.479 5.67997 15.9576 6.70656 17.7851 8.53394C17.8602 8.609 17.9619 8.65116 18.0681 8.65116C18.1742 8.65116 18.276 8.609 18.3511 8.53394C18.4262 8.45889 18.4683 8.3571 18.4683 8.25095C18.4683 8.14481 18.4262 8.04302 18.3511 7.96797C17.3743 6.98568 16.2123 6.20687 14.9325 5.67664C13.6527 5.14642 12.2804 4.87528 10.8951 4.87895V4.87895Z" fill="#515151"/>
<path d="M10.894 13.5898C10.6607 13.59 10.4327 13.6594 10.2387 13.7892C10.0448 13.919 9.89372 14.1033 9.80456 14.319C9.71541 14.5346 9.69218 14.7718 9.73782 15.0007C9.78347 15.2295 9.89594 15.4397 10.061 15.6046C10.2261 15.7695 10.4363 15.8818 10.6652 15.9272C10.8941 15.9727 11.1313 15.9493 11.3468 15.8599C11.5624 15.7706 11.7466 15.6194 11.8762 15.4253C12.0058 15.2313 12.075 15.0032 12.075 14.7698C12.0745 14.4569 11.9499 14.1569 11.7285 13.9357C11.5071 13.7145 11.207 13.5901 10.894 13.5898ZM10.894 15.1498C10.8189 15.1498 10.7454 15.1276 10.6829 15.0858C10.6204 15.0441 10.5717 14.9847 10.543 14.9153C10.5142 14.8458 10.5067 14.7694 10.5213 14.6957C10.536 14.622 10.5722 14.5543 10.6253 14.5012C10.6785 14.448 10.7462 14.4118 10.8199 14.3972C10.8936 14.3825 10.97 14.39 11.0395 14.4188C11.1089 14.4475 11.1682 14.4962 11.21 14.5587C11.2517 14.6212 11.274 14.6947 11.274 14.7698C11.274 14.8706 11.234 14.9673 11.1627 15.0385C11.0915 15.1098 10.9948 15.1498 10.894 15.1498Z" fill="#515151"/>
</svg>
