<svg width="110" height="81" viewBox="0 0 110 81" fill="none" xmlns="http://www.w3.org/2000/svg">
<path d="M46.466 55.1869C46.466 55.1869 60.942 53.4599 66.008 50.7269C71.074 47.9939 108.708 46.6989 108.708 55.1869C108.708 63.6749 65.427 67.4149 65.427 67.4149L42.7 66.1149L46.466 55.1869Z" fill="#FBBEBE"/>
<path opacity="0.1" d="M46.466 55.1869C46.466 55.1869 60.942 53.4599 66.008 50.7269C71.074 47.9939 108.708 46.6989 108.708 55.1869C108.708 63.6749 65.427 67.4149 65.427 67.4149L42.7 66.1149L46.466 55.1869Z" fill="#B1C3A8"/>
<path d="M50.664 53.6048L47.624 62.3808L0 62.9558V50.0078C0 50.0078 18.239 45.8358 32.715 54.7558C32.715 54.7558 49.795 52.7418 50.664 53.6048Z" fill="#499083"/>
<path opacity="0.1" d="M50.664 53.5861L47.624 62.3621L0 62.9371V49.9941C0 49.9941 18.239 45.8221 32.715 54.7421C32.715 54.7421 49.795 52.7281 50.664 53.5861Z" fill="#B1C3A8"/>
<path d="M105.113 49.9356C105.113 50.4266 104.007 50.7906 103.898 51.2636C103.789 51.7366 104.447 52.4456 104.239 52.8936C104.024 53.3521 103.77 53.7914 103.48 54.2066C103.207 54.5936 102.366 54.5376 102.021 54.9006C101.683 55.2313 101.325 55.5409 100.949 55.8276C100.583 56.1276 100.086 56.1936 99.67 56.4726C99.27 56.7376 99.322 57.7087 98.884 57.9507C98.465 58.1807 97.825 57.9956 97.371 58.2026C96.935 58.4026 96.705 59.1206 96.239 59.2966C95.79 59.4666 95.239 59.3967 94.759 59.5407C94.299 59.6827 93.785 59.6596 93.303 59.7796C92.821 59.8996 92.478 60.5926 91.991 60.6866C91.504 60.7806 90.961 60.5336 90.471 60.6036C89.981 60.6736 89.435 60.0686 88.943 60.1146C88.451 60.1606 88.007 60.4376 87.513 60.4606C87.019 60.4836 86.55 60.6946 86.056 60.6946C85.562 60.6946 85.056 61.1546 84.569 61.1326C84.082 61.1106 83.629 60.4126 83.146 60.3676C82.663 60.3226 82.066 61.0506 81.588 60.9836C81.11 60.9166 80.709 60.2006 80.235 60.1086C79.761 60.0166 79.119 60.5246 78.652 60.4086C78.17 60.2886 77.884 59.4587 77.424 59.3167C76.949 59.1697 76.36 59.3686 75.911 59.1986C75.445 59.0226 74.877 59.0516 74.441 58.8526C73.987 58.6446 73.662 58.1526 73.241 57.9236C72.803 57.6826 72.601 57.0846 72.205 56.8236C71.789 56.5446 71.154 56.5807 70.788 56.2777C70.401 55.9577 69.677 55.9416 69.35 55.5976C69.0656 55.1622 68.8126 54.7071 68.593 54.2356C68.306 53.8266 68.869 52.9636 68.669 52.5356C68.461 52.0876 67.592 51.9056 67.484 51.4356C67.3731 50.946 67.316 50.4457 67.314 49.9436C67.314 49.4526 68.057 49.0776 68.166 48.6046C68.275 48.1316 67.727 47.4626 67.935 47.0146C68.135 46.5826 68.109 45.9146 68.396 45.5146C68.669 45.1266 69.349 44.9746 69.696 44.6146C70.022 44.2706 70.606 44.1757 70.996 43.8557C71.362 43.5557 71.316 42.6396 71.732 42.3616C72.132 42.0966 72.681 41.9757 73.119 41.7347C73.537 41.5037 74.13 41.5426 74.584 41.3346C75.02 41.1346 75.702 41.5276 76.168 41.3516C76.617 41.1816 76.982 40.8106 77.457 40.6636C77.917 40.5216 78.133 39.4366 78.614 39.3176C79.095 39.1986 79.658 39.3937 80.144 39.2997C80.63 39.2057 81.257 40.0646 81.744 39.9996C82.231 39.9346 82.581 38.7896 83.073 38.7446C83.565 38.6996 84.099 39.2916 84.592 39.2686C85.085 39.2456 85.563 39.5936 86.056 39.5936C86.549 39.5936 87.042 39.1176 87.526 39.1396C88.01 39.1616 88.455 39.7906 88.937 39.8396C89.419 39.8886 90.037 38.9286 90.513 38.9966C90.989 39.0646 91.382 39.8056 91.856 39.8966C92.33 39.9876 92.956 39.5316 93.421 39.6476C93.886 39.7636 94.192 40.5536 94.652 40.6956C95.112 40.8376 95.42 41.3957 95.869 41.5667C96.335 41.7427 97.201 40.9197 97.637 41.1187C98.091 41.3257 98.483 41.6846 98.901 41.9186C99.339 42.1606 100.036 42.0387 100.431 42.3037C100.848 42.5827 100.95 43.3306 101.317 43.6336C101.703 43.9526 102.341 44.0496 102.667 44.3926C103.013 44.7566 103.06 45.4086 103.333 45.7926C103.535 46.2458 103.695 46.7164 103.811 47.1986C104.019 47.6466 104.574 47.9846 104.682 48.4536C104.876 48.9315 105.021 49.4281 105.113 49.9356V49.9356Z" fill="#515151"/>
<path d="M52.98 58.9286C52.98 58.9286 69.337 50.5846 79.904 53.7496C90.471 56.9146 105.236 51.4496 106.973 53.3176C108.71 55.1856 111.173 75.3286 90.327 76.4796C77.3462 77.111 64.3404 75.9494 51.677 73.0276L52.98 58.9286Z" fill="#FBBEBE"/>
<path d="M49.128 58.0397C49.128 58.0397 55.586 57.6337 55.296 59.9397C55.006 62.2457 54.717 80.0807 52.98 80.5127C51.243 80.9447 37.491 80.9437 31.846 80.9437H0V53.3637C0 53.3637 22.582 52.0277 33.873 57.6377C33.872 57.6337 47.446 57.4387 49.128 58.0397Z" fill="#B1C3A8"/>
<path d="M79.381 14.9004C78.7653 14.9338 78.171 15.1378 77.6645 15.4896C77.158 15.8414 76.7593 16.3271 76.513 16.8924C75.796 18.6154 76.719 20.6384 78.105 21.8924C79.5941 23.0284 81.1974 24.0064 82.889 24.8104C85.111 26.0181 86.9248 27.8577 88.101 30.0964C88.6723 31.2156 88.9638 32.4566 88.9508 33.7131C88.9377 34.9697 88.6204 36.2043 88.026 37.3114C86.84 39.3114 84.683 40.5114 82.626 41.6184" stroke="#515151" stroke-miterlimit="10"/>
<path d="M85.171 4.39844C84.5553 4.43186 83.9609 4.63586 83.4545 4.98764C82.948 5.33942 82.5493 5.82512 82.303 6.39044C81.586 8.11344 82.509 10.1364 83.895 11.3904C85.3846 12.5258 86.9878 13.5037 88.679 14.3084C90.9009 15.5162 92.7147 17.3557 93.891 19.5944C94.4623 20.7137 94.7538 21.9546 94.7408 23.2112C94.7277 24.4677 94.4104 25.7023 93.816 26.8094C92.63 28.8094 90.473 30.0094 88.416 31.1164" stroke="#515151" stroke-miterlimit="10"/>
<path d="M104.208 6.8125C103.698 6.46432 103.101 6.2642 102.484 6.23437C101.867 6.20454 101.254 6.34615 100.713 6.64349C99.085 7.56949 98.569 9.73047 98.891 11.5675C99.3695 13.3712 100.035 15.12 100.877 16.7855C101.891 19.0951 102.192 21.6547 101.742 24.1365C101.502 25.3719 100.967 26.5312 100.184 27.5163C99.4007 28.5014 98.3915 29.2832 97.242 29.7955C95.07 30.6575 92.626 30.2955 90.319 29.9155" stroke="#515151" stroke-miterlimit="10"/>
<path d="M87.432 28.5239C89.35 28.5239 90.906 27.7739 90.906 26.8469C90.906 25.9199 89.35 25.1699 87.432 25.1699C85.514 25.1699 83.957 25.9209 83.957 26.8469C83.957 27.7729 85.513 28.5239 87.432 28.5239Z" fill="#B1C3A8"/>
<path d="M86.997 28.2368C88.916 28.2368 90.471 27.4858 90.471 26.5598C90.471 25.6338 88.916 24.8828 86.997 24.8828C85.078 24.8828 83.523 25.6328 83.523 26.5598C83.523 27.4868 85.079 28.2368 86.997 28.2368Z" stroke="#515151" stroke-miterlimit="10"/>
<path d="M94.959 27.0864C96.878 27.0864 98.433 26.3354 98.433 25.4094C98.433 24.4834 96.878 23.7324 94.959 23.7324C93.04 23.7324 91.485 24.4834 91.485 25.4094C91.485 26.3354 93.04 27.0864 94.959 27.0864Z" fill="#B1C3A8"/>
<path d="M94.525 26.7974C96.443 26.7974 97.999 26.0464 97.999 25.1204C97.999 24.1944 96.443 23.4434 94.525 23.4434C92.607 23.4434 91.05 24.1944 91.05 25.1204C91.05 26.0464 92.606 26.7974 94.525 26.7974Z" stroke="#515151" stroke-miterlimit="10"/>
<path d="M96.117 33.4146C98.035 33.4146 99.591 32.6635 99.591 31.7375C99.591 30.8115 98.035 30.0605 96.117 30.0605C94.199 30.0605 92.643 30.8115 92.643 31.7375C92.643 32.6635 94.198 33.4146 96.117 33.4146Z" fill="#B1C3A8"/>
<path d="M95.683 33.1274C97.601 33.1274 99.157 32.3764 99.157 31.4504C99.157 30.5244 97.601 29.7734 95.683 29.7734C93.765 29.7734 92.209 30.5244 92.209 31.4504C92.209 32.3764 93.764 33.1274 95.683 33.1274Z" stroke="#515151" stroke-miterlimit="10"/>
<path d="M95.393 17.5864C97.312 17.5864 98.867 16.8354 98.867 15.9094C98.867 14.9834 97.312 14.2324 95.393 14.2324C93.474 14.2324 91.919 14.9834 91.919 15.9094C91.919 16.8354 93.474 17.5864 95.393 17.5864Z" fill="#B1C3A8"/>
<path d="M94.959 17.3013C96.878 17.3013 98.433 16.5503 98.433 15.6243C98.433 14.6983 96.878 13.9473 94.959 13.9473C93.04 13.9473 91.485 14.6983 91.485 15.6243C91.485 16.5503 93.04 17.3013 94.959 17.3013Z" stroke="#515151" stroke-miterlimit="10"/>
<path d="M86.708 16.5864C88.627 16.5864 90.182 15.8354 90.182 14.9094C90.182 13.9834 88.627 13.2324 86.708 13.2324C84.789 13.2324 83.234 13.9834 83.234 14.9094C83.234 15.8354 84.789 16.5864 86.708 16.5864Z" fill="#B1C3A8"/>
<path d="M86.274 16.2954C88.192 16.2954 89.748 15.5444 89.748 14.6184C89.748 13.6924 88.192 12.9414 86.274 12.9414C84.356 12.9414 82.799 13.6924 82.799 14.6184C82.799 15.5444 84.355 16.2954 86.274 16.2954Z" stroke="#515151" stroke-miterlimit="10"/>
<path d="M90.616 12.9868C92.535 12.9868 94.09 12.2358 94.09 11.3098C94.09 10.3838 92.535 9.63281 90.616 9.63281C88.697 9.63281 87.142 10.3838 87.142 11.3098C87.142 12.2358 88.697 12.9868 90.616 12.9868Z" fill="#B1C3A8"/>
<path d="M90.182 12.6978C92.101 12.6978 93.656 11.9478 93.656 11.0208C93.656 10.0938 92.101 9.34375 90.182 9.34375C88.263 9.34375 86.708 10.0948 86.708 11.0208C86.708 11.9468 88.263 12.6978 90.182 12.6978Z" stroke="#515151" stroke-miterlimit="10"/>
<path d="M99.157 13.7056C101.075 13.7056 102.631 12.9556 102.631 12.0286C102.631 11.1016 101.075 10.3516 99.157 10.3516C97.239 10.3516 95.683 11.1026 95.683 12.0286C95.683 12.9546 97.238 13.7056 99.157 13.7056Z" fill="#B1C3A8"/>
<path d="M98.722 13.4185C100.641 13.4185 102.197 12.6675 102.197 11.7415C102.197 10.8155 100.641 10.0645 98.722 10.0645C96.803 10.0645 95.248 10.8145 95.248 11.7415C95.248 12.6685 96.804 13.4185 98.722 13.4185Z" stroke="#515151" stroke-miterlimit="10"/>
<path d="M105.526 18.4536C107.445 18.4536 109 17.7026 109 16.7766C109 15.8506 107.445 15.0996 105.526 15.0996C103.607 15.0996 102.052 15.8506 102.052 16.7766C102.052 17.7026 103.607 18.4536 105.526 18.4536Z" fill="#B1C3A8"/>
<path d="M105.092 18.1646C107.01 18.1646 108.566 17.4135 108.566 16.4875C108.566 15.5615 107.01 14.8105 105.092 14.8105C103.174 14.8105 101.618 15.5615 101.618 16.4875C101.618 17.4135 103.173 18.1646 105.092 18.1646Z" stroke="#515151" stroke-miterlimit="10"/>
<path d="M83.089 10.1099C85.008 10.1099 86.563 9.35886 86.563 8.43286C86.563 7.50686 85.008 6.75586 83.089 6.75586C81.17 6.75586 79.615 7.50686 79.615 8.43286C79.615 9.35886 81.17 10.1099 83.089 10.1099Z" fill="#B1C3A8"/>
<path d="M82.655 9.8208C84.573 9.8208 86.129 9.0698 86.129 8.1438C86.129 7.2178 84.573 6.4668 82.655 6.4668C80.737 6.4668 79.181 7.2178 79.181 8.1438C79.181 9.0698 80.736 9.8208 82.655 9.8208Z" stroke="#515151" stroke-miterlimit="10"/>
<path d="M85.26 4.64111C87.179 4.64111 88.734 3.89011 88.734 2.96411C88.734 2.03811 87.179 1.28711 85.26 1.28711C83.341 1.28711 81.786 2.03811 81.786 2.96411C81.786 3.89011 83.346 4.64111 85.26 4.64111Z" fill="#B1C3A8"/>
<path d="M84.826 4.354C86.745 4.354 88.3 3.603 88.3 2.677C88.3 1.751 86.745 1 84.826 1C82.907 1 81.352 1.751 81.352 2.677C81.352 3.603 82.907 4.354 84.826 4.354Z" stroke="#515151" stroke-miterlimit="10"/>
<path d="M105.381 8.67041C107.3 8.67041 108.855 7.91941 108.855 6.99341C108.855 6.06741 107.3 5.31641 105.381 5.31641C103.462 5.31641 101.907 6.06741 101.907 6.99341C101.907 7.91941 103.462 8.67041 105.381 8.67041Z" fill="#B1C3A8"/>
<path d="M104.946 8.38626C106.865 8.38626 108.42 7.63525 108.42 6.70825C108.42 5.78125 106.865 5.03125 104.946 5.03125C103.027 5.03125 101.472 5.78225 101.472 6.70825C101.472 7.63425 103.028 8.38626 104.946 8.38626Z" stroke="#515151" stroke-miterlimit="10"/>
<path d="M73.39 21.9067C75.309 21.9067 76.864 21.1557 76.864 20.2297C76.864 19.3037 75.309 18.5527 73.39 18.5527C71.471 18.5527 69.916 19.3027 69.916 20.2297C69.916 21.1567 71.472 21.9067 73.39 21.9067Z" fill="#B1C3A8"/>
<path d="M72.956 21.6177C74.875 21.6177 76.43 20.8667 76.43 19.9407C76.43 19.0147 74.875 18.2637 72.956 18.2637C71.037 18.2637 69.482 19.0147 69.482 19.9407C69.482 20.8667 71.037 21.6177 72.956 21.6177Z" stroke="#515151" stroke-miterlimit="10"/>
<path d="M85.405 21.0425C87.324 21.0425 88.879 20.2915 88.879 19.3645C88.879 18.4375 87.324 17.6875 85.405 17.6875C83.486 17.6875 81.931 18.4385 81.931 19.3645C81.931 20.2905 83.486 21.0425 85.405 21.0425Z" fill="#B1C3A8"/>
<path d="M84.971 20.7544C86.889 20.7544 88.445 20.0034 88.445 19.0774C88.445 18.1514 86.889 17.4004 84.971 17.4004C83.053 17.4004 81.497 18.1514 81.497 19.0774C81.497 20.0034 83.052 20.7544 84.971 20.7544Z" stroke="#515151" stroke-miterlimit="10"/>
<path d="M101.183 22.3364C103.102 22.3364 104.657 21.5854 104.657 20.6594C104.657 19.7334 103.102 18.9824 101.183 18.9824C99.264 18.9824 97.709 19.7334 97.709 20.6594C97.709 21.5854 99.265 22.3364 101.183 22.3364Z" fill="#B1C3A8"/>
<path d="M100.746 22.0503C102.665 22.0503 104.22 21.2993 104.22 20.3733C104.22 19.4473 102.665 18.6953 100.746 18.6953C98.827 18.6953 97.272 19.4463 97.272 20.3733C97.272 21.3003 98.83 22.0503 100.746 22.0503Z" stroke="#515151" stroke-miterlimit="10"/>
<path d="M92.787 22.9126C94.706 22.9126 96.262 22.1616 96.262 21.2356C96.262 20.3096 94.706 19.5586 92.787 19.5586C90.868 19.5586 89.313 20.3086 89.313 21.2356C89.313 22.1626 90.869 22.9126 92.787 22.9126Z" fill="#B1C3A8"/>
<path d="M92.353 22.6255C94.272 22.6255 95.827 21.8745 95.827 20.9485C95.827 20.0225 94.272 19.2715 92.353 19.2715C90.434 19.2715 88.879 20.0225 88.879 20.9485C88.879 21.8745 90.435 22.6255 92.353 22.6255Z" stroke="#515151" stroke-miterlimit="10"/>
<path d="M93.366 8.52588C95.285 8.52588 96.841 7.77588 96.841 6.84888C96.841 5.92188 95.285 5.17188 93.366 5.17188C91.447 5.17188 89.892 5.92288 89.892 6.84888C89.892 7.77488 91.446 8.52588 93.366 8.52588Z" fill="#B1C3A8"/>
<path d="M92.932 8.23877C94.851 8.23877 96.406 7.48777 96.406 6.56177C96.406 5.63577 94.851 4.88477 92.932 4.88477C91.013 4.88477 89.458 5.63477 89.458 6.56177C89.458 7.48877 91.014 8.23877 92.932 8.23877Z" stroke="#515151" stroke-miterlimit="10"/>
<path d="M78.457 17.4458C80.376 17.4458 81.931 16.6948 81.931 15.7688C81.931 14.8428 80.376 14.0918 78.457 14.0918C76.538 14.0918 74.983 14.8428 74.983 15.7688C74.983 16.6948 76.538 17.4458 78.457 17.4458Z" fill="#B1C3A8"/>
<path d="M78.022 17.1587C79.941 17.1587 81.497 16.4077 81.497 15.4817C81.497 14.5557 79.941 13.8047 78.022 13.8047C76.103 13.8047 74.546 14.5557 74.546 15.4867C74.546 16.4177 76.104 17.1587 78.022 17.1587Z" stroke="#515151" stroke-miterlimit="10"/>
<path d="M80.483 23.9204C82.402 23.9204 83.957 23.1694 83.957 22.2434C83.957 21.3174 82.402 20.5664 80.483 20.5664C78.564 20.5664 77.009 21.3174 77.009 22.2434C77.009 23.1694 78.565 23.9204 80.483 23.9204Z" fill="#B1C3A8"/>
<path d="M80.046 23.6313C81.965 23.6313 83.52 22.8803 83.52 21.9543C83.52 21.0283 81.965 20.2773 80.046 20.2773C78.127 20.2773 76.572 21.0283 76.572 21.9543C76.572 22.8803 78.13 23.6313 80.046 23.6313Z" stroke="#515151" stroke-miterlimit="10"/>
<g opacity="0.3">
<path opacity="0.3" d="M80.564 33.6938C81.055 32.8218 81.144 31.9438 80.764 31.7318C80.384 31.5198 79.679 32.0568 79.188 32.9318C78.697 33.8068 78.608 34.6818 78.988 34.8928C79.368 35.1038 80.074 34.5658 80.564 33.6938Z" fill="#B1C3A8"/>
<path opacity="0.3" d="M80.335 33.8253C80.826 32.9533 80.915 32.0753 80.535 31.8643C80.155 31.6533 79.45 32.1893 78.959 33.0643C78.468 33.9393 78.379 34.8143 78.759 35.0253C79.139 35.2363 79.846 34.6973 80.335 33.8253Z" stroke="#515151" stroke-miterlimit="10"/>
</g>
<g opacity="0.3">
<path opacity="0.3" d="M98.673 37.873C98.963 37.551 98.591 36.749 97.842 36.083C97.093 35.417 96.251 35.138 95.96 35.46C95.669 35.782 96.042 36.584 96.791 37.251C97.54 37.918 98.382 38.196 98.673 37.873Z" fill="#B1C3A8"/>
<path opacity="0.3" d="M98.593 37.6226C98.884 37.3006 98.512 36.4986 97.763 35.8326C97.014 35.1666 96.171 34.8876 95.881 35.2106C95.591 35.5336 95.963 36.3336 96.712 37.0006C97.461 37.6676 98.303 37.9456 98.593 37.6226Z" stroke="#515151" stroke-miterlimit="10"/>
</g>
<g opacity="0.3">
<path opacity="0.3" d="M82.46 28.8125C82.751 28.4895 82.379 27.6884 81.63 27.0224C80.881 26.3564 80.038 26.0775 79.748 26.3995C79.458 26.7215 79.829 27.5235 80.578 28.1895C81.327 28.8555 82.17 29.1345 82.46 28.8125Z" fill="#B1C3A8"/>
<path opacity="0.3" d="M82.381 28.5605C82.671 28.2375 82.299 27.4365 81.55 26.7705C80.801 26.1045 79.959 25.8255 79.669 26.1475C79.379 26.4695 79.75 27.2715 80.499 27.9375C81.248 28.6035 82.091 28.8865 82.381 28.5605Z" stroke="#515151" stroke-miterlimit="10"/>
</g>
</svg>
